<?xml version="1.0"?>
<svg xmlns="http://www.w3.org/2000/svg" height="512px" viewBox="-72 0 496 496" width="512px" class=""><g><g><path d="m341.199219 392.878906c1.839843 6.5625 2.800781 13.441406 2.800781 20.320313 0 41.359375-33.441406 74.800781-74.800781 74.800781h-186.398438c-20.722656 0-39.359375-8.320312-52.878906-21.921875-13.601563-13.519531-21.921875-32.15625-21.921875-52.878906 0-6.878907.960938-13.757813 2.800781-20.320313 19.121094 3.28125 22.640625 15.121094 47.839844 15.121094 29.359375 0 29.359375-16 58.640625-16 29.359375 0 29.359375 16 58.640625 16 29.359375 0 29.359375-16 58.71875-16 29.28125 0 29.28125 16 58.640625 16 25.199219 0 28.71875-11.839844 47.917969-15.121094zm0 0" fill="#f0bc5e" data-original="#ED6E00" class="" style="fill:#ED6E00" data-old_color="#ed6e00"/><path d="m330.046875 357.097656-63.4375-68.738281c-6.839844-7.40625-10.609375-17.039063-10.609375-27.128906v-53.230469h16c8.824219 0 16-7.175781 16-16v-16c0-8.824219-7.175781-16-16-16h-48v-48c8.824219 0 16-7.175781 16-16v-16c0-8.824219-7.175781-16-16-16h-8v-24c0-22.054688-17.945312-40-40-40s-40 17.945312-40 40v24h-8c-8.824219 0-16 7.175781-16 16v16c0 8.824219 7.175781 16 16 16v48h-48c-8.824219 0-16 7.175781-16 16v16c0 8.824219 7.175781 16 16 16h16v53.230469c0 10.089843-3.769531 19.722656-10.609375 27.128906l-63.4375 68.738281c-14.152344 15.328125-21.953125 35.261719-21.953125 56.132813 0 45.640625 37.128906 82.769531 82.769531 82.769531h186.46875c45.632813 0 82.761719-37.128906 82.761719-82.769531 0-20.871094-7.800781-40.804688-21.953125-56.132813zm-178.046875-317.097656c0-13.230469 10.769531-24 24-24s24 10.769531 24 24v24h-48zm-24 40h96v16h-96zm16 32h64v16h-32v16h32v16h-64zm-64.007812 64h192.007812v16h-192zm128.007812 48h-16v16h16v16h-32v16h32v16c0 13.28125-8.054688 24.960938-20.527344 29.769531l-4.472656 1.726563-6.0625 48.503906h-1.875l-6.0625-48.503906-4.472656-1.726563c-12.472656-4.808593-20.527344-16.488281-20.527344-29.769531v-80h64zm61.230469 256h-186.460938c-36.816406 0-66.769531-29.953125-66.769531-66.769531 0-16.832031 6.289062-32.917969 17.703125-45.277344l63.441406-68.738281c9.582031-10.375 14.855469-23.863282 14.855469-37.984375v-53.230469h16v80c0 18.296875 10.167969 34.574219 26.28125 42.703125l6.65625 53.296875h30.125l6.664062-53.296875c16.105469-8.128906 26.273438-24.40625 26.273438-42.703125v-80h16v53.230469c0 14.121093 5.273438 27.609375 14.847656 37.984375l63.449219 68.738281c11.414063 12.359375 17.703125 28.445313 17.703125 45.277344 0 36.816406-29.953125 66.769531-66.769531 66.769531zm0 0" data-original="#1F1F1F" class="active-path" style="fill:#1F1F1F" data-old_color="#1f1f1f"/><path d="m240 416c-13.230469 0-24 10.769531-24 24s10.769531 24 24 24 24-10.769531 24-24-10.769531-24-24-24zm0 32c-4.40625 0-8-3.585938-8-8s3.59375-8 8-8 8 3.585938 8 8-3.59375 8-8 8zm0 0" data-original="#1F1F1F" class="active-path" style="fill:#1F1F1F" data-old_color="#1f1f1f"/><path d="m120 416c-13.230469 0-24 10.769531-24 24s10.769531 24 24 24 24-10.769531 24-24-10.769531-24-24-24zm0 32c-4.40625 0-8-3.585938-8-8s3.59375-8 8-8 8 3.585938 8 8-3.59375 8-8 8zm0 0" data-original="#1F1F1F" class="active-path" style="fill:#1F1F1F" data-old_color="#1f1f1f"/></g></g> </svg>
