<?xml version="1.0"?>
<svg xmlns="http://www.w3.org/2000/svg" xmlns:xlink="http://www.w3.org/1999/xlink" version="1.1" id="Layer_1" x="0px" y="0px" viewBox="0 0 496 496" style="enable-background:new 0 0 496 496;" xml:space="preserve" width="512px" height="512px" class=""><g><rect x="128" y="168" style="fill:#ED6E00" width="240" height="160" data-original="#F9BA48" class="" data-old_color="#ed6e00"/><g>
	<path style="fill:#1F1F1F" d="M472,88H320V72c0-39.704-32.296-72-72-72s-72,32.296-72,72c0,5.504,0.68,10.848,1.856,16H24   C10.768,88,0,98.768,0,112v304c0,13.232,10.768,24,24,24h152v40h-56v16h56h144h56v-16h-56v-40h152c13.232,0,24-10.768,24-24V112   C496,98.768,485.232,88,472,88z M24,104h159.6c11.808,23.664,36.2,40,64.4,40h24v-16h-24c-30.872,0-56-25.128-56-56   s25.128-56,56-56s56,25.128,56,56v20c0,6.616-5.384,12-12,12s-12-5.384-12-12V72c0-17.648-14.352-32-32-32s-32,14.352-32,32   s14.352,32,32,32c6.208,0,12.016-1.784,16.92-4.848C268.096,111.136,279.032,120,292,120c11.128,0,20.68-6.576,25.192-16H472   c4.416,0,8,3.584,8,8v256H16V112C16,107.584,19.584,104,24,104z M264,72c0,8.824-7.176,16-16,16s-16-7.176-16-16s7.176-16,16-16   S264,63.176,264,72z M304,480H192v-40h112V480z M472,424H320h-72h-72H24c-4.416,0-8-3.584-8-8v-32h232h232v32   C480,420.416,476.416,424,472,424z" data-original="#333333" class="active-path" data-old_color="#1f1f1f"/>
	<path style="fill:#1F1F1F" d="M268,404c0-11.032-8.968-20-20-20s-20,8.968-20,20s8.968,20,20,20C259.032,424,268,415.032,268,404z    M248,408c-2.2,0-4-1.8-4-4s1.8-4,4-4c2.2,0,4,1.8,4,4S250.2,408,248,408z" data-original="#333333" class="active-path" data-old_color="#1f1f1f"/>
	<polygon style="fill:#1F1F1F" points="133.872,333.432 224.512,235.24 248,249.328 271.488,235.24 362.128,333.432    373.872,322.568 285.496,226.832 372.12,174.856 363.88,161.144 248,230.672 132.12,161.144 123.88,174.856 210.504,226.832    122.128,322.568  " data-original="#333333" class="active-path" data-old_color="#1f1f1f"/>
</g></g> </svg>
