<?xml version="1.0"?>
<svg xmlns="http://www.w3.org/2000/svg" xmlns:xlink="http://www.w3.org/1999/xlink" version="1.1" id="Capa_1" x="0px" y="0px" viewBox="0 0 496 496" style="enable-background:new 0 0 496 496;" xml:space="preserve" width="512px" height="512px" class=""><g><g>
	<path style="fill:#1F1F1F" d="M406.976,496h-5.088c-7.704,0-15.424-1.824-22.312-5.264c-17.008-8.504-27.576-25.6-27.576-44.624   v-6.272c0-7.592,3.776-14.64,10.096-18.848l10.936-7.296c1.856-1.24,2.968-3.312,2.968-5.536c0-12.144,4.016-24.168,11.296-33.88   l8.184-10.912c5.336-7.12,13.832-11.36,22.712-11.36c5.096,0,9.608-3.056,11.504-7.792l7.192-17.96   C440.344,317.592,448.6,312,457.928,312c5.96,0,11.808,2.424,16.024,6.64l2.12,2.12C488.92,333.608,496,350.696,496,368.864   c0,11.208-2.816,22.36-8.128,32.248l-36.968,68.648C442.192,485.944,425.36,496,406.976,496z M457.928,328   c-2.744,0-5.168,1.64-6.184,4.184l-7.184,17.96C440.216,360.992,429.872,368,418.192,368c-3.872,0-7.584,1.848-9.912,4.96   l-8.192,10.912c-5.216,6.96-8.088,15.584-8.088,24.288c0,7.592-3.776,14.64-10.096,18.848l-10.936,7.296   c-1.856,1.24-2.968,3.312-2.968,5.536v6.264c0,12.92,7.176,24.536,18.736,30.312c4.68,2.352,9.92,3.584,15.152,3.584h5.088   c12.488,0,23.92-6.832,29.832-17.824l36.968-68.648c4.072-7.56,6.224-16.088,6.224-24.664c0-13.896-5.416-26.968-15.24-36.8   l-2.12-2.12C461.4,328.712,459.68,328,457.928,328z" data-original="#333333" class="active-path" data-old_color="#1f1f1f"/>
	<path style="fill:#1F1F1F" d="M220.28,496c-20.008,0-36.28-16.272-36.28-36.28V444l-16.432-12.328   C157.816,424.368,152,412.736,152,400.544c0-13.048,6.48-25.152,17.328-32.384l2.72-1.824c2.472-1.648,3.952-4.4,3.952-7.36   c0-2.368-0.92-4.592-2.592-6.264l-6.52-6.52c-9.6-9.592-14.888-22.36-14.888-35.928c0-10.912,3.608-21.744,10.16-30.48l9.44-12.584   c2.832-3.784,4.4-8.472,4.4-13.2c0-12.136-9.864-22-22-22c-4.736,0-9.424,1.56-13.192,4.4C123.952,249.04,103.072,256,82,256   h-3.376c-16.488,0-32.624-6.688-44.28-18.344S16,209.856,16,193.376v-31.832L3.872,131.232C1.304,124.792,0,118.024,0,111.104   c0-16.968,8.112-33.184,21.688-43.36l13.056-9.8L52.64,40.048C68.152,24.536,88.768,16,110.696,16h14.152   c5.712,0,11.24-1.68,16-4.84l5.44-3.624C153.68,2.6,162.28,0,171.152,0C195.88,0,216,20.12,216,44.848v15.84   c0,5.16,2.008,10.008,5.656,13.656c3.648,3.648,8.496,5.656,13.656,5.656h24C266.304,80,272,74.304,272,67.312   c0-9.432,3.672-18.296,10.344-24.968S297.88,32,307.312,32h15.128c10.88,0,21.112,4.232,28.808,11.928   c5.216,5.216,8.928,11.768,10.72,18.928l4.392,17.56c15.24,2.056,28.52,11.424,35.536,25.472L412.944,128h23.744   c9.432,0,18.296,3.672,24.968,10.344C468.328,145.016,472,153.88,472,163.312c0,30.952-12.056,60.056-33.944,81.944l-17.024,17.024   C412.624,270.688,408,281.856,408,293.752c0,18.944-9.048,37.032-24.2,48.4l-15.496,11.616   C353.088,365.184,344,383.368,344,402.392c0,21.256-9.52,41.072-26.128,54.36C305.584,466.584,290.144,472,274.392,472h-15.08   l-13.376,13.376C239.088,492.224,229.976,496,220.28,496z M154,216c20.952,0,38,17.048,38,38c0,8.168-2.704,16.264-7.6,22.808   l-9.44,12.576c-4.496,5.992-6.96,13.408-6.96,20.88c0,9.296,3.616,18.04,10.192,24.616l6.52,6.52   c4.696,4.696,7.28,10.936,7.28,17.576c0,8.328-4.144,16.064-11.08,20.672l-2.712,1.824c-6.384,4.264-10.2,11.392-10.2,19.072   c0,7.168,3.432,14.024,9.16,18.328L200,436v23.72c0,11.176,9.104,20.28,20.28,20.28c5.424,0,10.512-2.112,14.344-5.936L252.688,456   h21.704c12.136,0,24.024-4.168,33.488-11.744c12.784-10.232,20.12-25.488,20.12-41.864c0-24.032,11.48-46.992,30.704-61.424   l15.504-11.616c11.136-8.36,17.792-21.672,17.792-35.6c0-16.168,6.288-31.36,17.72-42.784l17.024-17.024   C445.608,215.08,456,189.992,456,163.312c0-5.16-2.008-10.008-5.656-13.656c-3.648-3.648-8.504-5.656-13.656-5.656h-33.632   l-15.48-30.952C382.32,102.528,371.76,96,360,96h-6.24l-7.32-29.256c-1.088-4.36-3.336-8.328-6.512-11.504   c-4.672-4.672-10.88-7.24-17.488-7.24h-15.128c-5.16,0-10.008,2.008-13.656,5.656C290.008,57.304,288,62.152,288,67.312   C288,83.136,275.136,96,259.312,96h-24c-9.432,0-18.296-3.672-24.968-10.344C203.672,78.984,200,70.12,200,60.688v-15.84   C200,28.936,187.064,16,171.152,16c-5.712,0-11.24,1.68-16,4.84l-5.44,3.624C142.32,29.4,133.72,32,124.84,32h-14.152   c-17.656,0-34.256,6.872-46.744,19.36L44.808,70.4L31.296,80.544C21.712,87.72,16,99.144,16,111.104   c0,4.872,0.92,9.648,2.736,14.184L32,158.464v34.912c0,12.272,4.976,24.288,13.656,32.968C54.336,235.024,66.352,240,78.624,240H82   c17.632,0,35.104-5.824,49.192-16.4C137.736,218.704,145.824,216,154,216z" data-original="#333333" class="active-path" data-old_color="#1f1f1f"/>
</g><path style="fill:#ED6E00" d="M288,352c-12.92,0-24.536-7.176-30.312-18.736l-48.64-97.288C203.136,224.16,200,210.904,200,197.664  C200,150.432,238.432,112,285.664,112h4.672C337.568,112,376,150.432,376,197.664c0,13.24-3.136,26.496-9.048,38.312l-48.64,97.288  C312.536,344.824,300.92,352,288,352z" data-original="#FFA64D" class="" data-old_color="#ed6e00"/><g>
	<path style="fill:#1F1F1F" d="M288,248c-26.472,0-48-21.528-48-48s21.528-48,48-48s48,21.528,48,48S314.472,248,288,248z M288,168   c-17.648,0-32,14.352-32,32s14.352,32,32,32s32-14.352,32-32S305.648,168,288,168z" data-original="#333333" class="active-path" data-old_color="#1f1f1f"/>
	<rect x="80" y="64" style="fill:#1F1F1F" width="16" height="16" data-original="#333333" class="active-path" data-old_color="#1f1f1f"/>
	<rect x="152" y="128" style="fill:#1F1F1F" width="16" height="16" data-original="#333333" class="active-path" data-old_color="#1f1f1f"/>
	<rect x="48" y="184" style="fill:#1F1F1F" width="16" height="16" data-original="#333333" class="active-path" data-old_color="#1f1f1f"/>
	<rect x="272" y="408" style="fill:#1F1F1F" width="16" height="16" data-original="#333333" class="active-path" data-old_color="#1f1f1f"/>
	<rect x="208" y="344" style="fill:#1F1F1F" width="16" height="16" data-original="#333333" class="active-path" data-old_color="#1f1f1f"/>
	<rect x="416" y="408" style="fill:#1F1F1F" width="16" height="16" data-original="#333333" class="active-path" data-old_color="#1f1f1f"/>
</g></g> </svg>
