<?xml version="1.0"?>
<svg xmlns="http://www.w3.org/2000/svg" xmlns:xlink="http://www.w3.org/1999/xlink" version="1.1" id="Capa_1" x="0px" y="0px" viewBox="0 0 496 496" style="enable-background:new 0 0 496 496;" xml:space="preserve" width="512px" height="512px" class=""><g><path style="fill:#ED6E00" d="M288.032,257.288C287.312,243.448,298.32,232,312,232c-13.256,0-24-10.744-24-24s10.744-24,24-24  c-13.256,0-24-10.744-24-24s10.744-24,24-24c-13.68,0-24.688-11.448-23.968-25.288C288.712,97.728,300.36,88,313.36,88H328  c0-4.416-3.584-8-8-8H176c-4.416,0-8,3.584-8,8v80h6.64c12.992,0,24.648,9.728,25.32,22.712C200.688,204.552,189.68,216,176,216h-8  v64c0,4.416,3.584,8,8,8h144c4.416,0,8-3.584,8-8h-14.64C300.36,280,288.712,270.272,288.032,257.288z" data-original="#F0BC5E" class="" data-old_color="#ed6e00"/><rect x="219.632" y="336" width="56.736" height="16" data-original="#000000" class="active-path" style="fill:#1F1F1F" data-old_color="#1f1f1f"/><path d="M392,112c0-17.648-14.352-32-32-32V40c0-22.056-17.944-40-40-40H176c-22.056,0-40,17.944-40,40v120h-8  c-22.056,0-40,17.944-40,40v146.336c0,34.472,18.264,65.624,48,82.464V496h160v-67.904c13.824-10.688,22.36-26.68,23.72-44.096H320  c22.056,0,40-17.944,40-40v-56c17.648,0,32-14.352,32-32c0-9.608-4.336-18.128-11.056-24c6.72-5.872,11.056-14.392,11.056-24  s-4.336-18.128-11.056-24c6.72-5.872,11.056-14.392,11.056-24s-4.336-18.128-11.056-24C387.664,130.128,392,121.608,392,112z   M176,16h144c13.232,0,24,10.768,24,24v8H152v-8C152,26.768,162.768,16,176,16z M283.56,417.344L280,419.72V480H152v-60.944  l-4.424-2.208C120.696,403.4,104,376.384,104,346.336V200c0-13.232,10.768-24,24-24h48c8.824,0,16,7.176,16,16s-7.176,16-16,16h-40  v16v8v112c0,22.056,17.944,40,40,40h127.704C302.272,397.496,295,409.72,283.56,417.344z M320,368H176c-13.232,0-24-10.768-24-24  v-24h192v24C344,357.232,333.232,368,320,368z M344,304H152v-72v-8h16v64h16v-65.136c13.768-3.576,24-15.992,24-30.864  s-10.232-27.288-24-30.864V112h-16v48h-16V64h192v16h-32c-17.648,0-32,14.352-32,32c0,9.608,4.336,18.128,11.056,24  c-6.72,5.872-11.056,14.392-11.056,24s4.336,18.128,11.056,24c-6.72,5.872-11.056,14.392-11.056,24s4.336,18.128,11.056,24  c-6.72,5.872-11.056,14.392-11.056,24c0,17.648,14.352,32,32,32h32V304z M376,256c0,8.824-7.176,16-16,16h-48  c-8.824,0-16-7.176-16-16s7.176-16,16-16h48C368.824,240,376,247.176,376,256z M376,208c0,8.824-7.176,16-16,16h-48  c-8.824,0-16-7.176-16-16s7.176-16,16-16h48C368.824,192,376,199.176,376,208z M376,160c0,8.824-7.176,16-16,16h-48  c-8.824,0-16-7.176-16-16s7.176-16,16-16h48C368.824,144,376,151.176,376,160z M312,128c-8.824,0-16-7.176-16-16s7.176-16,16-16h48  c8.824,0,16,7.176,16,16s-7.176,16-16,16H312z" data-original="#000000" class="active-path" style="fill:#1F1F1F" data-old_color="#1f1f1f"/><path d="M32,72c0,22.056,17.944,40,40,40V96c-13.232,0-24-10.768-24-24s10.768-24,24-24V32C49.944,32,32,49.944,32,72z" data-original="#000000" class="active-path" style="fill:#1F1F1F" data-old_color="#1f1f1f"/><path d="M0,72c0,39.704,32.296,72,72,72v-16c-30.872,0-56-25.128-56-56s25.128-56,56-56V0C32.296,0,0,32.296,0,72z" data-original="#000000" class="active-path" style="fill:#1F1F1F" data-old_color="#1f1f1f"/><path d="M464,72c0-22.056-17.944-40-40-40v16c13.232,0,24,10.768,24,24s-10.768,24-24,24v16C446.056,112,464,94.056,464,72z" data-original="#000000" class="active-path" style="fill:#1F1F1F" data-old_color="#1f1f1f"/><path d="M424,0v16c30.872,0,56,25.128,56,56s-25.128,56-56,56v16c39.704,0,72-32.296,72-72S463.704,0,424,0z" data-original="#000000" class="active-path" style="fill:#1F1F1F" data-old_color="#1f1f1f"/><rect x="168" y="80" width="16" height="16" data-original="#000000" class="active-path" style="fill:#1F1F1F" data-old_color="#1f1f1f"/></g> </svg>
