<?xml version="1.0"?>
<svg xmlns="http://www.w3.org/2000/svg" height="512px" viewBox="0 0 496 496" width="512px" class=""><g><path d="m381.824219 145.703125-39.761719-9.941406 3.875-15.523438 24.238281 6.058594 23.578125-94.296875h102.246094v16h-89.753906zm0 0" data-original="#000000" class="active-path" style="fill:#1F1F1F" data-old_color="#1f1f1f"/><path d="m416 64h80v16h-80zm0 0" data-original="#000000" class="active-path" style="fill:#1F1F1F" data-old_color="#1f1f1f"/><path d="m416 96h80v16h-80zm0 0" data-original="#000000" class="active-path" style="fill:#1F1F1F" data-old_color="#1f1f1f"/><path d="m400 128h16v16h-16zm0 0" data-original="#000000" class="active-path" style="fill:#1F1F1F" data-old_color="#1f1f1f"/><path d="m432 128h16v16h-16zm0 0" data-original="#000000" class="active-path" style="fill:#1F1F1F" data-old_color="#1f1f1f"/><path d="m464 128h16v16h-16zm0 0" data-original="#000000" class="active-path" style="fill:#1F1F1F" data-old_color="#1f1f1f"/><path d="m352 158.246094v-60.492188l-21.886719-5.464844c-1.640625-4.882812-3.578125-9.601562-5.816406-14.113281l11.597656-19.296875-42.773437-42.773437-19.296875 11.597656c-4.503907-2.230469-9.222657-4.167969-14.113281-5.816406l-5.464844-21.886719h-60.492188l-5.464844 21.886719c-4.882812 1.640625-9.601562 3.578125-14.113281 5.816406l-19.296875-11.597656-42.773437 42.773437 11.597656 19.296875c-2.230469 4.503907-4.167969 9.222657-5.816406 14.113281l-21.886719 5.464844v52.550782c13.808594-9.015626 30.28125-14.304688 48-14.304688 16.96875 0 32.761719 4.886719 46.199219 13.207031-3.871094-6.160156-6.199219-13.390625-6.199219-21.207031 0-22.089844 17.910156-40 40-40s40 17.910156 40 40-17.910156 40-40 40c-5.214844 0-10.167969-1.070312-14.734375-2.886719 14.085937 15.605469 22.734375 36.207031 22.734375 58.886719v32h22.246094l5.464844-21.886719c4.882812-1.640625 9.601562-3.578125 14.113281-5.816406l19.296875 11.597656 42.78125-42.78125-11.597656-19.296875c2.230468-4.503906 4.167968-9.222656 5.816406-14.113281zm0 0" fill="#f0bc5e" data-original="#F0BC5E" class="" style="fill:#ED6E00" data-old_color="#ed6e00"/><path d="m488 312h8v-56h-128v41.367188c-9.3125 3.304687-16 12.199218-16 22.632812s6.6875 19.328125 16 22.632812v25.367188h-40v8c0 4.414062-3.585938 8-8 8s-8-3.585938-8-8v-8h-56v15.601562c-2.726562-1.289062-5.527344-2.441406-8.480469-3.296874l-63.519531-18.320313v-16.105469c8.457031-6.789062 15.144531-15.679687 19.289062-25.878906h4.710938c17.648438 0 32-14.351562 32-32v-64c0-5.929688-.617188-11.710938-1.648438-17.34375 37.472657-6.808594 65.648438-39.6875 65.648438-78.65625 0-44.113281-35.886719-80-80-80s-80 35.886719-80 80c-52.9375 0-96 43.0625-96 96v64c0 17.648438 14.351562 32 32 32h4.710938c4.144531 10.199219 10.832031 19.089844 19.289062 25.878906v16.105469l-63.519531 18.320313c-23.832031 6.878906-40.480469 29-40.480469 53.808593v61.886719h496v-168h-8c-4.414062 0-8-3.585938-8-8s3.585938-8 8-8zm-280-8h-.550781c.328125-2.625.550781-5.289062.550781-8v-24c8.824219 0 16 7.175781 16 16s-7.175781 16-16 16zm-11.960938-160.550781c-2.605468-4.722657-4.039062-10.007813-4.039062-15.449219 0-17.648438 14.351562-32 32-32s32 14.351562 32 32-14.351562 32-32 32c-3.527344 0-6.960938-.664062-10.265625-1.785156-5.285156-5.589844-11.207031-10.566406-17.695313-14.765625zm-36.039062-15.449219c0-35.289062 28.710938-64 64-64s64 28.710938 64 64c0 31.65625-23.230469 58.328125-53.894531 63.191406-1.953125-5.351562-4.351563-10.480468-7.183594-15.34375 25.109375-1.519531 45.078125-22.367187 45.078125-47.847656 0-26.472656-21.527344-48-48-48s-48 21.527344-48 48c0 1.929688.167969 3.847656.398438 5.742188-5.246094-1.886719-10.6875-3.335938-16.308594-4.285157-.019532-.488281-.089844-.960937-.089844-1.457031zm-80 176c-8.824219 0-16-7.175781-16-16s7.175781-16 16-16v24c0 2.710938.222656 5.375.550781 8zm0-80v32c-5.855469 0-11.273438 1.695312-16 4.449219v-36.449219c0-44.113281 35.886719-80 80-80s80 35.886719 80 80v36.449219c-4.726562-2.753907-10.144531-4.449219-16-4.449219v-32zm16 72v-56h96v56c0 26.472656-21.527344 48-48 48s-48-21.527344-48-48zm72 59.289062v12.710938c0 13.230469-10.769531 24-24 24s-24-10.769531-24-24v-12.710938c7.414062 3.015626 15.511719 4.710938 24 4.710938s16.585938-1.695312 24-4.710938zm96 84.710938h-8v40h-32v-48h-16v48h-128v-48h-16v48h-48v-45.886719c0-17.714843 11.886719-33.511719 28.910156-38.433593l60.570313-17.472657c4.550781 17.097657 20.015625 29.792969 38.519531 29.792969s33.96875-12.695312 38.519531-29.792969l60.570313 17.472657c4.765625 1.375 9.015625 3.761718 12.910156 6.71875v21.601562h8c4.414062 0 8 3.585938 8 8s-3.585938 8-8 8zm104 40h-96v-25.367188c9.3125-3.304687 16-12.199218 16-22.632812s-6.6875-19.328125-16-22.632812v-25.367188h25.367188c3.304687 9.3125 12.199218 16 22.632812 16s19.328125-6.6875 22.632812-16h25.367188v25.367188c-9.3125 3.304687-16 12.199218-16 22.632812s6.6875 19.328125 16 22.632812zm112 0h-96v-40h-8c-4.414062 0-8-3.585938-8-8s3.585938-8 8-8h8v-40h32v-8c0-4.414062 3.585938-8 8-8s8 3.585938 8 8v8h48zm0-182.632812c-9.3125 3.304687-16 12.199218-16 22.632812s6.6875 19.328125 16 22.632812v25.367188h-33.367188c-3.304687-9.3125-12.199218-16-22.632812-16s-19.328125 6.6875-22.632812 16h-17.367188v-40h-8c-4.414062 0-8-3.585938-8-8s3.585938-8 8-8h8v-40h96zm0 0" data-original="#000000" class="active-path" style="fill:#1F1F1F" data-old_color="#1f1f1f"/></g> </svg>
