<?xml version="1.0" encoding="utf-8"?>
<!-- Generator: Adobe Illustrator 22.0.1, SVG Export Plug-In . SVG Version: 6.00 Build 0)  -->
<svg version="1.1" id="Слой_1" xmlns="http://www.w3.org/2000/svg" xmlns:xlink="http://www.w3.org/1999/xlink" x="0px" y="0px"
	 viewBox="0 0 151.6 50.1" style="enable-background:new 0 0 151.6 50.1;" xml:space="preserve">
<style type="text/css">
	.st0{fill:#FFFFFF;}
	.st1{fill:#FF0000;stroke:#FFFFFF;stroke-width:6;}
</style>
<g>
	<path d="M4.8,16C17,22.7,30,26.8,43.7,28.7c23.2,3.3,45.9,0.8,68.2-5.7c12.3-3.6,24.1-8.8,36.1-13.2c1-0.4,2-0.9,3.5-0.8
		c-2.5,2.5-4.9,5.3-7.6,7.6c-21.4,18.1-45.9,29.6-73.8,32.8c-16.5,1.9-32.7,0.6-47.4-8.6C14.2,35.4,8.3,27.9,5,18.4
		c-0.2-0.5-0.3-0.9-0.4-1.4C4.5,16.7,4.7,16.5,4.8,16z"/>
	<path class="st0" d="M0.3,7.1c12.2,6.6,25.2,10.7,38.9,12.6c23.2,3.3,45.9,0.8,68.2-5.7c12.3-3.6,24.1-8.8,36.1-13.2
		c1-0.4,2-0.9,3.5-0.8c-2.5,2.5-4.9,5.3-7.6,7.6C118,25.8,93.5,37.2,65.6,40.4c-16.5,1.9-32.7,0.6-47.4-8.6C9.6,26.5,3.7,19,0.4,9.4
		C0.2,9,0.1,8.5,0,8C0,7.8,0.1,7.5,0.3,7.1z"/>
</g>
</svg>
