<?xml version="1.0" encoding="utf-8"?>
<!-- Generator: Adobe Illustrator 22.0.1, SVG Export Plug-In . SVG Version: 6.00 Build 0)  -->
<svg version="1.1" id="Слой_1" xmlns="http://www.w3.org/2000/svg" xmlns:xlink="http://www.w3.org/1999/xlink" x="0px" y="0px"
	 viewBox="0 0 266.1 90.7" style="enable-background:new 0 0 266.1 90.7;" xml:space="preserve">
<style type="text/css">
	.st0{fill:#FFFFFF;}
	.st1{fill:#FF0000;stroke:#FFFFFF;stroke-width:6;}
</style>
<g>
	<path d="M17.4,50.9c44.2,22.2,89.5,17.6,135,5.8c0-0.5,0-1,0-1.5c-9.7,0-19.3,0.4-29-0.1C95.2,53.6,68,47.9,42.6,34.8
		C28.9,27.8,16.2,19.2,4.6,8.9c41.2,19.5,84.9,28.2,130.1,29.8c45.2,1.6,89.4-3.2,131.4-22.3c-6.2,5.7-12.2,11.7-18.7,17.1
		C217,59.1,182.8,77.3,143.9,86.1c-25.5,5.8-51,6.7-76.3-0.9C47.3,79.1,30.4,67.8,17.4,50.9z"/>
	<path class="st0" d="M12.8,41.9c44.2,22.2,89.5,17.6,135,5.8c0-0.5,0-1,0-1.5c-9.7,0-19.3,0.4-29-0.1c-28.2-1.4-55.4-7.2-80.7-20.2
		C24.3,18.8,11.7,10.3,0,0c41.2,19.5,84.9,28.2,130.1,29.8c45.2,1.6,89.4-3.2,131.4-22.3c-6.2,5.7-12.2,11.7-18.7,17.1
		c-30.4,25.6-64.6,43.8-103.5,52.6c-25.5,5.8-51,6.7-76.3-0.9C42.8,70.1,25.9,58.9,12.8,41.9z"/>
</g>
</svg>
