<?xml version="1.0" encoding="utf-8"?>
<!-- Generator: Adobe Illustrator 22.0.1, SVG Export Plug-In . SVG Version: 6.00 Build 0)  -->
<svg version="1.1" id="Слой_1" xmlns="http://www.w3.org/2000/svg" xmlns:xlink="http://www.w3.org/1999/xlink" x="0px" y="0px"
	 viewBox="0 0 360.8 187.4" style="enable-background:new 0 0 360.8 187.4;" xml:space="preserve">
<style type="text/css">
	.st0{fill:#FFFFFF;}
	.st1{fill:#FF0000;stroke:#FFFFFF;stroke-width:6;}
</style>
<g>
	<path d="M157.8,9.2c-10.9,3-21.9,5.6-32.7,9c-28.1,9-54.3,21.4-76.3,41.6c-9.8,9-17.6,19.9-21,28.9c0.2,0,0.4,0.1,0.5,0
		c18.5-21.4,42.2-34.9,68-45.1c32.3-12.8,66-19.4,100.7-21.2c31.8-1.6,63.2,1,93.8,9.9c18.8,5.5,36.6,13.1,51.7,26.2
		c22.2,19.3,22.8,43.8,9.4,66.5c-9.1,15.5-23.2,25.6-38.7,33.9c-24,12.8-49.8,19.7-76.4,24.1c-22.9,3.8-45.9,5.2-69.1,4
		c7.7-1.1,15.3-2,23-3.2c33.1-5.3,65.3-13.2,94.8-29.9c20.3-11.5,37.4-26.7,49.8-46.7c0.6-1,1.2-1.9,1.7-2.9c0.1-0.2,0-0.4-0.1-1
		c-10.3,11.8-22.3,21-35.5,28.7c-27.6,16.1-57.5,25.7-88.8,31.5c-28.7,5.3-57.5,6.9-86.6,4.5c-30.5-2.6-60.1-8.5-86.9-24.1
		c-7.7-4.5-15-10.1-21.1-16.5C1.4,110.3,0.3,87.8,14.2,68.6c10.4-14.4,24.7-23.9,40.2-31.7c25.2-12.7,52.1-20,79.8-24.8
		c6.3-1.1,12.6-1.9,18.9-2.7c1.6-0.2,3.1-0.3,4.7-0.4C157.8,9,157.8,9.1,157.8,9.2z M300.6,105c-1.9-1.2-2.8-1.9-3.8-2.4
		c-5.8-2.7-11.4-5.7-17.3-8c-37.4-14.1-76-19.6-115.8-16.4c-25.5,2-50,8-72.4,20.9c-6.6,3.8-12.7,8.5-19.2,12.8
		c6,9.2,14,14.3,22.9,18.3c1.3,0.6,3.6,0.3,5-0.4c7.4-3.6,14.4-8,22-11.2c21.6-9.2,44.5-13.1,67.8-14c30.4-1.1,60.4,1.7,89,13.2
		c0.9,0.4,2.4,0.6,3.1,0.1C287.9,113.8,294,109.6,300.6,105z M68.9,95.7c0.3,0.2,0.6,0.3,0.9,0.5c0.5-0.3,1.1-0.5,1.5-0.9
		c25.8-18.8,55.2-27.5,86.5-30.7c25.6-2.7,51.2-1.3,76.5,3c23.6,4.1,46.5,10.4,67.8,21.7c1.9,1,3.9,2.2,6.1,3.4
		c3.7-8.7,3.4-16.9-2.2-24c-3.9-4.9-8.9-9.1-14.1-12.6C281.6,49.5,270,46,258,43.6c-37.5-7.7-74.8-6-111.9,2.6
		c-19.8,4.6-38.8,11.4-55.8,22.9c-6.9,4.7-13.1,10-17.4,17.3C71.3,89.3,70.3,92.6,68.9,95.7z M116.2,137.3
		c49.5,11.3,98,7.3,145.4-10.1C212.1,114.4,163.4,114.3,116.2,137.3z"/>
	<path class="st0" d="M153.2,0.2c-10.9,3-21.9,5.6-32.7,9c-28.1,9-54.3,21.4-76.3,41.6c-9.8,9-17.6,19.9-21,28.9
		c0.2,0,0.4,0.1,0.5,0c18.5-21.4,42.2-34.9,68-45.1c32.3-12.8,66-19.4,100.7-21.2c31.8-1.6,63.2,1,93.8,9.9
		c18.8,5.5,36.6,13.1,51.7,26.2c22.2,19.3,22.8,43.8,9.4,66.5c-9.1,15.5-23.2,25.6-38.7,33.9c-24,12.8-49.8,19.7-76.4,24.1
		c-22.9,3.8-45.9,5.2-69.1,4c7.7-1.1,15.3-2,23-3.2c33.1-5.3,65.3-13.2,94.8-29.9c20.3-11.5,37.4-26.7,49.8-46.7
		c0.6-1,1.2-1.9,1.7-2.9c0.1-0.2,0-0.4-0.1-1c-10.3,11.8-22.3,21-35.5,28.7c-27.6,16.1-57.5,25.7-88.8,31.5
		c-28.7,5.3-57.5,6.9-86.6,4.5c-30.5-2.6-60.1-8.5-86.9-24.1c-7.7-4.5-15-10.1-21.1-16.5C-3.2,101.3-4.2,78.9,9.6,59.6
		C20,45.2,34.3,35.8,49.8,27.9c25.2-12.7,52.1-20,79.8-24.8c6.3-1.1,12.6-1.9,18.9-2.7c1.6-0.2,3.1-0.3,4.7-0.4
		C153.2,0.1,153.2,0.2,153.2,0.2z M296,96c-1.9-1.2-2.8-1.9-3.8-2.4c-5.8-2.7-11.4-5.7-17.3-8c-37.4-14.1-76-19.6-115.8-16.4
		c-25.5,2-50,8-72.4,20.9C80.1,94.1,74,98.7,67.5,103c6,9.2,14,14.3,22.9,18.3c1.3,0.6,3.6,0.3,5-0.4c7.4-3.6,14.4-8,22-11.2
		c21.6-9.2,44.5-13.1,67.8-14c30.4-1.1,60.4,1.7,89,13.2c0.9,0.4,2.4,0.6,3.1,0.1C283.4,104.9,289.4,100.6,296,96z M64.4,86.8
		c0.3,0.2,0.6,0.3,0.9,0.5c0.5-0.3,1.1-0.5,1.5-0.9c25.8-18.8,55.2-27.5,86.5-30.7c25.6-2.7,51.2-1.3,76.5,3
		c23.6,4.1,46.5,10.4,67.8,21.7c1.9,1,3.9,2.2,6.1,3.4c3.7-8.7,3.4-16.9-2.2-24c-3.9-4.9-8.9-9.1-14.1-12.6
		c-10.2-6.7-21.9-10.2-33.8-12.7c-37.5-7.7-74.8-6-111.9,2.6c-19.8,4.6-38.8,11.4-55.8,22.9c-6.9,4.7-13.1,10-17.4,17.3
		C66.8,80.4,65.7,83.7,64.4,86.8z M111.7,128.3c49.5,11.3,98,7.3,145.4-10.1C207.5,105.4,158.8,105.4,111.7,128.3z"/>
</g>
</svg>
