<?xml version="1.0" encoding="utf-8"?>
<!-- Generator: Adobe Illustrator 22.0.1, SVG Export Plug-In . SVG Version: 6.00 Build 0)  -->
<svg version="1.1" id="Слой_1" xmlns="http://www.w3.org/2000/svg" xmlns:xlink="http://www.w3.org/1999/xlink" x="0px" y="0px"
	 viewBox="0 0 360.8 405.8" style="enable-background:new 0 0 360.8 405.8;" xml:space="preserve">
<style type="text/css">
	.st0{fill:#FFFFFF;}
	.st1{fill:#FF0000;stroke:#FFFFFF;stroke-width:6;}
</style>
<g>
	<g>
		<path d="M157.8,9.2c-10.9,3-21.9,5.6-32.7,9c-28.1,9-54.3,21.4-76.3,41.6c-9.8,9-17.6,19.9-21,28.9c0.2,0,0.4,0.1,0.5,0
			c18.5-21.4,42.2-34.9,68-45.1c32.3-12.8,66-19.4,100.7-21.2c31.8-1.6,63.2,1,93.8,9.9c18.8,5.5,36.6,13.1,51.7,26.2
			c22.2,19.3,22.8,43.8,9.4,66.5c-9.1,15.5-23.2,25.6-38.7,33.9c-24,12.8-49.8,19.7-76.4,24.1c-22.9,3.8-45.9,5.2-69.1,4
			c7.7-1.1,15.3-2,23-3.2c33.1-5.3,65.3-13.2,94.8-29.9c20.3-11.5,37.4-26.7,49.8-46.7c0.6-1,1.2-1.9,1.7-2.9c0.1-0.2,0-0.4-0.1-1
			c-10.3,11.8-22.3,21-35.5,28.7c-27.6,16.1-57.5,25.7-88.8,31.5c-28.7,5.3-57.5,6.9-86.6,4.5c-30.5-2.6-60.1-8.5-86.9-24.1
			c-7.7-4.5-15-10.1-21.1-16.5C1.4,110.3,0.3,87.8,14.2,68.6c10.4-14.4,24.7-23.9,40.2-31.7c25.2-12.7,52.1-20,79.8-24.8
			c6.3-1.1,12.6-1.9,18.9-2.7c1.6-0.2,3.1-0.3,4.7-0.4C157.8,9,157.8,9.1,157.8,9.2z M300.6,105c-1.9-1.2-2.8-1.9-3.8-2.4
			c-5.8-2.7-11.4-5.7-17.3-8c-37.4-14.1-76-19.6-115.8-16.4c-25.5,2-50,8-72.4,20.9c-6.6,3.8-12.7,8.5-19.2,12.8
			c6,9.2,14,14.3,22.9,18.3c1.3,0.6,3.6,0.3,5-0.4c7.4-3.6,14.4-8,22-11.2c21.6-9.2,44.5-13.1,67.8-14c30.4-1.1,60.4,1.7,89,13.2
			c0.9,0.4,2.4,0.6,3.1,0.1C287.9,113.8,294,109.6,300.6,105z M68.9,95.7c0.3,0.2,0.6,0.3,0.9,0.5c0.5-0.3,1.1-0.5,1.5-0.9
			c25.8-18.8,55.2-27.5,86.5-30.7c25.6-2.7,51.2-1.3,76.5,3c23.6,4.1,46.5,10.4,67.8,21.7c1.9,1,3.9,2.2,6.1,3.4
			c3.7-8.7,3.4-16.9-2.2-24c-3.9-4.9-8.9-9.1-14.1-12.6C281.6,49.5,270,46,258,43.6c-37.5-7.7-74.8-6-111.9,2.6
			c-19.8,4.6-38.8,11.4-55.8,22.9c-6.9,4.7-13.1,10-17.4,17.3C71.3,89.3,70.3,92.6,68.9,95.7z M116.2,137.3
			c49.5,11.3,98,7.3,145.4-10.1C212.1,114.4,163.4,114.3,116.2,137.3z"/>
		<path d="M68.5,214.8c44.2,22.2,89.5,17.6,135,5.8c0-0.5,0-1,0-1.5c-9.7,0-19.3,0.4-29-0.1c-28.2-1.4-55.4-7.2-80.7-20.2
			c-13.7-7.1-26.4-15.6-38.1-25.9c41.2,19.5,84.9,28.2,130.1,29.8c45.2,1.6,89.4-3.2,131.4-22.3C311,186,305,192,298.5,197.4
			C268.1,223,233.9,241.2,195,250c-25.5,5.8-51,6.7-76.3-0.9C98.4,243,81.6,231.7,68.5,214.8z"/>
		<path d="M86.3,258.2c12.2,6.6,25.2,10.7,38.9,12.6c23.2,3.3,45.9,0.8,68.2-5.7c12.3-3.6,24.1-8.8,36.1-13.2c1-0.4,2-0.9,3.5-0.8
			c-2.5,2.5-4.9,5.3-7.6,7.6c-21.4,18.1-45.9,29.6-73.8,32.8c-16.5,1.9-32.7,0.6-47.4-8.6c-8.6-5.4-14.5-12.8-17.8-22.4
			c-0.2-0.5-0.3-0.9-0.4-1.4C86,258.9,86.2,258.6,86.3,258.2z"/>
		<path d="M167.2,336.3c-28.1,5.2-50.1-7.3-70.6-24.9c0,0.7-0.1,1.1,0,1.4c0,0,25.1,45.8,26.1,92.9
			C129.4,363.4,167.2,336.3,167.2,336.3z"/>
		<path d="M106.1,300.9c27.7,9.4,54.6,5.7,81.3-3.4c-2.1,12.8-15,24.6-28.2,25.8c-16,1.5-29.5-4.7-42.1-13.6
			C113.3,307,109.8,303.8,106.1,300.9z"/>
	</g>
	<g>
		<path class="st0" d="M153.2,0.2c-10.9,3-21.9,5.6-32.7,9c-28.1,9-54.3,21.4-76.3,41.6c-9.8,9-17.6,19.9-21,28.9
			c0.2,0,0.4,0.1,0.5,0c18.5-21.4,42.2-34.9,68-45.1c32.3-12.8,66-19.4,100.7-21.2c31.8-1.6,63.2,1,93.8,9.9
			c18.8,5.5,36.6,13.1,51.7,26.2c22.2,19.3,22.8,43.8,9.4,66.5c-9.1,15.5-23.2,25.6-38.7,33.9c-24,12.8-49.8,19.7-76.4,24.1
			c-22.9,3.8-45.9,5.2-69.1,4c7.7-1.1,15.3-2,23-3.2c33.1-5.3,65.3-13.2,94.8-29.9c20.3-11.5,37.4-26.7,49.8-46.7
			c0.6-1,1.2-1.9,1.7-2.9c0.1-0.2,0-0.4-0.1-1c-10.3,11.8-22.3,21-35.5,28.7c-27.6,16.1-57.5,25.7-88.8,31.5
			c-28.7,5.3-57.5,6.9-86.6,4.5c-30.5-2.6-60.1-8.5-86.9-24.1c-7.7-4.5-15-10.1-21.1-16.5C-3.2,101.3-4.2,78.9,9.6,59.6
			C20,45.2,34.3,35.8,49.8,27.9c25.2-12.7,52.1-20,79.8-24.8c6.3-1.1,12.6-1.9,18.9-2.7c1.6-0.2,3.1-0.3,4.7-0.4
			C153.2,0.1,153.2,0.2,153.2,0.2z M296,96c-1.9-1.2-2.8-1.9-3.8-2.4c-5.8-2.7-11.4-5.7-17.3-8c-37.4-14.1-76-19.6-115.8-16.4
			c-25.5,2-50,8-72.4,20.9C80.1,94.1,74,98.7,67.5,103c6,9.2,14,14.3,22.9,18.3c1.3,0.6,3.6,0.3,5-0.4c7.4-3.6,14.4-8,22-11.2
			c21.6-9.2,44.5-13.1,67.8-14c30.4-1.1,60.4,1.7,89,13.2c0.9,0.4,2.4,0.6,3.1,0.1C283.4,104.9,289.4,100.6,296,96z M64.4,86.8
			c0.3,0.2,0.6,0.3,0.9,0.5c0.5-0.3,1.1-0.5,1.5-0.9c25.8-18.8,55.2-27.5,86.5-30.7c25.6-2.7,51.2-1.3,76.5,3
			c23.6,4.1,46.5,10.4,67.8,21.7c1.9,1,3.9,2.2,6.1,3.4c3.7-8.7,3.4-16.9-2.2-24c-3.9-4.9-8.9-9.1-14.1-12.6
			c-10.2-6.7-21.9-10.2-33.8-12.7c-37.5-7.7-74.8-6-111.9,2.6c-19.8,4.6-38.8,11.4-55.8,22.9c-6.9,4.7-13.1,10-17.4,17.3
			C66.8,80.4,65.7,83.7,64.4,86.8z M111.7,128.3c49.5,11.3,98,7.3,145.4-10.1C207.5,105.4,158.8,105.4,111.7,128.3z"/>
		<path class="st0" d="M63.9,205.8c44.2,22.2,89.5,17.6,135,5.8c0-0.5,0-1,0-1.5c-9.7,0-19.3,0.4-29-0.1
			c-28.2-1.4-55.4-7.2-80.7-20.2c-13.7-7.1-26.4-15.6-38.1-25.9c41.2,19.5,84.9,28.2,130.1,29.8c45.2,1.6,89.4-3.2,131.4-22.3
			c-6.2,5.7-12.2,11.7-18.7,17.1c-30.4,25.6-64.6,43.8-103.5,52.6c-25.5,5.8-51,6.7-76.3-0.9C93.9,234,77,222.8,63.9,205.8z"/>
		<path class="st0" d="M81.8,249.2c12.2,6.6,25.2,10.7,38.9,12.6c23.2,3.3,45.9,0.8,68.2-5.7c12.3-3.6,24.1-8.8,36.1-13.2
			c1-0.4,2-0.9,3.5-0.8c-2.5,2.5-4.9,5.3-7.6,7.6c-21.4,18.1-45.9,29.6-73.8,32.8c-16.5,1.9-32.7,0.6-47.4-8.6
			c-8.6-5.4-14.5-12.8-17.8-22.4c-0.2-0.5-0.3-0.9-0.4-1.4C81.5,249.9,81.6,249.7,81.8,249.2z"/>
		<path class="st0" d="M162.6,327.4c-28.1,5.2-50.1-7.3-70.6-24.9c0,0.7-0.1,1.1,0,1.4c0,0,25.1,45.8,26.1,92.9
			C124.8,354.5,162.6,327.4,162.6,327.4z"/>
		<path class="st0" d="M101.5,291.9c27.7,9.4,54.6,5.7,81.3-3.4c-2.1,12.8-15,24.6-28.2,25.8c-16,1.5-29.5-4.7-42.1-13.6
			C108.7,298,105.2,294.9,101.5,291.9z"/>
	</g>
</g>
</svg>
