<?xml version="1.0" encoding="utf-8"?>
<!-- Generator: Adobe Illustrator 22.0.1, SVG Export Plug-In . SVG Version: 6.00 Build 0)  -->
<svg version="1.1" id="Слой_1" xmlns="http://www.w3.org/2000/svg" xmlns:xlink="http://www.w3.org/1999/xlink" x="0px" y="0px"
	 viewBox="0 0 520.2 113.7" style="enable-background:new 0 0 520.2 113.7;" xml:space="preserve">
<style type="text/css">
	.st0{fill:#FFFFFF;}
	.st1{fill:#FF0000;stroke:#FFFFFF;stroke-width:6;}
</style>
<g>
	<g>
		<path d="M95.7,80.6c0,7.9-2.7,14.8-8.1,20.8c-5.6,6.2-12.2,9.3-20,9.3c-4.2,0-10.5-0.1-18.9-0.3c-8.4-0.2-14.7-0.3-18.9-0.3
			c-2.4,0-6,0.1-10.9,0.3c-4.8,0.2-8.4,0.3-10.8,0.3c-1.5,0-2.3-0.7-2.3-2c0-5.1,0.3-12.7,0.8-22.8c0.6-10.1,0.8-17.7,0.8-22.8
			c0-5.3-0.3-15.4-0.8-30.3C6.6,29,6.4,23.2,6,15.6l-0.1-1C5.8,13.6,6.4,13,7.7,13h47.7c11.7,0,20.9,2.3,27.6,6.8
			c3.2,2.2,5.8,5.3,7.7,9.5c1.8,3.9,2.7,7.9,2.7,12c0,3.2-1.4,7.1-4.1,11.4c-2.7,4.4-4.1,6.3-4.1,5.8c0,0.4,0.6,1,1.7,1.9
			C92.8,64.7,95.7,71.5,95.7,80.6z M55.5,42.3c0-3.6-3.6-5.4-10.9-5.4c-1.6,0-2.6,0.4-2.9,1.1c-0.1,0.3-0.2,1.5-0.2,3.6
			c0,2,0.1,3.3,0.3,3.8c0.4,0.8,1.5,1.2,3.3,1.2C52,46.5,55.5,45.1,55.5,42.3z M57.9,77.9c0-3.8-4.2-5.7-12.7-5.7
			c-1.9,0-3.1,0.3-3.5,1c-0.1,0.3-0.2,1.6-0.2,4c0,2.3,0.1,3.7,0.3,4.1c0.5,0.7,1.7,1.1,3.8,1.1c3.8,0,6.3-0.1,7.4-0.3
			C56.3,81.6,57.9,80.1,57.9,77.9z"/>
		<path d="M145.2,108.7c0,1.4-0.7,2.1-2,2.1c-2,0-5-0.1-9-0.3c-4-0.2-7-0.3-9.1-0.3c-1.9,0-4.8,0.1-8.6,0.3
			c-3.8,0.2-6.7,0.3-8.6,0.3c-1.5,0-2.3-0.7-2.3-2c0-5.7,0.2-14.2,0.7-25.6c0.5-11.4,0.7-20,0.7-25.7c0-4.8-0.2-11.9-0.7-21.5
			c-0.4-9.5-0.7-16.6-0.7-21.3c0-1,0.6-1.5,1.7-1.5c2,0,5.1,0.1,9.2,0.3c4.1,0.2,7.2,0.3,9.3,0.3c1.9,0,4.9-0.1,8.8-0.3
			c3.9-0.2,6.8-0.3,8.7-0.3c1.2,0,1.8,0.6,1.8,1.7c0,4.7-0.2,11.8-0.7,21.3c-0.4,9.5-0.7,16.6-0.7,21.3c0,5.7,0.2,14.3,0.7,25.7
			C144.9,94.5,145.2,103,145.2,108.7z"/>
		<path d="M255.1,14.9c0,5.3-0.3,13.3-0.8,23.9c-0.5,10.6-0.8,18.6-0.8,24l-0.1,46.3c0,1.1-0.8,1.6-2.4,1.6c-1.5,0-3.8-0.1-6.9-0.3
			c-3-0.2-5.3-0.3-6.9-0.3c-1.6,0-4,0.1-7.2,0.3c-3.2,0.2-5.6,0.3-7.2,0.3c-0.8,0-1.7-0.8-2.9-2.3c-16.8-23.3-26-34.9-27.4-34.9
			c-0.7,0-1,0.7-1,2c0,3.6,0.1,9.1,0.4,16.3c0.3,7.3,0.4,12.7,0.4,16.3c0,1.7-0.7,2.6-2.2,2.6c-1.7,0-4.2-0.1-7.6-0.3
			c-3.4-0.2-5.9-0.3-7.6-0.3c-1.8,0-4.5,0.1-8.2,0.3c-3.6,0.2-6.4,0.3-8.2,0.3c-1.5,0-2.3-0.7-2.3-2c0-5.1,0.2-12.7,0.7-22.8
			c0.5-10.1,0.7-17.7,0.7-22.8c0-5.3-0.2-13.2-0.7-23.8c-0.4-10.6-0.7-18.5-0.7-23.7c0-1,1-1.5,2.9-1.5c2.1,0,6.6-0.4,13.6-1.2
			c0.9-0.1,3.4-0.5,7.4-1.2c3.1-0.6,5.5-0.8,7.4-0.8c0.6,0,1.6,1,2.9,3c0.8,1.3,4.5,6.6,11.2,15.9c3.6,5.2,9.2,12.9,16.9,22.8
			c0.5-0.3,0.7-1.8,0.7-4.5c0-3.6-0.3-9-0.9-16.2c-0.6-7.2-0.9-12.6-0.9-16.2c0-1.8,0.5-2.7,1.4-2.7c1.9,0,4.6,0.1,8.4,0.2
			c3.7,0.1,6.5,0.2,8.4,0.2c2,0,5-0.1,9-0.2c4-0.1,7-0.2,9-0.2C254.7,13,255.1,13.7,255.1,14.9z"/>
		<path d="M364.2,106.9c0,1.4-0.8,2.1-2.4,2.1c-2.3,0-5.7-0.4-10.2-1.2c-4.6-0.8-8.1-1.3-10.2-1.3c-9,4.6-17.5,7-25.5,7
			c-14.2,0-26.3-5-36.4-15.1c-10.1-10-15.2-22.1-15.2-36.2c0-14.4,5-26.6,15-36.6c10-10,22.2-15,36.6-15c6.9,0,14,1.5,21.3,4.6
			c8,3.3,13.8,7.6,17.5,12.8c0.9,1.3,1.3,2.3,1.3,3.2c0,1.4-2.6,4.9-7.7,10.7c-4.8,5.3-8.1,8.6-9.9,9.7c-0.9,0.6-1.9,0.9-2.8,0.9
			c-0.8,0-2.9-1.1-6.4-3.3c-3.5-2.2-7.4-3.3-11.6-3.3c-4.5,0-8.2,1.6-11.3,4.8c-3.1,3.2-4.6,7.1-4.6,11.6c0,4.5,1.6,8.5,4.9,11.9
			c3.3,3.4,7.1,5.2,11.6,5.2c3,0,5.7-0.6,8.1-1.7c-0.1-1.2-0.5-4.4-1.1-9.8c-0.5-4-0.7-7.3-0.7-9.7c0-0.5,0.1-1,0.3-1.4
			c0.3-0.3,0.8-0.4,1.5-0.4c0.3,0,1.6,0.1,3.8,0.4c3.2,0.4,7.8,0.6,13.7,0.6c2,0,5.1-0.1,9.2-0.3c4.1-0.2,7.1-0.3,9.2-0.3
			c1.3,0,2,0.6,2,1.7c0,2.5-0.2,6.3-0.7,11.3c-0.4,5-0.7,8.8-0.7,11.3c0,2.9,0.3,7.3,0.8,13.3C364,99.9,364.2,104.2,364.2,106.9z"/>
		<path d="M474.8,62c0,14.3-5,26.5-15.1,36.6c-10,10.1-22.2,15.1-36.5,15.1c-14.3,0-26.5-5-36.6-15.1c-10-10.1-15.1-22.3-15.1-36.6
			c0-14.3,5-26.6,15.1-36.7c10-10.1,22.2-15.2,36.6-15.2c14.3,0,26.5,5.1,36.5,15.2C469.7,35.4,474.8,47.6,474.8,62z M439.1,62
			c0-4.5-1.5-8.4-4.6-11.6c-3.1-3.2-6.9-4.8-11.3-4.8c-4.5,0-8.4,1.6-11.4,4.8c-3.1,3.2-4.6,7.1-4.6,11.6c0,4.4,1.6,8.2,4.7,11.4
			c3.1,3.2,6.9,4.8,11.3,4.8c4.5,0,8.2-1.6,11.3-4.8C437.6,70.2,439.1,66.4,439.1,62z"/>
		<path d="M520.1,29.2c0,7.1-0.4,12.5-1.2,16.2c-0.8,3.8-2.2,8.5-4.2,14.1l-5,13.9c-0.5,1.5-1.5,2.3-3.1,2.3l-4.2,0.1l-5.3-0.1
			c-1.4,0-2.4-0.6-3-1.9c-5.8-14.1-8.7-22.2-8.7-24.3l0.1-34c0-1.6,0.6-2.4,1.7-2.4c1.7,0,4.3,0.1,7.8,0.3c3.5,0.2,6,0.3,7.8,0.3
			c1.7,0,4.3-0.1,7.8-0.3c3.5-0.2,6-0.3,7.8-0.3c1.2,0,1.7,0.8,1.7,2.4c0,1.6,0,3.9,0.1,6.9C520,25.4,520.1,27.7,520.1,29.2z
			 M519.8,95.3c0,5.1-1.6,9.2-4.8,12.4c-3.2,3.2-7.3,4.8-12.4,4.8c-5.1,0-9.2-1.6-12.4-4.8c-3.2-3.2-4.8-7.3-4.8-12.4
			c0-5.1,1.6-9.2,4.7-12.4c3.2-3.2,7.3-4.7,12.4-4.7c5.1,0,9.2,1.6,12.4,4.8C518.2,86.1,519.8,90.3,519.8,95.3z"/>
	</g>
	<g>
		<path class="st1" d="M92.8,73.6c0,7.9-2.7,14.8-8.1,20.8c-5.6,6.2-12.2,9.3-20,9.3c-4.2,0-10.5-0.1-18.9-0.3
			c-8.4-0.2-14.7-0.3-18.9-0.3c-2.4,0-6,0.1-10.9,0.3c-4.8,0.2-8.4,0.3-10.8,0.3c-1.5,0-2.3-0.7-2.3-2C3,96.6,3.3,89,3.8,78.8
			C4.4,68.7,4.7,61.1,4.7,56c0-5.3-0.3-15.4-0.8-30.3c-0.1-3.9-0.4-9.6-0.8-17.2l-0.1-1C3,6.5,3.6,6,4.8,6h47.7
			c11.7,0,20.9,2.3,27.6,6.8c3.2,2.2,5.8,5.3,7.7,9.5c1.8,3.9,2.7,7.9,2.7,12c0,3.2-1.4,7.1-4.1,11.4c-2.7,4.4-4.1,6.3-4.1,5.8
			c0,0.4,0.6,1,1.7,1.9C89.9,57.7,92.8,64.4,92.8,73.6z M52.6,35.2c0-3.6-3.6-5.4-10.9-5.4c-1.6,0-2.6,0.4-2.9,1.1
			c-0.1,0.3-0.2,1.5-0.2,3.6c0,2,0.1,3.3,0.3,3.8c0.4,0.8,1.5,1.2,3.3,1.2C49.2,39.5,52.6,38.1,52.6,35.2z M55,70.9
			c0-3.8-4.2-5.7-12.7-5.7c-1.9,0-3.1,0.3-3.5,1c-0.1,0.3-0.2,1.6-0.2,4c0,2.3,0.1,3.7,0.3,4.1c0.5,0.7,1.7,1.1,3.8,1.1
			c3.8,0,6.3-0.1,7.4-0.3C53.4,74.5,55,73.1,55,70.9z"/>
		<path class="st1" d="M142.3,101.6c0,1.4-0.7,2.1-2,2.1c-2,0-5-0.1-9-0.3c-4-0.2-7-0.3-9.1-0.3c-1.9,0-4.8,0.1-8.6,0.3
			c-3.8,0.2-6.7,0.3-8.6,0.3c-1.5,0-2.3-0.7-2.3-2c0-5.7,0.2-14.2,0.7-25.6c0.5-11.4,0.7-20,0.7-25.7c0-4.8-0.2-11.9-0.7-21.5
			c-0.4-9.5-0.7-16.6-0.7-21.3c0-1,0.6-1.5,1.7-1.5c2,0,5.1,0.1,9.2,0.3c4.1,0.2,7.2,0.3,9.3,0.3c1.9,0,4.9-0.1,8.8-0.3
			c3.9-0.2,6.8-0.3,8.7-0.3c1.2,0,1.8,0.6,1.8,1.7c0,4.7-0.2,11.8-0.7,21.3c-0.4,9.5-0.7,16.6-0.7,21.3c0,5.7,0.2,14.3,0.7,25.7
			C142.1,87.4,142.3,96,142.3,101.6z"/>
		<path class="st1" d="M252.2,7.9c0,5.3-0.3,13.3-0.8,23.9c-0.5,10.6-0.8,18.6-0.8,24l-0.1,46.3c0,1.1-0.8,1.6-2.4,1.6
			c-1.5,0-3.8-0.1-6.9-0.3c-3-0.2-5.3-0.3-6.9-0.3c-1.6,0-4,0.1-7.2,0.3c-3.2,0.2-5.6,0.3-7.2,0.3c-0.8,0-1.7-0.8-2.9-2.3
			c-16.8-23.3-26-34.9-27.4-34.9c-0.7,0-1,0.7-1,2c0,3.6,0.1,9.1,0.4,16.3c0.3,7.3,0.4,12.7,0.4,16.3c0,1.7-0.7,2.6-2.2,2.6
			c-1.7,0-4.2-0.1-7.6-0.3c-3.4-0.2-5.9-0.3-7.6-0.3c-1.8,0-4.5,0.1-8.2,0.3c-3.6,0.2-6.4,0.3-8.2,0.3c-1.5,0-2.3-0.7-2.3-2
			c0-5.1,0.2-12.7,0.7-22.8c0.5-10.1,0.7-17.7,0.7-22.8c0-5.3-0.2-13.2-0.7-23.8c-0.4-10.6-0.7-18.5-0.7-23.7c0-1,1-1.5,2.9-1.5
			c2.1,0,6.6-0.4,13.6-1.2c0.9-0.1,3.4-0.5,7.4-1.2c3.1-0.6,5.5-0.8,7.4-0.8c0.6,0,1.6,1,2.9,3c0.8,1.3,4.5,6.6,11.2,15.9
			c3.6,5.2,9.2,12.9,16.9,22.8c0.5-0.3,0.7-1.8,0.7-4.5c0-3.6-0.3-9-0.9-16.2c-0.6-7.2-0.9-12.6-0.9-16.2c0-1.8,0.5-2.7,1.4-2.7
			c1.9,0,4.6,0.1,8.4,0.2c3.7,0.1,6.5,0.2,8.4,0.2c2,0,5-0.1,9-0.2c4-0.1,7-0.2,9-0.2C251.8,6,252.2,6.6,252.2,7.9z"/>
		<path class="st1" d="M361.3,99.8c0,1.4-0.8,2.1-2.4,2.1c-2.3,0-5.7-0.4-10.2-1.2c-4.6-0.8-8.1-1.3-10.2-1.3c-9,4.6-17.5,7-25.5,7
			c-14.2,0-26.3-5-36.4-15.1c-10.1-10-15.2-22.1-15.2-36.2c0-14.4,5-26.6,15-36.6c10-10,22.2-15,36.6-15c6.9,0,14,1.5,21.3,4.6
			c8,3.3,13.8,7.6,17.5,12.8c0.9,1.3,1.3,2.3,1.3,3.2c0,1.4-2.6,4.9-7.7,10.7c-4.8,5.3-8.1,8.6-9.9,9.7c-0.9,0.6-1.9,0.9-2.8,0.9
			c-0.8,0-2.9-1.1-6.4-3.3c-3.5-2.2-7.4-3.3-11.6-3.3c-4.5,0-8.2,1.6-11.3,4.8c-3.1,3.2-4.6,7.1-4.6,11.6c0,4.5,1.6,8.5,4.9,11.9
			c3.3,3.4,7.1,5.2,11.6,5.2c3,0,5.7-0.6,8.1-1.7c-0.1-1.2-0.5-4.4-1.1-9.8c-0.5-4-0.7-7.3-0.7-9.7c0-0.5,0.1-1,0.3-1.4
			c0.3-0.3,0.8-0.4,1.5-0.4c0.3,0,1.6,0.1,3.8,0.4c3.2,0.4,7.8,0.6,13.7,0.6c2,0,5.1-0.1,9.2-0.3c4.1-0.2,7.1-0.3,9.2-0.3
			c1.3,0,2,0.6,2,1.7c0,2.5-0.2,6.3-0.7,11.3c-0.4,5-0.7,8.8-0.7,11.3c0,2.9,0.3,7.3,0.8,13.3C361.1,92.9,361.3,97.2,361.3,99.8z"/>
		<path class="st1" d="M471.9,54.9c0,14.3-5,26.5-15.1,36.6c-10,10.1-22.2,15.1-36.5,15.1c-14.3,0-26.5-5-36.6-15.1
			c-10-10.1-15.1-22.3-15.1-36.6c0-14.3,5-26.6,15.1-36.7C393.8,8.1,406,3,420.3,3c14.3,0,26.5,5.1,36.5,15.2
			C466.9,28.3,471.9,40.6,471.9,54.9z M436.2,54.9c0-4.5-1.5-8.4-4.6-11.6c-3.1-3.2-6.9-4.8-11.3-4.8c-4.5,0-8.4,1.6-11.4,4.8
			c-3.1,3.2-4.6,7.1-4.6,11.6c0,4.4,1.6,8.2,4.7,11.4c3.1,3.2,6.9,4.8,11.3,4.8c4.5,0,8.2-1.6,11.3-4.8
			C434.7,63.2,436.2,59.4,436.2,54.9z"/>
		<path class="st1" d="M517.2,22.1c0,7.1-0.4,12.5-1.2,16.2c-0.8,3.8-2.2,8.5-4.2,14.1l-5,13.9c-0.5,1.5-1.5,2.3-3.1,2.3l-4.2,0.1
			l-5.3-0.1c-1.4,0-2.4-0.6-3-1.9c-5.8-14.1-8.7-22.2-8.7-24.3l0.1-34c0-1.6,0.6-2.4,1.7-2.4c1.7,0,4.3,0.1,7.8,0.3
			c3.5,0.2,6,0.3,7.8,0.3c1.7,0,4.3-0.1,7.8-0.3c3.5-0.2,6-0.3,7.8-0.3c1.2,0,1.7,0.8,1.7,2.4c0,1.6,0,3.9,0.1,6.9
			C517.2,18.3,517.2,20.6,517.2,22.1z M516.9,88.3c0,5.1-1.6,9.2-4.8,12.4c-3.2,3.2-7.3,4.8-12.4,4.8c-5.1,0-9.2-1.6-12.4-4.8
			c-3.2-3.2-4.8-7.3-4.8-12.4c0-5.1,1.6-9.2,4.7-12.4c3.2-3.2,7.3-4.7,12.4-4.7c5.1,0,9.2,1.6,12.4,4.8
			C515.3,79.1,516.9,83.2,516.9,88.3z"/>
	</g>
</g>
</svg>
