<?xml version="1.0" standalone="no"?>
<!DOCTYPE svg PUBLIC "-//W3C//DTD SVG 1.1//EN" "http://www.w3.org/Graphics/SVG/1.1/DTD/svg11.dtd" >
<svg xmlns="http://www.w3.org/2000/svg" xmlns:xlink="http://www.w3.org/1999/xlink" version="1.1">
<metadata></metadata>
<defs>
<font id="code_proregular" horiz-adv-x="1212" >
<font-face units-per-em="2048" ascent="1536" descent="-512" />
<missing-glyph horiz-adv-x="509" />
<glyph unicode="&#xfb00;" horiz-adv-x="1908" d="M66 0v1434h782v-201h-576v-428h574v-193h-574v-612h-206zM946 0v1434h854v-201h-647v-428h573v-193h-573v-612h-207z" />
<glyph unicode="&#xfb01;" horiz-adv-x="1615" d="M74 0v1432h854v-207h-647v-404h573v-209h-573v-612h-207zM758 0v195h266v1237h473v-205h-266v-1032h266v-195h-739z" />
<glyph unicode="&#xfb02;" horiz-adv-x="2004" d="M84 0v1432h854v-207h-647v-404h573v-209h-573v-612h-207zM1018 0v1432h207v-1225h673v-207h-880z" />
<glyph unicode="&#xfb03;" horiz-adv-x="2480" d="M66 0v1434h782v-201h-576v-428h574v-193h-574v-612h-206zM946 0v1434h854v-201h-647v-428h573v-193h-573v-612h-207zM1628 0v195h266v1239h473v-205h-266v-1034h266v-195h-739z" />
<glyph unicode="&#xfb04;" horiz-adv-x="2871" d="M66 0v1434h782v-201h-576v-428h574v-193h-574v-612h-206zM946 0v1434h854v-201h-647v-428h573v-193h-573v-612h-207zM1890 0v1432h207v-1225h674v-207h-881z" />
<glyph unicode="fj" horiz-adv-x="1699" d="M82 0v1434h776v-195h-569v-434h557v-193h-557v-612h-207zM797 0v195q158 0 265 26t170 81t89.5 131.5t26.5 187.5v622h-387v189h593v-811q0 -217 -74 -351.5t-241 -202t-442 -67.5z" />
<glyph horiz-adv-x="0" />
<glyph horiz-adv-x="682" />
<glyph unicode=" "  horiz-adv-x="509" />
<glyph unicode="&#x09;" horiz-adv-x="509" />
<glyph unicode="&#xa0;" horiz-adv-x="509" />
<glyph unicode="!" horiz-adv-x="563" d="M123 106q0 57 35.5 93.5t87.5 36.5q59 0 95 -36t36 -94q0 -47 -37 -82.5t-94 -35.5q-50 0 -86.5 36t-36.5 82zM143 315v1119h215v-1119h-215z" />
<glyph unicode="&#x22;" horiz-adv-x="671" d="M66 924v508h198v-508h-198zM352 924v508h199v-508h-199z" />
<glyph unicode="#" horiz-adv-x="1200" d="M70 401l4 193h200q6 40 15.5 115t15.5 112h-170l4 195h197l63 399h195l-62 -399h199l64 399h188l-59 -399h155l-4 -195h-182q-5 -34 -17.5 -108t-19.5 -119h156l-4 -193h-181l-61 -399h-188l59 399h-199l-65 -399h-191l62 399h-174zM469 594h201q6 40 15 114.5t15 112.5 h-198q-7 -42 -17.5 -118.5t-15.5 -108.5z" />
<glyph unicode="$" horiz-adv-x="1208" d="M45 379v14l207 2l2 -2q15 -63 75.5 -119t131.5 -75v432q-80 -8 -152.5 16.5t-124.5 71t-86 112t-43 137t10 148.5t68 144q57 74 142.5 120.5t185.5 61.5v110h205v-110q72 -12 134.5 -38t116.5 -67.5t90 -105t46 -141.5l-203 -21q-15 64 -67 109.5t-117 54.5v-418 q86 -3 160 -27t134.5 -69t95 -119t34.5 -170q0 -84 -23.5 -151.5t-62 -112.5t-95.5 -79t-114.5 -53t-128.5 -32v-125h-205v125q-158 27 -278 125.5t-138 251.5zM261 1037.5q-1 -54.5 22.5 -98t70.5 -72t107 -27.5v395q-116 -28 -166 -94h-2q-31 -49 -32 -103.5zM666 199 q127 -4 188.5 103t9 211t-197.5 95v-409z" />
<glyph unicode="%" horiz-adv-x="1622" d="M59 1079q0 145 103.5 246.5t247.5 101.5q145 0 248.5 -101t103.5 -247q0 -144 -103.5 -245t-248.5 -101q-144 0 -247.5 101t-103.5 245zM199 -18l931 1435h236l-934 -1435h-233zM250 1079q0 -71 46.5 -120.5t113.5 -49.5q68 0 114.5 49.5t46.5 120.5t-46.5 121.5 t-114.5 50.5q-67 0 -113.5 -50.5t-46.5 -121.5zM807 336q0 146 102.5 247t247.5 101t248.5 -101t103.5 -247q0 -144 -103.5 -245t-248.5 -101t-247.5 101t-102.5 245zM995 336q0 -71 47.5 -120.5t114.5 -49.5q69 0 115.5 49.5t46.5 120.5t-47 121.5t-115 50.5 q-67 0 -114.5 -50.5t-47.5 -121.5z" />
<glyph unicode="&#x26;" horiz-adv-x="1359" d="M53 412q0 73 20.5 133t62 107.5t83 80.5t103.5 72q-62 74 -97 145t-35 152q0 157 112.5 251.5t268.5 94.5q140 0 244.5 -93t104.5 -235q0 -67 -20.5 -122.5t-60.5 -98.5t-81.5 -73.5t-98.5 -61.5l234 -244l94 162l178 -92l-135 -230l252 -278v-80h-213l-164 182 q-84 -99 -179.5 -149.5t-223.5 -50.5q-192 0 -320.5 118t-128.5 310zM260 416q0 -102 75.5 -167t182.5 -65q137 0 258 150l-317 332q-199 -121 -199 -250zM403 1106q0 -90 113 -215q40 22 69.5 42t62 49t50 63t17.5 71q0 60 -43.5 99.5t-106.5 39.5q-67 0 -114.5 -43.5 t-47.5 -105.5z" />
<glyph unicode="'" horiz-adv-x="407" d="M76 926v508h198v-508h-198z" />
<glyph unicode="(" horiz-adv-x="772" d="M84 707q0 197 67 384t209 356t345 286v-224l-15 -22q-191 -121 -294 -329t-103 -443q0 -234 106 -446t306 -343v-235q-201 110 -343 275.5t-210 353.5t-68 387z" />
<glyph unicode=")" horiz-adv-x="800" d="M16 -84q190 115 306 342.5t116 452.5q0 146 -50 296.5t-147.5 281.5t-224.5 208v234q187 -98 331 -262t221 -361t77 -397q0 -199 -77 -395.5t-221 -361t-331 -263.5v225z" />
<glyph unicode="*" horiz-adv-x="872" d="M41 1114l49 156l240 -80q0 40 -1 127t-1 127h170l-4 -254q25 8 111 37.5t128 42.5l51 -156l-243 -74l155 -204l-135 -99l-149 215l-148 -215l-135 99l152 204q-182 58 -240 74z" />
<glyph unicode="+" horiz-adv-x="1159" d="M86 598v184h363v408h198v-408h371v-184h-371v-410h-198v410h-363z" />
<glyph unicode="," horiz-adv-x="479" d="M-10 -205l149 377h230l-191 -377h-188z" />
<glyph unicode="-" horiz-adv-x="937" d="M164 551v170h553v-170h-553z" />
<glyph unicode="." horiz-adv-x="401" d="M35 119q0 56 35.5 91.5t87.5 35.5q57 0 93 -35t36 -92q0 -48 -37 -86.5t-92 -38.5q-50 0 -86.5 39t-36.5 86z" />
<glyph unicode="/" horiz-adv-x="899" d="M39 -133l590 1726h198l-587 -1726h-201z" />
<glyph unicode="0" d="M35 684q0 105 20.5 204t63.5 187.5t104 155t147.5 105t188.5 38.5q101 0 187.5 -38.5t147.5 -105t104.5 -155t64 -187.5t20.5 -204t-20.5 -204t-64 -187t-104.5 -154t-147.5 -104.5t-187.5 -38.5q-102 0 -188.5 38.5t-147.5 104.5t-104 154t-63.5 187t-20.5 204zM231 684 q0 -94 20.5 -180.5t60 -156t103.5 -111t144 -41.5q79 0 143 41.5t103.5 111t60.5 156t21 180.5t-21 181t-60.5 157t-103.5 112t-143 42q-80 0 -144 -42t-103.5 -112t-60 -157t-20.5 -181z" />
<glyph unicode="1" horiz-adv-x="632" d="M-68 895l387 545h166v-1440h-204v1044l-193 -262z" />
<glyph unicode="2" horiz-adv-x="1169" d="M39 0v160l674 573h-2q55 39 89 93t43.5 109t-5 109.5t-50 96.5t-98 68t-143.5 26q-127 0 -200 -74t-93 -200l-207 16q14 98 52 181t99 147t150.5 100.5t198.5 36.5q131 0 237 -45.5t169.5 -119t93 -168t18.5 -189.5t-66 -187t-149 -158q-98 -81 -227 -184t-236 -192h657 v-199h-1005z" />
<glyph unicode="3" horiz-adv-x="1144" d="M20 356l193 35q15 -93 90 -155t203 -62q160 0 245.5 73.5t77.5 170.5q-3 34 -18.5 67.5t-44 66t-80 52t-117.5 19.5h-215v194h215q98 0 147.5 65.5t49.5 147.5q0 68 -40.5 117t-100.5 70.5t-131 21.5q-86 0 -156.5 -46t-89.5 -126l-187 45q25 104 92.5 179t155 110 t185.5 35q89 0 172 -25t152 -73t110.5 -127.5t42.5 -180.5q0 -211 -131 -299q187 -110 184 -334q-1 -79 -34.5 -152.5t-95.5 -132.5t-163 -94.5t-225 -35.5q-111 0 -200 30.5t-146.5 83.5t-92 118t-47.5 142z" />
<glyph unicode="4" horiz-adv-x="1165" d="M14 324v145l760 965h160v-910h117v-200h-117v-324h-205v324h-715zM285 520h448v555z" />
<glyph unicode="5" horiz-adv-x="1175" d="M39 326l190 77q44 -91 120 -142.5t179 -51.5q151 0 234.5 86t81.5 205q0 78 -43.5 148t-122.5 104q-249 103 -504 -47l-117 53v682h914v-201h-705v-287q257 83 486 -8q145 -60 222 -179.5t79 -264.5q1 -95 -33 -183.5t-97.5 -160t-166 -114t-228.5 -42.5q-360 0 -489 326 z" />
<glyph unicode="6" horiz-adv-x="1191" d="M27 492q0 152 88 286l467 656h254l-351 -494q78 28 176.5 22t172.5 -47q115 -65 176 -179.5t61 -243.5q0 -94 -33.5 -181t-96.5 -157t-164.5 -112t-227.5 -42q-125 0 -226.5 42t-165 112t-97 157t-33.5 181zM233 492q0 -55 20 -105t58.5 -90t100 -64t137.5 -24 q151 0 233 83.5t82 199.5q0 74 -33 137.5t-106.5 106t-175.5 42.5q-149 0 -232.5 -85t-83.5 -201z" />
<glyph unicode="7" horiz-adv-x="1120" d="M27 1231v203h1009v-142l-706 -1292h-238l672 1231h-737z" />
<glyph unicode="8" horiz-adv-x="1173" d="M29 416q0 99 65 191t182 143q-55 22 -94.5 59.5t-58.5 80.5t-27 80.5t-8 73.5q1 79 27.5 146t71 113.5t103.5 79t123.5 48t131.5 15.5q110 0 199.5 -34.5t145 -92t85 -128.5t29.5 -149q0 -84 -49 -169t-132 -123q118 -45 180 -137.5t62 -196.5q0 -82 -33.5 -158 t-96 -137.5t-164 -98t-226.5 -36.5q-124 0 -224 35t-163 95t-96 137t-33 163zM233 414q0 -92 83.5 -164t228.5 -72q148 0 230.5 72t82.5 164q0 93 -82 161t-231 68q-146 0 -229 -68.5t-83 -160.5zM293 1047q0 -82 66.5 -147.5t185.5 -65.5q120 0 187 65.5t67 149.5 q0 97 -78 156t-176 59t-175 -60t-77 -157z" />
<glyph unicode="9" horiz-adv-x="1204" d="M37 950q0 76 20.5 148t64 135.5t104.5 111t148 75.5t189 28q127 0 229.5 -42.5t167 -113t98.5 -158.5t34 -184q0 -150 -88 -288l-472 -662h-256l353 500q-81 -30 -179.5 -24.5t-170.5 46.5q-117 67 -179.5 182.5t-62.5 245.5zM246 950q0 -74 33.5 -138t107.5 -107 t176 -43t176 43t108 107t34 138q0 118 -83.5 202.5t-234.5 84.5t-234 -84.5t-83 -202.5z" />
<glyph unicode=":" horiz-adv-x="387" d="M35 111q0 53 33 85.5t82 32.5q54 0 87 -32t33 -86q0 -45 -34 -81t-86 -36q-46 0 -80.5 36.5t-34.5 80.5zM35 725q0 53 33.5 86t81.5 33q54 0 87 -32.5t33 -86.5q0 -46 -34 -81.5t-86 -35.5q-46 0 -80.5 36t-34.5 81z" />
<glyph unicode=";" horiz-adv-x="372" d="M-51 -260h184l178 377h-225zM55 729q0 53 33.5 86t81.5 33q54 0 87.5 -32.5t33.5 -86.5q0 -46 -34.5 -81.5t-86.5 -35.5q-46 0 -80.5 36t-34.5 81z" />
<glyph unicode="&#x3c;" horiz-adv-x="1003" d="M53 645v141l836 447v-227l-580 -287l580 -291v-217z" />
<glyph unicode="=" horiz-adv-x="1077" d="M59 319v195h899v-195h-899zM59 664v194h899v-194h-899z" />
<glyph unicode="&#x3e;" horiz-adv-x="1013" d="M63 190v224l580 286l-580 283v229l838 -446v-141z" />
<glyph unicode="?" horiz-adv-x="1163" d="M37 1108q71 152 193 244t288 92q121 0 221.5 -39t165 -105t100 -150.5t33.5 -176.5q-2 -68 -20 -123.5t-41 -91t-65 -70t-70 -51t-77 -43.5q-3 -2 -5 -3l-5 -2.5l-5 -2.5q-79 -42 -100 -63q-27 -26 -27 -58l2 -166h-209v168q0 52 14 94t32.5 69.5t54 54.5t62 42t73.5 39 q4 2 6.5 3.5t5.5 2.5h-2q31 17 46 26t40 28t37 37.5t22.5 48t11.5 65.5q3 103 -78.5 178.5t-222.5 75.5q-103 0 -182.5 -57.5t-130.5 -161.5zM389 102q0 59 37 97.5t92 38.5q60 0 97.5 -38t37.5 -98q0 -50 -38.5 -90.5t-96.5 -40.5q-52 0 -90.5 41t-38.5 90z" />
<glyph unicode="@" horiz-adv-x="1667" d="M81 565q-7 105 17 219q18 100 59.5 194t108 176.5t150.5 144.5t193.5 97.5t230.5 35.5q143 0 270 -47t217 -127t142.5 -192.5t52.5 -238.5q0 -120 -28 -220t-74.5 -168t-109 -115.5t-130.5 -69t-140 -21.5q-124 0 -129 146q-42 -63 -103.5 -94t-125.5 -31 q-103 0 -176 58.5t-99 155.5t-1 210q21 95 58.5 175.5t93.5 145t135.5 101.5t174.5 37q60 0 119.5 -40.5t59.5 -103.5l47 78l147 -16l-149 -551v4l-2 -6q-22 -60 -17 -71q4 -4 10 -5q49 -1 95 30.5t79.5 84.5t53.5 123t22.5 141t-19.5 144t-67 128q-65 83 -172 127.5 t-231 44.5q-117 0 -216.5 -42t-169 -113.5t-115 -160.5t-64.5 -190q-26 -129 -4 -238t81 -187.5t166.5 -123t251.5 -44.5q94 0 215 47l84 -164q-165 -64 -299 -64q-132 0 -242.5 28.5t-190.5 81t-138.5 126.5t-86.5 164.5t-35 195.5zM587 550.5q3 -32.5 14 -55.5t35.5 -39 t61.5 -16q71 0 135.5 60.5t100 143.5t35.5 157q0 70 -28 109.5t-81 39.5q-71 2 -128 -41t-88.5 -105t-47.5 -138q-6 -29 -9 -56t0 -59.5z" />
<glyph unicode="A" horiz-adv-x="1372" d="M4 0l576 1452h151l576 -1452h-222l-137 362h-581l-140 -362h-223zM442 557h430l-215 565z" />
<glyph unicode="B" horiz-adv-x="1249" d="M74 0v1432h596q129 0 217.5 -65t130.5 -171q28 -74 30 -146q0 -3 1 -6q0 -68 -33 -136q-34 -70 -103 -120q115 -49 169.5 -146.5t54.5 -209.5q0 -82 -27 -158.5t-77.5 -138t-131.5 -98.5t-180 -37h-647zM279 201h442q98 0 153.5 68.5t55.5 160.5t-55.5 159.5t-153.5 67.5 h-442v-456zM279 862h387q46 0 82.5 20.5t55.5 53.5q20 32 29 72q5 20 5 41q0 19 -4 39q-8 40 -26.5 73t-55 53.5t-82.5 20.5h-391v-373z" />
<glyph unicode="C" horiz-adv-x="1552" d="M55 713q0 148 54.5 280t150.5 234q96 99 224.5 156t271.5 57q246 0 425.5 -143t241.5 -386h-204q-56 158 -178.5 241t-284.5 83q-101 0 -192.5 -41t-160.5 -113q-147 -154 -147 -368q0 -211 147 -365q69 -72 160.5 -112.5t192.5 -40.5q165 0 292.5 90.5t182.5 251.5h203 q-62 -247 -246 -397t-432 -150q-144 0 -272 56.5t-224 156.5q-95 102 -150 233.5t-55 276.5z" />
<glyph unicode="D" horiz-adv-x="1421" d="M82 0v1432h514q137 0 253 -40t198 -109t140 -161t85.5 -195t27.5 -212t-27.5 -212t-85.5 -194.5t-140 -160t-198 -108.5t-253 -40h-514zM289 207h307q120 0 217.5 43.5t158 115.5t92.5 162t32 187q0 77 -20 150.5t-61 139t-99 114.5t-140.5 77.5t-179.5 28.5h-307v-1018z " />
<glyph unicode="E" horiz-adv-x="1073" d="M82 0v1432h872v-207h-663v-404h649v-209h-649v-405h665v-207h-874z" />
<glyph unicode="F" horiz-adv-x="1036" d="M82 0v1434h854v-201h-647v-428h573v-193h-573v-612h-207z" />
<glyph unicode="G" horiz-adv-x="1574" d="M49 715q0 159 56 297.5t152 235.5t229 152.5t282 55.5q88 0 173 -17.5t170.5 -58t155 -100.5t122 -151.5t75.5 -204.5h-225q-21 85 -71.5 149t-117 100.5t-137.5 54t-145 17.5q-142 0 -258 -68t-183 -189.5t-67 -272.5q0 -231 146 -384t362 -153q147 0 272.5 73.5 t186.5 223.5h-541v211h789q-16 -192 -41 -254v2q-48 -135 -156.5 -241.5t-242 -162t-267.5 -55.5q-203 0 -367 94.5t-258 264t-94 381.5z" />
<glyph unicode="H" horiz-adv-x="1249" d="M82 0v1432h207v-605h606v605h209v-1432h-209v623h-606v-623h-207z" />
<glyph unicode="I" horiz-adv-x="899" d="M49 0v199h266v1036h-266v197h739v-197h-266v-1036h266v-199h-739z" />
<glyph unicode="J" horiz-adv-x="942" d="M41 0v195q158 0 265 26t170 81t89.5 131.5t26.5 187.5v622h-387v189h594v-811q0 -217 -74.5 -351.5t-241.5 -202t-442 -67.5z" />
<glyph unicode="K" horiz-adv-x="1208" d="M82 0v1434h205v-1434h-205zM326 664v104l499 666h256l-546 -713l604 -721h-267z" />
<glyph unicode="L" horiz-adv-x="1058" d="M82 0v1434h207v-1227h674v-207h-881z" />
<glyph unicode="M" horiz-adv-x="1515" d="M86 0v1434h168l473 -697l473 697h164v-1434h-205v1010l-375 -557h-116l-375 557v-1010h-207z" />
<glyph unicode="N" horiz-adv-x="1294" d="M82 0v1434h160l698 -1010v1010h205v-1434h-164l-692 1001v-1001h-207z" />
<glyph unicode="O" horiz-adv-x="1658" d="M55 717q0 150 57 285t158 239q102 103 237.5 161t285.5 58q151 0 285.5 -57.5t238.5 -161.5q101 -104 158 -239t57 -285t-57 -285t-158 -239q-103 -105 -238 -162.5t-286 -57.5q-150 0 -286 58t-237 162t-158 239t-57 285zM266 717q0 -108 41.5 -205.5t114.5 -169.5 q73 -75 169 -116.5t202 -41.5t203.5 42t170.5 116q154 154 154 375t-154 375q-73 74 -170.5 115.5t-203.5 41.5t-202 -41.5t-169 -115.5q-73 -72 -114.5 -169.5t-41.5 -205.5z" />
<glyph unicode="P" horiz-adv-x="1189" d="M80 0v1434h524q112 0 202.5 -41t146.5 -109.5t86 -153t30 -176.5t-30 -176t-86 -152t-146.5 -108.5t-202.5 -40.5h-315v-477h-209zM289 682h315q123 0 191.5 80t68.5 190q0 111 -68.5 192t-191.5 81h-315v-543z" />
<glyph unicode="Q" horiz-adv-x="1656" d="M51 717q0 148 56.5 281.5t156.5 236.5q100 102 234 159.5t282 57.5q149 0 282.5 -57.5t235.5 -159.5q100 -103 156.5 -236.5t56.5 -281.5q0 -247 -155 -449l231 -223v-45h-225l-129 121q-209 -137 -447 -137q-36 0 -72 4q-280 23 -450 211q-213 233 -213 518zM258 717 q0 -106 41.5 -203t112.5 -170q134 -134 314 -156q34 -4 66 -4q145 0 279 80l-360 322v32h250l243 -221q47 64 73 148.5t26 171.5q0 106 -41.5 201.5t-112.5 168.5q-72 73 -168 114.5t-201 41.5q-104 0 -199.5 -41.5t-168.5 -114.5q-71 -73 -112.5 -168.5t-41.5 -201.5z M711 586v32v-32z" />
<glyph unicode="R" horiz-adv-x="1216" d="M82 0v1434h522q90 0 167.5 -25.5t131.5 -70t92.5 -103t57 -124t18.5 -134.5q0 -161 -97 -284t-274 -154l453 -539h-268l-523 629v98h242q123 0 191.5 74t68.5 176q0 100 -68.5 174t-191.5 74h-317v-1225h-205z" />
<glyph unicode="S" horiz-adv-x="1232" d="M66 414l208 4l2 -31v8q10 -93 105 -147.5t205 -54.5q124 0 222.5 64.5t98.5 168.5q0 22 -6 49q-6 26 -21 47t-40.5 35t-50.5 24t-64 17t-67 10.5t-72 7.5q-56 6 -98 12t-95.5 19t-93.5 30.5t-81 45.5t-68.5 63.5t-47 87t-24.5 113.5v-2q-2 19 -2 38q0 130 80 234 q70 91 187.5 141t246.5 50q85 0 164.5 -22.5t147.5 -67t115 -118.5t60 -169l-205 -8q-14 61 -61 104t-106 61q-56 17 -118 17h-7q-78 -2 -149.5 -29t-111.5 -79q-35 -44 -35 -110q0 -11 1 -23q2 -31 13.5 -55.5t27.5 -42t43 -31t51 -21.5t60.5 -14.5t63 -9.5t66.5 -7 q57 -7 102 -15.5t101 -23.5t99 -37.5t84 -53t69 -75.5t41 -100q10 -52 10 -94q0 -100 -46.5 -184t-123 -138t-170.5 -84t-192 -30q-67 0 -135.5 15.5t-133.5 47.5t-117 77t-87 109t-43 138z" />
<glyph unicode="T" horiz-adv-x="1196" d="M35 1237v197h1073v-197h-432v-1237h-207v1237h-434z" />
<glyph unicode="U" horiz-adv-x="1300" d="M86 430v1002h209v-1004q0 -75 49.5 -130t120.5 -80t151 -25q79 0 150 25.5t120.5 81t49.5 130.5v1002h209v-1004q0 -105 -47.5 -191t-125 -139.5t-170 -82.5t-186.5 -29q-97 0 -189.5 29t-169.5 82.5t-124 140t-47 192.5z" />
<glyph unicode="V" horiz-adv-x="1372" d="M-4 1434h225l426 -1074l430 1074h221l-575 -1438h-152z" />
<glyph unicode="W" horiz-adv-x="1830" d="M0 1434h215l342 -1037l236 670h165l234 -668q40 121 162 485.5t182 549.5h217l-481 -1442h-146l-252 690q-33 -93 -119.5 -331t-127.5 -359h-146z" />
<glyph unicode="X" horiz-adv-x="1355" d="M-2 0l518 729l-518 705h254l389 -527l391 527h252l-518 -705l518 -729h-252l-391 563l-389 -563h-254z" />
<glyph unicode="Y" horiz-adv-x="1331" d="M-6 1434h244l391 -631l391 631h246l-533 -850v-584h-209v584z" />
<glyph unicode="Z" horiz-adv-x="1224" d="M66 0v170l794 1079h-794v185h1038v-162l-799 -1088h809v-184h-1048z" />
<glyph unicode="[" horiz-adv-x="595" d="M145 -193l2 1829h377v-176h-170q0 -238 -1 -741.5t-1 -741.5h170v-170h-377z" />
<glyph unicode="\" horiz-adv-x="903" d="M25 1573h213l579 -1702h-215z" />
<glyph unicode="]" horiz-adv-x="626" d="M37 1454v178h377l2 -1829h-377v177h170q0 239 -1 737.5t-1 736.5h-170z" />
<glyph unicode="^" horiz-adv-x="1148" d="M39 662l426 778h135l424 -778h-225l-269 505l-270 -505h-221z" />
<glyph unicode="_" horiz-adv-x="1204" d="M49 0h1047v-180h-1047v180z" />
<glyph unicode="`" horiz-adv-x="585" d="M37 1477h262l147 -220h-178z" />
<glyph unicode="a" horiz-adv-x="1372" d="M4 0l576 1452h151l576 -1452h-222l-137 362h-581l-140 -362h-223zM442 557h430l-215 565z" />
<glyph unicode="b" horiz-adv-x="1249" d="M74 0v1432h596q129 0 217.5 -65t130.5 -171q28 -74 30 -146q0 -3 1 -6q0 -68 -33 -136q-34 -70 -103 -120q115 -49 169.5 -146.5t54.5 -209.5q0 -82 -27 -158.5t-77.5 -138t-131.5 -98.5t-180 -37h-647zM279 201h442q98 0 153.5 68.5t55.5 160.5t-55.5 159.5t-153.5 67.5 h-442v-456zM279 862h387q46 0 82.5 20.5t55.5 53.5q20 32 29 72q5 20 5 41q0 19 -4 39q-8 40 -26.5 73t-55 53.5t-82.5 20.5h-391v-373z" />
<glyph unicode="c" horiz-adv-x="1552" d="M55 713q0 148 54.5 280t150.5 234q96 99 224.5 156t271.5 57q246 0 425.5 -143t241.5 -386h-204q-56 158 -178.5 241t-284.5 83q-101 0 -192.5 -41t-160.5 -113q-147 -154 -147 -368q0 -211 147 -365q69 -72 160.5 -112.5t192.5 -40.5q165 0 292.5 90.5t182.5 251.5h203 q-62 -247 -246 -397t-432 -150q-144 0 -272 56.5t-224 156.5q-95 102 -150 233.5t-55 276.5z" />
<glyph unicode="d" horiz-adv-x="1421" d="M82 0v1432h514q137 0 253 -40t198 -109t140 -161t85.5 -195t27.5 -212t-27.5 -212t-85.5 -194.5t-140 -160t-198 -108.5t-253 -40h-514zM289 207h307q120 0 217.5 43.5t158 115.5t92.5 162t32 187q0 77 -20 150.5t-61 139t-99 114.5t-140.5 77.5t-179.5 28.5h-307v-1018z " />
<glyph unicode="e" horiz-adv-x="1073" d="M82 0v1432h872v-207h-663v-404h649v-209h-649v-405h665v-207h-874z" />
<glyph unicode="f" horiz-adv-x="1036" d="M82 0v1434h854v-201h-647v-428h573v-193h-573v-612h-207z" />
<glyph unicode="g" horiz-adv-x="1574" d="M51 715q0 159 56 297t152 235t228 152t281 55q87 0 172 -17.5t170 -58t154.5 -100.5t122 -151t75.5 -203h-225q-21 85 -71 149t-116.5 99.5t-137 53t-144.5 17.5q-215 0 -360.5 -150.5t-145.5 -377.5q0 -230 145.5 -382.5t360.5 -152.5q147 0 272 72.5t187 222.5h-541 v211h787q-16 -192 -41 -252v2q-47 -136 -155.5 -242.5t-242 -161.5t-266.5 -55q-151 0 -284 55.5t-228 152.5t-150 234.5t-55 295.5z" />
<glyph unicode="h" horiz-adv-x="1249" d="M82 0v1432h207v-605h606v605h209v-1432h-209v623h-606v-623h-207z" />
<glyph unicode="i" horiz-adv-x="899" d="M49 0v188h266v1059h-266v187h739v-187h-266v-1059h266v-188h-739z" />
<glyph unicode="j" horiz-adv-x="942" d="M41 0v195q158 0 265 26t170 81t89.5 131.5t26.5 187.5v622h-387v189h594v-811q0 -217 -74.5 -351.5t-241.5 -202t-442 -67.5z" />
<glyph unicode="k" horiz-adv-x="1208" d="M82 0v1434h205v-1434h-205zM326 664v104l499 666h256l-546 -713l604 -721h-267z" />
<glyph unicode="l" horiz-adv-x="1058" d="M82 0v1434h207v-1233h674v-201h-881z" />
<glyph unicode="m" horiz-adv-x="1505" d="M82 0v1434h168l473 -697l473 697h164v-1434h-205v1010l-375 -557h-116l-375 557v-1010h-207z" />
<glyph unicode="n" horiz-adv-x="1294" d="M82 0v1434h160l698 -1010v1010h205v-1434h-164l-692 1001v-1001h-207z" />
<glyph unicode="o" horiz-adv-x="1658" d="M55 717q0 150 57 285t158 239q102 103 237.5 161t285.5 58q151 0 285.5 -57.5t238.5 -161.5q101 -104 158 -239t57 -285t-57 -285t-158 -239q-103 -105 -238 -162.5t-286 -57.5q-150 0 -286 58t-237 162t-158 239t-57 285zM266 717q0 -108 41.5 -205.5t114.5 -169.5 q73 -75 169 -116.5t202 -41.5t202.5 41.5t171.5 116.5q154 154 154 375t-154 375q-75 75 -171.5 116t-202.5 41t-202 -41.5t-169 -115.5q-73 -72 -114.5 -169.5t-41.5 -205.5z" />
<glyph unicode="p" horiz-adv-x="1183" d="M80 0v1434h524q112 0 202.5 -41t146.5 -109.5t86 -153t30 -176.5t-30 -176t-86 -152t-146.5 -108.5t-202.5 -40.5h-315v-477h-209zM289 682h315q123 0 191.5 80t68.5 190q0 111 -68.5 192t-191.5 81h-315v-543z" />
<glyph unicode="q" horiz-adv-x="1656" d="M51 717q0 148 56.5 281.5t156.5 236.5q100 102 234 159.5t282 57.5q149 0 282.5 -57.5t235.5 -159.5q100 -103 156.5 -236.5t56.5 -281.5q0 -247 -155 -449l231 -223v-45h-225l-129 121q-209 -137 -447 -137q-36 0 -72 4q-280 23 -450 211q-213 233 -213 518zM258 717 q0 -106 41.5 -203t112.5 -170q134 -134 314 -156q34 -4 66 -4q145 0 279 80l-360 322v32h250l243 -221q47 64 73 148.5t26 171.5q0 106 -41.5 201.5t-112.5 168.5q-72 73 -168 114.5t-201 41.5q-104 0 -199.5 -41.5t-168.5 -114.5q-71 -73 -112.5 -168.5t-41.5 -201.5z M711 586v32v-32z" />
<glyph unicode="r" horiz-adv-x="1216" d="M82 0v1434h522q90 0 167.5 -25.5t131.5 -70t92.5 -103t57 -124t18.5 -134.5q0 -161 -97 -284t-274 -154l453 -539h-268l-523 629v98h242q123 0 191.5 74t68.5 176q0 100 -68.5 174t-191.5 74h-317v-1225h-205z" />
<glyph unicode="s" horiz-adv-x="1216" d="M49 414l209 4l2 -33v10q7 -64 56.5 -112.5t116.5 -71.5t136 -23q79 0 151.5 27.5t121.5 83t49 127.5q0 22 -6 49t-21 48t-41 35.5t-51 24.5t-64 17t-67 10.5t-72 7.5q-56 6 -98 12t-95.5 19.5t-93.5 30.5t-81 45.5t-68.5 64.5t-47 88t-24.5 115v-2q-2 19 -2 38 q0 132 80 239q70 92 187.5 142t246.5 50q85 0 164.5 -23t148 -68t115.5 -120t60 -170l-205 -8q-14 61 -61 105t-107 62q-57 18 -118 17h-7q-78 -2 -149 -29t-111 -81q-36 -46 -36 -115q0 -10 1 -20q2 -31 13.5 -56.5t27.5 -43t43.5 -31t51 -21.5t61 -14.5t63 -9.5t66.5 -7 q57 -7 102 -15.5t101 -23.5t99 -37.5t84 -54t69 -77t41 -101.5q10 -52 10 -94q0 -102 -47 -187t-123 -140t-170.5 -85t-192.5 -30q-67 0 -135.5 15.5t-133.5 48t-117 78t-87 110t-43 139.5z" />
<glyph unicode="t" horiz-adv-x="1196" d="M35 1237v197h1073v-197h-432v-1237h-207v1237h-434z" />
<glyph unicode="u" horiz-adv-x="1282" d="M80 430v1002h209v-1004q0 -75 49.5 -130t120.5 -80t151 -25q79 0 150 25.5t120.5 81t49.5 130.5v1002h209v-1004q0 -105 -47.5 -191t-125 -139.5t-170 -82.5t-186.5 -29q-97 0 -189.5 29t-169.5 82.5t-124 140t-47 192.5z" />
<glyph unicode="v" horiz-adv-x="1372" d="M-4 1434h225l426 -1074l430 1074h221l-575 -1438h-152z" />
<glyph unicode="w" horiz-adv-x="1830" d="M0 1434h215l342 -1037l236 670h165l234 -668q40 121 162 485.5t182 549.5h217l-481 -1442h-146l-252 690q-33 -93 -119.5 -331t-127.5 -359h-146z" />
<glyph unicode="x" horiz-adv-x="1355" d="M-2 0l518 729l-518 705h254l389 -527l391 527h252l-518 -705l518 -729h-252l-391 563l-389 -563h-254z" />
<glyph unicode="y" horiz-adv-x="1331" d="M-6 1434h244l391 -631l391 631h246l-533 -850v-584h-209v584z" />
<glyph unicode="z" horiz-adv-x="1224" d="M66 0v170l794 1079h-794v185h1038v-162l-799 -1088h809v-184h-1048z" />
<glyph unicode="{" horiz-adv-x="655" d="M78 614v187q131 0 131 237v359q0 115 62 182.5t175 67.5h103v-181h-51q-52 2 -72 -10.5t-20 -66.5v-388q0 -211 -97 -294q97 -81 97 -293v-377q0 -55 20.5 -68.5t71.5 -11.5h51v-180h-103q-113 0 -175 67.5t-62 180.5v352q0 237 -131 237z" />
<glyph unicode="|" horiz-adv-x="581" d="M154 -313v1912h198v-1912h-198z" />
<glyph unicode="}" horiz-adv-x="651" d="M45 -25h51q51 -2 71.5 11.5t20.5 68.5v359q0 212 97 293q-97 83 -97 294v383q0 54 -20.5 67t-71.5 11h-51v180h105q112 0 173.5 -67t61.5 -182v-355q0 -237 133 -237v-187q-37 0 -64 -20t-41.5 -54.5t-21 -74.5t-6.5 -88v-334q0 -113 -61.5 -180.5t-173.5 -67.5h-105v180 z" />
<glyph unicode="~" horiz-adv-x="1118" d="M45 647q148 227 336 209q105 -9 235 -111q60 -49 108.5 -55.5t93 22t104.5 99.5l114 -109q-129 -219 -325 -200q-116 12 -224 96q-66 54 -122 62.5t-104.5 -23t-102.5 -105.5z" />
<glyph unicode="&#xa1;" horiz-adv-x="548" d="M98 926q0 47 37 82.5t94 35.5q50 0 86.5 -36t36.5 -82q0 -57 -35.5 -93t-87.5 -36q-59 0 -95 35.5t-36 93.5zM117 -401h215v1118h-215v-1118z" />
<glyph unicode="&#xa2;" horiz-adv-x="1536" d="M47 713q0 148 54.5 280t150.5 234q164 172 403 207v188h195v-190q209 -28 359.5 -166t205.5 -355h-205q-46 131 -140.5 211.5t-219.5 102.5v-1022q130 25 229 112.5t144 221.5h202q-56 -221 -209 -365.5t-366 -173.5v-205h-195v203q-237 30 -403 207q-95 102 -150 233.5 t-55 276.5zM248 713q0 -211 147 -365q108 -115 260 -145v1022q-149 -30 -260 -144q-147 -154 -147 -368z" />
<glyph unicode="&#xa3;" horiz-adv-x="1191" d="M53 641v168h117v231q0 157 92.5 264t225 132.5t264.5 4t224.5 -120t92.5 -241.5h-195q0 112 -97 168q-87 49 -196 26q-115 -24 -170 -115q-30 -52 -34 -118v-231h434v-168h-434v-461h688v-180h-1008v147l113 31v463h-117z" />
<glyph unicode="&#xa5;" horiz-adv-x="1318" d="M-14 1432h243l392 -648l391 648h245l-421 -670h192v-168h-297l-6 -10v-86h303v-168h-303v-330h-209v330h-303v168h303v86l-6 10h-297v168h190z" />
<glyph unicode="&#xa7;" horiz-adv-x="1060" d="M61 158l140 127q120 -133 262 -133q78 -2 140 35t61 106q0 38 -35.5 68t-78 44.5t-91.5 22.5q-361 57 -361 303q0 59 33.5 110.5t91.5 82.5q-90 74 -90 198q0 98 59.5 172.5t151 111t197.5 36.5q93 0 186 -33t164 -100l-125 -140q-64 51 -118 72t-113 23 q-76 2 -133 -36.5t-56 -105.5q0 -91 195 -121q77 -14 138.5 -36t117 -58t86 -92t30.5 -129q0 -141 -127 -190q95 -82 95 -203q0 -64 -26 -118t-68.5 -90t-98 -61t-112.5 -36t-113 -11q-121 0 -226 46t-176 135zM307 731q0 -24 14 -44t32 -32.5t48.5 -23.5t51 -16t51.5 -11 q58 -7 133 -33q70 36 70 115q-1 30 -22 55.5t-54.5 41.5t-66.5 25.5t-68 14.5q-47 8 -117 27q-75 -42 -72 -119z" />
<glyph unicode="&#xa8;" horiz-adv-x="823" d="M86 1638q0 50 32 82.5t79 32.5q52 0 84 -32t32 -83q0 -44 -33 -78t-83 -34q-45 0 -78 35t-33 77zM475 1638q0 50 32 82.5t79 32.5q52 0 84 -32t32 -83q0 -44 -33 -78t-83 -34q-45 0 -78 35t-33 77z" />
<glyph unicode="&#xa9;" horiz-adv-x="1701" d="M82 709q0 153 57.5 291.5t155.5 238.5t233 158.5t285 58.5q202 0 371.5 -99.5t267.5 -271t98 -376.5q0 -153 -58 -291.5t-156.5 -238t-235 -158t-287.5 -58.5q-150 0 -285 58.5t-233 158t-155.5 238t-57.5 291.5zM291 709q0 -154 68.5 -282t188.5 -201.5t265 -73.5 q147 0 269 73.5t191.5 201.5t69.5 282t-69.5 282t-191.5 201.5t-269 73.5q-145 0 -265 -73.5t-188.5 -201.5t-68.5 -282zM418 707q0 -175 116.5 -294.5t288.5 -119.5q143 0 249 94t145 248h-164q-29 -88 -90 -136t-140 -48q-103 0 -173 68t-70 188q0 111 69 185.5t174 74.5 q78 0 136 -44t88 -130h165q-38 153 -142.5 242t-246.5 89q-169 0 -287 -118t-118 -299z" />
<glyph unicode="&#xaa;" horiz-adv-x="1361" d="M0 0l575 1452h152l576 -1452h-222l-172 422h-514q-125 -298 -172 -422h-223zM2 -78h1301v-174h-1301v174zM473 616h356l-176 506z" />
<glyph unicode="&#xab;" horiz-adv-x="1054" d="M43 662l340 425h231l-338 -425q50 -64 168 -210.5t170 -213.5h-231zM387 662l340 425h231l-337 -425q50 -64 167 -210t170 -214h-231z" />
<glyph unicode="&#xac;" horiz-adv-x="1196" d="M57 676v186h987v-565h-192v379h-795z" />
<glyph unicode="&#xad;" horiz-adv-x="937" d="M164 551v170h553v-170h-553z" />
<glyph unicode="&#xae;" horiz-adv-x="1658" d="M66 713q0 153 57.5 291.5t154.5 238.5t231.5 158.5t283.5 58.5q201 0 369.5 -99.5t266 -271t97.5 -376.5q0 -153 -57.5 -292t-155.5 -238.5t-234 -158.5t-286 -59q-149 0 -283.5 59t-231.5 158.5t-154.5 238.5t-57.5 292zM272 709q0 -154 68.5 -282t189 -201.5 t265.5 -73.5q147 0 269 73.5t191.5 201.5t69.5 282t-69.5 282t-191.5 201.5t-269 73.5q-145 0 -265.5 -73.5t-189 -201.5t-68.5 -282zM518 268v860h322q139 0 217 -84t78 -198q0 -91 -49.5 -162.5t-145.5 -99.5l199 -236l-148 -92l-270 338v135h119q58 0 90.5 35t32.5 82 t-32.5 82t-90.5 35h-152v-695h-170z" />
<glyph unicode="&#xb0;" horiz-adv-x="772" d="M66 1178q0 113 83 194.5t201 81.5q119 0 204 -81.5t85 -194.5q0 -116 -84.5 -197.5t-204.5 -81.5q-118 0 -201 81.5t-83 197.5zM233 1178q0 -51 34 -87t83 -36q51 0 85 36t34 87q0 52 -34 87t-85 35q-50 0 -83.5 -35t-33.5 -87z" />
<glyph unicode="&#xb1;" horiz-adv-x="1193" d="M45 0v186h1026v-186h-1026zM68 682v195h411v401h203v-401h393v-195h-393v-406h-203v406h-411z" />
<glyph unicode="&#xb2;" horiz-adv-x="837" d="M47 621v124l412 340q40 27 61 64.5t21 75.5q0 55 -41.5 91t-116.5 36q-73 0 -117.5 -42t-44.5 -118l-170 6q0 136 92 225.5t240 89.5q158 0 249 -85t91 -207q0 -70 -36.5 -137t-106.5 -117h2l-156 -123l-82 -64h381v-159h-678z" />
<glyph unicode="&#xb3;" horiz-adv-x="880" d="M49 862l172 31q7 -41 30 -71t53.5 -44.5t66 -20.5t70 2t62.5 22.5t45.5 40t18.5 55.5q2 48 -35 83t-110 35h-156v144h137q76 0 111 57q33 52 6 103q-36 67 -145 69q-49 0 -89 -30.5t-50 -84.5l-173 15q14 124 107.5 192t204.5 68q63 0 123 -16.5t109.5 -48.5t80 -85.5 t31.5 -120.5q0 -53 -28.5 -101.5t-80.5 -76.5q81 -36 112.5 -86.5t29.5 -120.5q-2 -112 -98 -195t-269 -83q-157 0 -238.5 73t-97.5 195z" />
<glyph unicode="&#xb4;" horiz-adv-x="598" d="M88 1315l148 219h262l-232 -219h-178z" />
<glyph unicode="&#xb5;" horiz-adv-x="1515" d="M86 0v1434h168l473 -697l473 697h164v-1434h-205v1010l-375 -557h-116l-375 557v-1010h-207z" />
<glyph unicode="&#xb6;" horiz-adv-x="1318" d="M66 979q0 86 31 165t89.5 143t153.5 102t213 38h588v-1585h-203v1409h-256v-1409h-205v703q-125 16 -220.5 82t-143 158t-47.5 194z" />
<glyph unicode="&#xb7;" horiz-adv-x="503" d="M88 711q0 56 35.5 91.5t87.5 35.5q57 0 93 -35t36 -92q0 -48 -37 -86.5t-92 -38.5q-50 0 -86.5 39t-36.5 86z" />
<glyph unicode="&#xb8;" horiz-adv-x="659" d="M16 -268l129 61q29 -39 67 -54.5t70 -9.5t56 24t29 40q4 14 -0.5 28.5t-18.5 28.5t-39.5 23t-63.5 12.5t-91 -2.5l79 185h154l-35 -88q93 -6 144 -62.5t43 -130.5q-6 -58 -41 -104.5t-85 -73t-110 -34t-115 5t-102 51.5t-70 100z" />
<glyph unicode="&#xb9;" horiz-adv-x="620" d="M49 1253l244 285h166v-874h-197v573l-88 -102z" />
<glyph unicode="&#xba;" horiz-adv-x="872" d="M57 1108q0 145 102.5 241.5t252.5 96.5t253 -96.5t103 -241.5q0 -152 -102 -249t-252 -97q-153 0 -255 97t-102 249zM70 492v182h680v-182h-680zM242 1108q0 -81 49.5 -133.5t122.5 -52.5q70 0 119 52.5t49 133.5q0 77 -49 127.5t-119 50.5q-73 0 -122.5 -50.5 t-49.5 -127.5z" />
<glyph unicode="&#xbb;" horiz-adv-x="1064" d="M31 1122h245l338 -426l-338 -424h-231l340 424zM397 272l340 424l-340 426h232l340 -426l-340 -424h-232z" />
<glyph unicode="&#xbf;" horiz-adv-x="1196" d="M76 86q-2 -92 33.5 -176.5t100 -150.5t165 -105t221.5 -39q166 0 288 92t193 244l-168 96q-51 -104 -130.5 -161.5t-182.5 -57.5q-141 0 -222.5 75.5t-78.5 178.5q1 36 11.5 65.5t23 48t37.5 37.5t40 28t46 26h-2q111 57 151 89q96 79 96 216v168h-209l3 -166 q0 -20 -8.5 -36.5t-32.5 -33.5t-36 -24t-50 -27q-110 -60 -151 -93q-130 -103 -138 -283v-11zM461 956q0 36 19.5 63.5t49 40t63.5 13t63.5 -11.5t49 -39.5t19.5 -65.5q0 -59 -37 -97t-92 -38q-60 0 -97.5 37.5t-37.5 97.5z" />
<glyph unicode="&#xf7;" horiz-adv-x="1144" d="M59 621v192h967v-192h-967zM403 371q0 56 35.5 91.5t87.5 35.5q57 0 93 -35t36 -92q0 -48 -37 -86.5t-92 -38.5q-50 0 -86.5 39t-36.5 86zM403 1069q0 56 35.5 91.5t87.5 35.5q57 0 93 -35t36 -92q0 -48 -37 -86.5t-92 -38.5q-50 0 -86.5 39t-36.5 86z" />
<glyph unicode="&#x192;" horiz-adv-x="1058" d="M-102 -408l26 177q133 -35 201 2.5t106 183.5l166 874h-186l31 185h192q2 8 4 18t4 17q16 74 40 134t66 115.5t99 89.5t141 49t189 3l-29 -174q-89 14 -147.5 0t-89.5 -62.5t-41.5 -81t-23.5 -105.5q-1 -2 -1 -3h213l-31 -185h-213l-172 -909q-39 -220 -183 -303 t-361 -25z" />
<glyph unicode="&#x2c6;" horiz-adv-x="720" d="M12 1278l248 223h176l244 -223h-221l-117 96l-104 -96h-226z" />
<glyph unicode="&#x2da;" horiz-adv-x="638" d="M94 1673q0 77 56.5 124.5t136.5 47.5q78 0 135 -47.5t57 -124.5q0 -75 -57 -122.5t-135 -47.5q-79 0 -136 47t-57 123zM229 1673q0 -25 16 -40t42 -15q25 0 41 15t16 40q0 27 -16 43.5t-41 16.5q-26 0 -42 -16t-16 -44z" />
<glyph unicode="&#x2dc;" horiz-adv-x="823" d="M59 1577q45 75 108.5 112.5t131.5 34.5q39 -3 80 -24t74.5 -41.5t56.5 -22.5q62 -3 117 74l104 -82q-36 -74 -95 -111t-128 -34q-38 2 -76 22.5t-72 41t-63 22.5q-27 2 -60.5 -15.5t-62.5 -54.5z" />
<glyph unicode="&#x394;" horiz-adv-x="1370" d="M4 0l576 1452h151l576 -1452h-1303zM297 180h719l-359 942z" />
<glyph unicode="&#x3a9;" horiz-adv-x="1671" d="M33 0v180h297q-121 83 -188.5 231.5t-67.5 317.5q0 212 93 378t259.5 257.5t378.5 91.5q160 0 297 -55.5t232 -152t148.5 -231t53.5 -288.5q0 -160 -71.5 -313.5t-186.5 -237.5h301v-178h-602l-33 168q189 88 287 221.5t98 339.5q0 148 -66.5 270t-186.5 192.5t-271 70.5 q-150 0 -269.5 -70t-186 -192t-66.5 -271q0 -203 107.5 -345.5t297.5 -219.5l-41 -164h-614z" />
<glyph unicode="&#x3c0;" horiz-adv-x="1234" d="M72 0v1434h1022v-1434h-209v1231h-606v-1231h-207z" />
<glyph unicode="&#x401;" horiz-adv-x="1060" d="M66 0h874v207h-666v405h650v209h-650v404h664v207h-872v-1432zM217 1630q0 50 32 82.5t79 32.5q52 0 84 -32t32 -83q0 -44 -33 -78t-83 -34q-45 0 -78 35t-33 77zM606 1630q0 50 32 82.5t79 32.5q52 0 84.5 -32t32.5 -83q0 -43 -33.5 -77.5t-83.5 -34.5q-45 0 -78 35 t-33 77z" />
<glyph unicode="&#x402;" horiz-adv-x="1497" d="M18 1239v195h1074v-195h-433v-256q105 43 205 43q95 0 182.5 -28t159.5 -81.5t115 -140.5t43 -196v-162q1 -227 -103 -323.5t-352 -96.5v186q64 0 106.5 9.5t76 34.5t48.5 71.5t15 118.5v164q0 68 -28 120.5t-74 82.5t-99.5 44.5t-111.5 14.5q-105 0 -183 -64v-780h-206 v1239h-435z" />
<glyph unicode="&#x403;" horiz-adv-x="1060" d="M66 0v1434h872v-201h-664v-1233h-208zM399 1534l148 219h262l-231 -219h-179z" />
<glyph unicode="&#x404;" horiz-adv-x="1546" d="M57 713q0 148 54.5 280t150.5 234q96 99 224.5 156t271.5 57q246 0 425.5 -143t241.5 -386h-204q-56 158 -178.5 241t-284.5 83q-101 0 -192 -41t-160 -113q-109 -116 -138 -262h733v-192h-735q23 -159 140 -279q69 -72 160 -112.5t192 -40.5q165 0 292.5 90.5 t182.5 251.5h203q-62 -247 -246 -397t-432 -150q-144 0 -272 56.5t-224 156.5q-95 102 -150 233.5t-55 276.5z" />
<glyph unicode="&#x405;" horiz-adv-x="1216" d="M49 414l209 4l2 -31v8q10 -93 104.5 -147.5t204.5 -54.5q124 0 223 64.5t99 168.5q0 22 -6 49q-6 26 -21.5 47t-41 35t-50.5 24t-64 17t-67 10.5t-72 7.5q-56 6 -98 12t-95.5 19t-93.5 30.5t-81 45.5t-68.5 63.5t-47 87t-24.5 113.5v-2q-13 153 78 272q70 91 187.5 141 t246.5 50q85 0 164.5 -22.5t148 -67t115.5 -118.5t60 -169l-205 -8q-14 61 -61 104t-106.5 61t-125.5 17q-78 -2 -149 -29t-111 -79q-42 -53 -35 -133q2 -36 16 -63.5t40 -46t52 -31t68 -20.5t72 -12t78 -8q57 -7 102 -15.5t101 -23.5t99 -37.5t84 -53t69 -75.5t41 -100 q10 -52 10 -94q0 -100 -47 -184t-123 -138t-170.5 -84t-192.5 -30q-67 0 -135.5 15.5t-133.5 47.5t-117 77t-87 109t-43 138z" />
<glyph unicode="&#x406;" horiz-adv-x="876" d="M37 0v199h266v1036h-266v197h739v-197h-266v-1036h266v-199h-739z" />
<glyph unicode="&#x407;" horiz-adv-x="876" d="M37 0h739v199h-266v1036h266v197h-739v-197h266v-1036h-266v-199zM100 1630q0 50 32 82.5t79 32.5q52 0 84.5 -32t32.5 -83q0 -43 -33.5 -77.5t-83.5 -34.5q-45 0 -78 35t-33 77zM489 1630q0 50 32 82.5t79 32.5q52 0 84.5 -32t32.5 -83q0 -43 -33.5 -77.5t-83.5 -34.5 q-45 0 -78 35t-33 77z" />
<glyph unicode="&#x408;" horiz-adv-x="925" d="M41 0v195q158 0 265 26t170 81t89.5 131.5t26.5 187.5v622h-387v189h594v-811q0 -217 -74.5 -351.5t-241.5 -202t-442 -67.5z" />
<glyph unicode="&#x409;" horiz-adv-x="1857" d="M8 0l672 1434h346v-549h268q111 0 200 -38t143.5 -100.5t84 -142t29 -162t-30.5 -162t-84.5 -142t-143.5 -100.5t-198 -38h-477v1210h-18l-561 -1210h-230zM1026 205h268q59 0 107 20.5t77 54t45 76t16.5 87t-15.5 87t-45.5 76t-77.5 54t-107 20.5h-268v-475z" />
<glyph unicode="&#x40a;" horiz-adv-x="1847" d="M76 0v1434h207v-549h524v549h209v-549h268q111 0 200 -38t143.5 -100.5t84 -142t29 -162t-30.5 -162t-84.5 -142t-143.5 -100.5t-198 -38h-477v680h-524v-680h-207zM1016 205h268q59 0 107 20.5t77 54t45 76t16.5 87t-15.5 87t-45.5 76t-77.5 54t-107 20.5h-268v-475z " />
<glyph unicode="&#x40b;" horiz-adv-x="1501" d="M18 1239v195h1074v-195h-433v-266q105 43 205 43q75 0 146.5 -17t136 -54t112.5 -88.5t76.5 -125.5t28.5 -162v-569h-209v571q0 68 -28 120.5t-74 82.5t-99.5 45t-111.5 15q-105 0 -183 -64v-770h-206v1239h-435z" />
<glyph unicode="&#x40c;" horiz-adv-x="1181" d="M72 0v1434h209v-1434h-209zM319 664v104l506 666h254l-547 -713l605 -721h-271zM432 1534l148 219h262l-232 -219h-178z" />
<glyph unicode="&#x40e;" d="M-2 1434h233l254 -514l107 -230l92 228l221 516h236l-645 -1436h-226l203 461zM313 1528v180h531v-180h-531z" />
<glyph unicode="&#x40f;" horiz-adv-x="1234" d="M72 0v1434h209v-1231h602v1231h211v-1434h-408v-236h-203v236h-411z" />
<glyph unicode="&#x410;" horiz-adv-x="1366" d="M4 0l576 1452h151l576 -1452h-222l-137 362h-581l-140 -362h-223zM442 557h430l-215 565z" />
<glyph unicode="&#x411;" horiz-adv-x="1257" d="M82 0v1434h950v-201h-745v-371h442q94 0 173.5 -35t132 -94t81.5 -137t29 -164q0 -82 -27 -158.5t-77.5 -138t-131.5 -98.5t-180 -37h-647zM287 201h442q98 0 153.5 68.5t55.5 160.5q0 93 -55.5 163.5t-153.5 70.5h-442v-463z" />
<glyph unicode="&#x412;" horiz-adv-x="1257" d="M82 0v1434h596q82 0 154 -34t120.5 -88.5t75.5 -125t26.5 -141t-34.5 -139.5t-100 -118q115 -49 170 -146.5t55 -209.5q0 -82 -27 -158.5t-77.5 -138t-131.5 -98.5t-180 -37h-647zM287 201h442q98 0 153.5 68.5t55.5 160.5t-55.5 159.5t-153.5 67.5h-442v-456zM287 862 h387q46 0 82.5 20.5t56 54t28.5 73.5t0.5 79.5t-26.5 73t-54.5 54t-82.5 20.5h-391v-375z" />
<glyph unicode="&#x413;" horiz-adv-x="1077" d="M82 0v1434h872v-201h-663v-1233h-209z" />
<glyph unicode="&#x414;" horiz-adv-x="1413" d="M37 166l115 22q94 99 122 402l56 844h852v-1231h116v-432h-202v229h-852v-229h-207v395zM385 203h584v1032h-443l-30 -510q-5 -106 -9 -162t-15 -131.5t-32.5 -129.5t-54.5 -99z" />
<glyph unicode="&#x415;" horiz-adv-x="1077" d="M82 0v1434h872v-207h-663v-404h649v-209h-649v-407h665v-207h-874z" />
<glyph unicode="&#x416;" horiz-adv-x="1880" d="M8 0l553 721l-500 713h244l463 -666v-104l-502 -664h-258zM809 0v1434h209v-1434h-209zM1057 664v104l463 666h243l-499 -713l553 -721h-258z" />
<glyph unicode="&#x417;" horiz-adv-x="1181" d="M43 356l193 35q15 -93 89.5 -155t202.5 -62q159 0 240.5 72.5t81.5 171.5q0 40 -14.5 78t-44 70.5t-81 52.5t-118.5 20h-215v190h215q98 0 147 64.5t49 146.5q0 56 -23 98t-63 65.5t-86.5 34.5t-99.5 11q-86 0 -156.5 -46t-89.5 -126l-186 45q37 155 159 240.5t273 85.5 q96 0 179 -23.5t150.5 -71t107 -128t40.5 -185.5q0 -211 -131 -299q196 -115 193 -344q-1 -79 -35.5 -152.5t-99 -132.5t-166.5 -94.5t-226 -35.5q-111 0 -200 30t-146 83.5t-91.5 118.5t-47.5 142z" />
<glyph unicode="&#x418;" horiz-adv-x="1308" d="M96 0v1434h205v-1010l698 1010h160v-1434h-207v1001l-692 -1001h-164z" />
<glyph unicode="&#x419;" horiz-adv-x="1308" d="M96 0v1434h205v-1010l698 1010h160v-1434h-207v1001l-692 -1001h-164zM369 1528v180h567v-180h-567z" />
<glyph unicode="&#x41a;" horiz-adv-x="1196" d="M72 0v1434h209v-1434h-209zM319 664v104l506 666h254l-547 -713l605 -721h-271z" />
<glyph unicode="&#x41b;" horiz-adv-x="1382" d="M4 0l576 1452h151l576 -1452h-226l-424 1094l-428 -1094h-225z" />
<glyph unicode="&#x41c;" horiz-adv-x="1513" d="M80 0v1434h168l473 -697l473 697h164v-1434h-205v1010l-375 -557h-116l-375 557v-1010h-207z" />
<glyph unicode="&#x41d;" horiz-adv-x="1234" d="M72 0v1434h207v-607h606v607h209v-1434h-209v623h-606v-623h-207z" />
<glyph unicode="&#x41e;" horiz-adv-x="1665" d="M68 717q0 148 56.5 281.5t156.5 236.5q100 102 234 159.5t282 57.5q149 0 282.5 -57.5t235.5 -159.5q100 -103 156.5 -236.5t56.5 -281.5t-56.5 -281.5t-156.5 -236.5q-102 -103 -235 -160t-283 -57q-149 0 -282.5 57t-233.5 160t-156.5 236.5t-56.5 281.5zM276 717 q0 -106 41 -202.5t113 -168.5q72 -73 167.5 -114.5t199.5 -41.5t200.5 41.5t169.5 114.5q71 73 111.5 168.5t40.5 202.5q0 215 -152 370q-73 73 -169.5 114.5t-200.5 41.5t-199.5 -41.5t-167.5 -114.5q-72 -72 -113 -168t-41 -202z" />
<glyph unicode="&#x41f;" horiz-adv-x="1234" d="M72 0v1434h1022v-1434h-211v1231h-602v-1231h-209z" />
<glyph unicode="&#x420;" horiz-adv-x="1161" d="M70 0v1434h524q112 0 202.5 -41t146.5 -109.5t86 -153t30 -176.5t-30 -176t-86 -152t-146.5 -108.5t-202.5 -40.5h-315v-477h-209zM279 682h315q123 0 191.5 80t68.5 190q0 111 -68.5 192t-191.5 81h-315v-543z" />
<glyph unicode="&#x421;" horiz-adv-x="1558" d="M70 713q0 153 56 290.5t150.5 234.5t223.5 153.5t270 56.5q246 0 426 -142.5t242 -385.5h-205q-56 158 -178.5 240.5t-284.5 82.5q-115 0 -212 -46.5t-158.5 -122t-95.5 -169.5t-34 -192q0 -115 38 -202t110 -163q69 -72 160 -112.5t192 -40.5q165 0 292.5 90.5 t182.5 251.5h203q-62 -247 -246 -397t-432 -150q-144 0 -272 56.5t-224 156.5q-204 217 -204 510z" />
<glyph unicode="&#x422;" horiz-adv-x="1196" d="M35 1237v197h1073v-197h-432v-1237h-207v1237h-434z" />
<glyph unicode="&#x423;" d="M-2 1434h233l254 -514l107 -230l92 228l221 516h236l-645 -1436h-226l203 461z" />
<glyph unicode="&#x424;" horiz-adv-x="1648" d="M78 719q0 118 40.5 220.5t116.5 182t195.5 128t267.5 55.5v135h207v-135q147 -6 266 -55.5t194.5 -129.5t116 -182t40.5 -215q0 -249 -162.5 -411t-454.5 -177v-135h-207v133q-149 7 -268 54.5t-195.5 126.5t-116.5 182t-40 223zM293 721q0 -173 109 -286.5t300 -123.5 v813q-195 -9 -302 -118t-107 -285zM901 311q193 13 300.5 121.5t107.5 284.5t-107.5 285t-300.5 122v-813z" />
<glyph unicode="&#x425;" horiz-adv-x="1345" d="M-2 0l518 729l-518 705h254l389 -527l391 527h252l-518 -705l518 -729h-252l-391 563l-389 -563h-254z" />
<glyph unicode="&#x426;" horiz-adv-x="1251" d="M78 0v1434h211v-1244h530v1244h213v-1244h117v-481h-203v291h-868z" />
<glyph unicode="&#x427;" horiz-adv-x="1189" d="M80 946v488h217v-488q0 -86 49 -148.5t123 -91t162 -28.5q85 0 192 29v727h215v-1434h-215v516q-99 -27 -198 -27q-86 0 -164.5 16.5t-148.5 52t-121 88t-81 129.5t-30 171z" />
<glyph unicode="&#x428;" horiz-adv-x="1824" d="M76 0v1434h219v-1246h475v1246h217v-1246h475v1246h219v-1434h-1605z" />
<glyph unicode="&#x429;" horiz-adv-x="1908" d="M76 0v1434h217v-1246h473v1246h219v-1246h475v1246h219v-1246h125v-479h-211v291h-1517z" />
<glyph unicode="&#x42a;" horiz-adv-x="1312" d="M23 1231v203h403v-478h315q112 0 202.5 -40.5t146.5 -108.5t86 -152t30 -176t-30 -176.5t-86 -152.5t-146.5 -109t-202.5 -41h-524v1231h-194zM426 205h315q123 0 191.5 82t68.5 194q0 110 -68.5 190.5t-191.5 80.5h-315v-547z" />
<glyph unicode="&#x42b;" horiz-adv-x="1523" d="M70 0v1434h209v-478h315q112 0 202.5 -40.5t146.5 -108.5t86 -152t30 -176t-30 -176.5t-86 -152.5t-146.5 -109t-202.5 -41h-524zM279 205h315q123 0 191.5 82t68.5 194q0 110 -68.5 190.5t-191.5 80.5h-315v-547zM1169 0v1434h211v-1434h-211z" />
<glyph unicode="&#x42c;" horiz-adv-x="1177" d="M70 0v1434h209v-478h315q112 0 202.5 -40.5t146.5 -108.5t86 -152t30 -176t-30 -176.5t-86 -152.5t-146.5 -109t-202.5 -41h-524zM279 205h315q123 0 191.5 82t68.5 194q0 110 -68.5 190.5t-191.5 80.5h-315v-547z" />
<glyph unicode="&#x42d;" horiz-adv-x="1529" d="M33 537h203q55 -161 182.5 -251.5t292.5 -90.5q101 0 192 40.5t160 112.5q115 119 139 279h-735v192h733q-29 148 -137 262q-69 72 -160 113t-192 41q-162 0 -284.5 -83t-178.5 -241h-205q62 243 242 386t426 143q143 0 271 -56.5t224 -156.5q96 -102 150.5 -234 t54.5 -280q0 -145 -55 -276.5t-150 -233.5q-96 -100 -224 -156.5t-271 -56.5q-248 0 -432 150t-246 397z" />
<glyph unicode="&#x42e;" horiz-adv-x="2088" d="M94 0v1434h207v-607h205q37 236 205 408q100 102 234 159.5t282 57.5q149 0 282.5 -57.5t235.5 -159.5q100 -103 156.5 -236.5t56.5 -281.5t-56.5 -281.5t-156.5 -236.5q-102 -103 -235 -160t-283 -57q-149 0 -282.5 57t-233.5 160q-178 185 -207 424h-203v-623h-207z M707 717q0 -107 40.5 -203t112.5 -168q72 -73 167.5 -114.5t199.5 -41.5t200.5 41.5t169.5 114.5q71 73 111.5 168.5t40.5 202.5q0 215 -152 370q-73 73 -169.5 114.5t-200.5 41.5t-199.5 -41.5t-167.5 -114.5q-72 -72 -112.5 -167.5t-40.5 -202.5z" />
<glyph unicode="&#x42f;" horiz-adv-x="1210" d="M-4 0l453 539q-177 31 -274 154t-97 284q0 69 18.5 134.5t57 124t92.5 103t131.5 70t167.5 25.5h522v-1434h-205v1225h-317q-123 0 -191.5 -74t-68.5 -174q0 -102 68.5 -176t191.5 -74h241v-98l-522 -629h-268z" />
<glyph unicode="&#x430;" horiz-adv-x="1366" d="M4 0l576 1452h151l576 -1452h-222l-137 362h-581l-140 -362h-223zM442 557h430l-215 565z" />
<glyph unicode="&#x431;" horiz-adv-x="1249" d="M74 0v1434h950v-201h-745v-371h442q94 0 173.5 -35t132 -94t81.5 -137t29 -164q0 -82 -27 -158.5t-77.5 -138t-131.5 -98.5t-180 -37h-647zM279 201h442q98 0 153.5 68.5t55.5 160.5q0 93 -55.5 163.5t-153.5 70.5h-442v-463z" />
<glyph unicode="&#x432;" horiz-adv-x="1249" d="M74 0v1434h596q82 0 154 -34t120.5 -88.5t75 -125t26 -141t-34.5 -139.5t-100 -118q115 -49 170.5 -146.5t55.5 -209.5q0 -82 -27 -158.5t-77.5 -138t-131.5 -98.5t-180 -37h-647zM279 201h442q98 0 153.5 68.5t55.5 160.5t-55.5 159.5t-153.5 67.5h-442v-456zM279 862 h387q46 0 82.5 20.5t56 54t28.5 73.5t0.5 79.5t-26.5 73t-54.5 54t-82.5 20.5h-391v-375z" />
<glyph unicode="&#x433;" horiz-adv-x="1077" d="M82 0v1434h872v-201h-663v-1233h-209z" />
<glyph unicode="&#x434;" horiz-adv-x="1390" d="M33 166l114 22q95 100 123 402l56 844h852v-1231h116v-432h-202v229h-852v-229h-207v395zM381 203h584v1032h-443l-30 -510q-5 -106 -9 -162t-15 -131.5t-32.5 -129.5t-54.5 -99z" />
<glyph unicode="&#x435;" horiz-adv-x="1060" d="M66 0v1434h872v-207h-664v-404h650v-209h-650v-407h666v-207h-874z" />
<glyph unicode="&#x436;" horiz-adv-x="1843" d="M-10 0l553 721l-500 713h244l463 -666v-104l-502 -664h-258zM791 0v1434h208v-1434h-208zM1038 664v104l463 666h244l-500 -713l553 -721h-258z" />
<glyph unicode="&#x437;" horiz-adv-x="1175" d="M39 356l192 35q15 -93 90 -155t203 -62q159 0 240.5 72.5t81.5 171.5q0 40 -14.5 78t-44 70.5t-81 52.5t-118.5 20h-215v190h215q98 0 147 64.5t49 146.5q0 56 -23 98t-63 65.5t-86.5 34.5t-99.5 11q-86 0 -156.5 -46t-89.5 -126l-186 45q37 155 159 240.5t273 85.5 q96 0 179 -23.5t150.5 -71t107 -128t40.5 -185.5q0 -211 -131 -299q196 -115 193 -344q-1 -79 -35.5 -152.5t-99 -132.5t-166.5 -94.5t-226 -35.5q-111 0 -200 30t-146 83.5t-91.5 118.5t-47.5 142z" />
<glyph unicode="&#x438;" horiz-adv-x="1308" d="M96 0v1434h205v-1010l698 1010h160v-1434h-207v1001l-692 -1001h-164z" />
<glyph unicode="&#x439;" horiz-adv-x="1308" d="M96 0v1434h205v-1010l698 1010h160v-1434h-207v1001l-692 -1001h-164zM369 1528v180h567v-180h-567z" />
<glyph unicode="&#x43a;" horiz-adv-x="1193" d="M84 0v1434h209v-1434h-209zM332 664v104l506 666h254l-547 -713l604 -721h-270z" />
<glyph unicode="&#x43b;" horiz-adv-x="1372" d="M4 0l576 1452h151l576 -1452h-226l-424 1094l-428 -1094h-225z" />
<glyph unicode="&#x43c;" horiz-adv-x="1513" d="M80 0v1434h168l473 -697l473 697h164v-1434h-205v1010l-375 -557h-116l-375 557v-1010h-207z" />
<glyph unicode="&#x43d;" horiz-adv-x="1234" d="M72 0v1434h207v-607h606v607h209v-1434h-209v623h-606v-623h-207z" />
<glyph unicode="&#x43e;" horiz-adv-x="1665" d="M68 717q0 148 56.5 281.5t156.5 236.5q100 102 234 159.5t282 57.5q149 0 282.5 -57.5t235.5 -159.5q100 -103 156.5 -236.5t56.5 -281.5t-56.5 -281.5t-156.5 -236.5q-102 -103 -235 -160t-283 -57q-149 0 -282.5 57t-233.5 160t-156.5 236.5t-56.5 281.5zM276 717 q0 -106 41 -202.5t113 -168.5q72 -73 167.5 -114.5t199.5 -41.5t200.5 41.5t169.5 114.5q71 73 111.5 168.5t40.5 202.5q0 215 -152 370q-73 73 -169.5 114.5t-200.5 41.5t-199.5 -41.5t-167.5 -114.5q-72 -72 -113 -168t-41 -202z" />
<glyph unicode="&#x43f;" horiz-adv-x="1234" d="M72 0v1434h1022v-1434h-211v1231h-602v-1231h-209z" />
<glyph unicode="&#x440;" horiz-adv-x="1187" d="M82 0v1434h524q112 0 202.5 -41t146.5 -109.5t86 -153t30 -176.5t-30 -176t-86 -152t-146.5 -108.5t-202.5 -40.5h-315v-477h-209zM291 682h315q123 0 191.5 80t68.5 190q0 111 -68.5 192t-191.5 81h-315v-543z" />
<glyph unicode="&#x441;" horiz-adv-x="1536" d="M47 713q0 148 54.5 280t150.5 234q96 99 224.5 156t271.5 57q246 0 425.5 -143t241.5 -386h-205q-56 158 -178 241t-284 83q-101 0 -192.5 -41t-160.5 -113q-147 -154 -147 -368q0 -211 147 -365q69 -72 160.5 -112.5t192.5 -40.5q165 0 292.5 90.5t182.5 251.5h202 q-62 -247 -245.5 -397t-431.5 -150q-144 0 -272 56.5t-224 156.5q-95 102 -150 233.5t-55 276.5z" />
<glyph unicode="&#x442;" horiz-adv-x="1196" d="M35 1237v197h1073v-197h-432v-1237h-207v1237h-434z" />
<glyph unicode="&#x443;" d="M-2 1442h233l254 -522l107 -230l92 228l221 524h236l-647 -1448h-226l205 465z" />
<glyph unicode="&#x444;" horiz-adv-x="1605" d="M63 719q0 110 39.5 211t114 183t193.5 133.5t266 58.5v135h207v-135q118 -5 218 -39.5t171.5 -90t121.5 -128.5t74.5 -155t24.5 -169q0 -110 -40 -211.5t-114.5 -183t-192.5 -134t-263 -59.5v-135h-207v133q-148 7 -267 58.5t-193 134t-113.5 183t-39.5 210.5zM270 721 q0 -173 109.5 -286.5t300.5 -123.5v813q-195 -9 -302.5 -118t-107.5 -285zM879 311q193 13 300 121.5t107 284.5t-107 285t-300 122v-813z" />
<glyph unicode="&#x445;" horiz-adv-x="1345" d="M-2 0l518 729l-518 705h254l389 -527l391 527h252l-518 -705l518 -729h-252l-391 563l-389 -563h-254z" />
<glyph unicode="&#x446;" horiz-adv-x="1255" d="M82 0v1434h211v-1244h530v1244h213v-1244h117v-481h-203v291h-868z" />
<glyph unicode="&#x447;" horiz-adv-x="1169" d="M68 946v488h213v-488q0 -86 49.5 -148.5t124.5 -91t163 -28.5q86 0 193 29v727h207v-1434h-207v516q-99 -27 -199 -27q-86 0 -164.5 16.5t-148.5 52t-121 88t-80.5 129.5t-29.5 171z" />
<glyph unicode="&#x448;" horiz-adv-x="1824" d="M76 0v1434h219v-1246h475v1246h217v-1246h475v1246h219v-1434h-1605z" />
<glyph unicode="&#x449;" horiz-adv-x="1908" d="M76 0v1434h217v-1246h473v1246h219v-1246h475v1246h219v-1246h125v-479h-211v291h-1517z" />
<glyph unicode="&#x44a;" horiz-adv-x="1312" d="M23 1231v203h403v-478h315q112 0 202.5 -40.5t146.5 -108.5t86 -152t30 -176t-30 -176.5t-86 -152.5t-146.5 -109t-202.5 -41h-524v1231h-194zM426 205h315q123 0 191.5 82t68.5 194q0 110 -68.5 190.5t-191.5 80.5h-315v-547z" />
<glyph unicode="&#x44b;" horiz-adv-x="1523" d="M70 0v1434h209v-478h315q112 0 202.5 -40.5t146.5 -108.5t86 -152t30 -176t-30 -176.5t-86 -152.5t-146.5 -109t-202.5 -41h-524zM279 205h315q123 0 191.5 82t68.5 194q0 110 -68.5 190.5t-191.5 80.5h-315v-547zM1169 0v1434h211v-1434h-211z" />
<glyph unicode="&#x44c;" horiz-adv-x="1165" d="M70 0v1434h209v-478h315q112 0 202.5 -40.5t146.5 -108.5t86 -152t30 -176t-30 -176.5t-86 -152.5t-146.5 -109t-202.5 -41h-524zM279 205h315q123 0 191.5 82t68.5 194q0 110 -68.5 190.5t-191.5 80.5h-315v-547z" />
<glyph unicode="&#x44d;" horiz-adv-x="1529" d="M33 537h203q55 -161 182.5 -251.5t292.5 -90.5q101 0 192 40.5t160 112.5q115 119 139 279h-735v192h733q-29 148 -137 262q-69 72 -160 113t-192 41q-162 0 -284.5 -83t-178.5 -241h-205q62 243 242 386t426 143q143 0 271 -56.5t224 -156.5q96 -102 150.5 -234 t54.5 -280q0 -145 -55 -276.5t-150 -233.5q-96 -100 -224 -156.5t-271 -56.5q-248 0 -432 150t-246 397z" />
<glyph unicode="&#x44e;" horiz-adv-x="2072" d="M78 0v1434h207v-607h204q37 236 205 408q100 102 234 159.5t282 57.5q149 0 283 -57.5t236 -159.5q100 -103 156.5 -236.5t56.5 -281.5t-56.5 -281.5t-156.5 -236.5q-101 -103 -235 -160t-284 -57q-149 0 -282.5 57t-233.5 160q-178 185 -207 424h-202v-623h-207z M690 717q0 -106 41 -202.5t113 -168.5q72 -73 167 -114.5t199 -41.5t201 41.5t170 114.5q71 73 111.5 168.5t40.5 202.5q0 215 -152 370q-73 73 -170 114.5t-201 41.5t-199 -41.5t-167 -114.5q-72 -72 -113 -168t-41 -202z" />
<glyph unicode="&#x44f;" horiz-adv-x="1210" d="M-4 0l453 539q-177 31 -274 154t-97 284q0 69 18.5 134.5t57 124t92.5 103t131.5 70t167.5 25.5h522v-1434h-207v1225h-315q-123 0 -191.5 -74t-68.5 -174q0 -102 68.5 -176t191.5 -74h241v-98l-522 -629h-268z" />
<glyph unicode="&#x451;" horiz-adv-x="1060" d="M66 0h874v207h-666v405h650v209h-650v404h664v207h-872v-1432zM221 1630q0 50 32 82.5t79 32.5q52 0 84.5 -32t32.5 -83q0 -43 -33.5 -77.5t-83.5 -34.5q-45 0 -78 35t-33 77zM610 1630q0 50 32 82.5t79 32.5q52 0 84.5 -32t32.5 -83q0 -43 -33.5 -77.5t-83.5 -34.5 q-45 0 -78 35t-33 77z" />
<glyph unicode="&#x452;" horiz-adv-x="1497" d="M18 1239v195h1074v-195h-433v-256q105 43 205 43q95 0 182.5 -28t159.5 -81.5t115 -140.5t43 -196v-162q1 -227 -103 -323.5t-352 -96.5v186q64 0 106.5 9.5t76 34.5t48.5 71.5t15 118.5v164q0 68 -28 120.5t-74 82.5t-99.5 44.5t-111.5 14.5q-105 0 -183 -64v-780h-206 v1239h-435z" />
<glyph unicode="&#x453;" horiz-adv-x="1060" d="M66 0v1434h872v-201h-664v-1233h-208zM399 1534l148 219h262l-231 -219h-179z" />
<glyph unicode="&#x454;" horiz-adv-x="1546" d="M57 713q0 148 54.5 280t150.5 234q96 99 224.5 156t271.5 57q246 0 425.5 -143t241.5 -386h-204q-56 158 -178.5 241t-284.5 83q-101 0 -192 -41t-160 -113q-109 -116 -138 -262h733v-192h-735q23 -159 140 -279q69 -72 160 -112.5t192 -40.5q165 0 292.5 90.5 t182.5 251.5h203q-62 -247 -246 -397t-432 -150q-144 0 -272 56.5t-224 156.5q-95 102 -150 233.5t-55 276.5z" />
<glyph unicode="&#x455;" horiz-adv-x="1216" d="M49 414l209 4l2 -31v8q10 -93 104.5 -147.5t204.5 -54.5q124 0 223 64.5t99 168.5q0 22 -6 49q-6 26 -21.5 47t-41 35t-50.5 24t-64 17t-67 10.5t-72 7.5q-56 6 -98 12t-95.5 19t-93.5 30.5t-81 45.5t-68.5 63.5t-47 87t-24.5 113.5v-2q-13 153 78 272q70 91 187.5 141 t246.5 50q85 0 164.5 -22.5t148 -67t115.5 -118.5t60 -169l-205 -8q-14 61 -61 104t-106.5 61t-125.5 17q-78 -2 -149 -29t-111 -79q-42 -53 -35 -133q2 -36 16 -63.5t40 -46t52 -31t68 -20.5t72 -12t78 -8q57 -7 102 -15.5t101 -23.5t99 -37.5t84 -53t69 -75.5t41 -100 q10 -52 10 -94q0 -100 -47 -184t-123 -138t-170.5 -84t-192.5 -30q-67 0 -135.5 15.5t-133.5 47.5t-117 77t-87 109t-43 138z" />
<glyph unicode="&#x456;" horiz-adv-x="876" d="M37 0v199h266v1036h-266v197h739v-197h-266v-1036h266v-199h-739z" />
<glyph unicode="&#x457;" horiz-adv-x="876" d="M37 0h739v199h-266v1038h266v197h-739v-197h266v-1038h-266v-199zM100 1630q0 50 32 82.5t79 32.5q52 0 84.5 -32t32.5 -83q0 -43 -33.5 -77.5t-83.5 -34.5q-45 0 -78 35t-33 77zM489 1630q0 50 32 82.5t79 32.5q52 0 84.5 -32t32.5 -83q0 -43 -33.5 -77.5t-83.5 -34.5 q-45 0 -78 35t-33 77z" />
<glyph unicode="&#x458;" horiz-adv-x="925" d="M41 0v195q158 0 265 26t170 81t89.5 131.5t26.5 187.5v624h-387v189h594v-813q0 -217 -74.5 -351.5t-241.5 -202t-442 -67.5z" />
<glyph unicode="&#x459;" horiz-adv-x="1857" d="M8 0l672 1434h346v-549h268q111 0 200 -38t143.5 -100.5t84 -142t29 -162t-30.5 -162t-84.5 -142t-143.5 -100.5t-198 -38h-477v1210h-18l-561 -1210h-230zM1026 205h268q59 0 107 20.5t77 54t45 76t16.5 87t-15.5 87t-45.5 76t-77.5 54t-107 20.5h-268v-475z" />
<glyph unicode="&#x45a;" horiz-adv-x="1847" d="M76 0v1434h207v-549h524v549h209v-549h268q111 0 200 -38t143.5 -100.5t84 -142t29 -162t-30.5 -162t-84.5 -142t-143.5 -100.5t-198 -38h-477v680h-524v-680h-207zM1016 205h268q59 0 107 20.5t77 54t45 76t16.5 87t-15.5 87t-45.5 76t-77.5 54t-107 20.5h-268v-475z " />
<glyph unicode="&#x45b;" horiz-adv-x="1501" d="M18 1239v195h1074v-195h-433v-266q105 43 205 43q75 0 146.5 -17t136 -54t112.5 -88.5t76.5 -125.5t28.5 -162v-569h-209v571q0 68 -28 120.5t-74 82.5t-99.5 45t-111.5 15q-105 0 -183 -64v-770h-206v1239h-435z" />
<glyph unicode="&#x45c;" horiz-adv-x="1181" d="M72 0v1434h209v-1434h-209zM319 664v104l506 666h254l-547 -713l605 -721h-271zM432 1534l148 219h262l-232 -219h-178z" />
<glyph unicode="&#x45e;" d="M-2 1434h233l254 -514l107 -230l92 228l221 516h236l-645 -1436h-226l203 461zM313 1528v180h531v-180h-531z" />
<glyph unicode="&#x45f;" horiz-adv-x="1234" d="M72 0v1434h209v-1231h602v1231h211v-1434h-408v-236h-203v236h-411z" />
<glyph unicode="&#x490;" horiz-adv-x="1060" d="M66 0v1434h684v157h188v-358h-664v-1233h-208z" />
<glyph unicode="&#x491;" horiz-adv-x="1060" d="M66 0v1434h684v157h188v-358h-664v-1233h-208z" />
<glyph unicode="&#x2000;" horiz-adv-x="922" />
<glyph unicode="&#x2001;" horiz-adv-x="1845" />
<glyph unicode="&#x2002;" horiz-adv-x="922" />
<glyph unicode="&#x2003;" horiz-adv-x="1845" />
<glyph unicode="&#x2004;" horiz-adv-x="615" />
<glyph unicode="&#x2005;" horiz-adv-x="461" />
<glyph unicode="&#x2006;" horiz-adv-x="307" />
<glyph unicode="&#x2007;" horiz-adv-x="307" />
<glyph unicode="&#x2008;" horiz-adv-x="230" />
<glyph unicode="&#x2009;" horiz-adv-x="28" />
<glyph unicode="&#x200a;" horiz-adv-x="102" />
<glyph unicode="&#x2010;" horiz-adv-x="937" d="M164 551v170h553v-170h-553z" />
<glyph unicode="&#x2011;" horiz-adv-x="937" d="M164 551v170h553v-170h-553z" />
<glyph unicode="&#x2012;" horiz-adv-x="937" d="M164 551v170h553v-170h-553z" />
<glyph unicode="&#x2013;" horiz-adv-x="1280" d="M82 612v197h1048v-197h-1048z" />
<glyph unicode="&#x2014;" horiz-adv-x="1585" d="M59 612v193h1403v-193h-1403z" />
<glyph unicode="&#x2018;" horiz-adv-x="487" d="M61 1036l154 408h166l-107 -408h-213z" />
<glyph unicode="&#x2019;" horiz-adv-x="475" d="M61 1034l107 408h213l-154 -408h-166z" />
<glyph unicode="&#x201a;" horiz-adv-x="466" d="M-10 -205l149 377h230l-191 -377h-188z" />
<glyph unicode="&#x201c;" horiz-adv-x="739" d="M41 1036l154 408h165l-106 -408h-213zM328 1036l153 408h166l-106 -408h-213z" />
<glyph unicode="&#x201d;" horiz-adv-x="768" d="M49 1034l107 408h213l-154 -408h-166zM336 1034l106 408h213l-153 -408h-166z" />
<glyph unicode="&#x201e;" horiz-adv-x="768" d="M-10 -205l149 377h230l-191 -377h-188zM293 -205l149 377h230l-191 -377h-188z" />
<glyph unicode="&#x2020;" horiz-adv-x="1019" d="M39 858v178h348v394h191v-394h352v-178h-352v-956h-191v956h-348z" />
<glyph unicode="&#x2021;" horiz-adv-x="1036" d="M47 338v168h350v356h-350v174h350v394h189v-394h350v-174h-350v-356h350v-168h-350v-436h-189v436h-350z" />
<glyph unicode="&#x2022;" horiz-adv-x="686" d="M82 735q0 97 67 164.5t164 67.5t164.5 -67.5t67.5 -164.5q0 -98 -67.5 -165.5t-164.5 -67.5t-164 67.5t-67 165.5z" />
<glyph unicode="&#x2026;" horiz-adv-x="1107" d="M49 119q0 56 35.5 91.5t87.5 35.5q57 0 93 -35t36 -92q0 -48 -37 -86.5t-92 -38.5q-50 0 -86.5 39t-36.5 86zM401 119q0 56 35.5 91.5t87.5 35.5q57 0 93 -35t36 -92q0 -48 -37 -86.5t-92 -38.5q-50 0 -86.5 39t-36.5 86zM750 119q0 56 35 91.5t87 35.5q57 0 93 -35 t36 -92q0 -48 -37 -86.5t-92 -38.5q-50 0 -86 39t-36 86z" />
<glyph unicode="&#x202f;" horiz-adv-x="369" />
<glyph unicode="&#x2030;" horiz-adv-x="2369" d="M59 1079q0 145 103.5 246.5t247.5 101.5q145 0 248.5 -101t103.5 -247q0 -144 -103.5 -245t-248.5 -101q-144 0 -247.5 101t-103.5 245zM199 -18l931 1435h236l-934 -1435h-233zM250 1079q0 -71 46.5 -120.5t113.5 -49.5q68 0 114.5 49.5t46.5 120.5t-46.5 121.5 t-114.5 50.5q-67 0 -113.5 -50.5t-46.5 -121.5zM807 336q0 146 102.5 247t247.5 101t248.5 -101t103.5 -247q0 -144 -103.5 -245t-248.5 -101t-247.5 101t-102.5 245zM995 336q0 -71 47.5 -120.5t114.5 -49.5q69 0 115.5 49.5t46.5 120.5t-47 121.5t-115 50.5 q-67 0 -114.5 -50.5t-47.5 -121.5zM1569 336q0 146 102.5 247t247.5 101t248.5 -101t103.5 -247q0 -144 -103.5 -245t-248.5 -101t-247.5 101t-102.5 245zM1757 336q0 -71 47.5 -120.5t114.5 -49.5q69 0 115.5 49.5t46.5 120.5t-47 121.5t-115 50.5q-67 0 -114.5 -50.5 t-47.5 -121.5z" />
<glyph unicode="&#x2039;" horiz-adv-x="720" d="M35 625l340 426h239l-338 -426q50 -64 168 -210.5t170 -213.5h-239z" />
<glyph unicode="&#x203a;" horiz-adv-x="714" d="M49 1124h240l338 -426l-338 -424h-236l334 424z" />
<glyph unicode="&#x2044;" horiz-adv-x="491" d="M-252 -96l744 1558h202l-743 -1558h-203z" />
<glyph unicode="&#x205f;" horiz-adv-x="461" />
<glyph unicode="&#x2070;" d="M35 684q0 105 20.5 204t63.5 187.5t104 155t147.5 105t188.5 38.5q101 0 187.5 -38.5t147.5 -105t104.5 -155t64 -187.5t20.5 -204t-20.5 -204t-64 -187t-104.5 -154t-147.5 -104.5t-187.5 -38.5q-102 0 -188.5 38.5t-147.5 104.5t-104 154t-63.5 187t-20.5 204zM231 684 q0 -94 20.5 -180.5t60 -156t103.5 -111t144 -41.5q79 0 143 41.5t103.5 111t60.5 156t21 180.5t-21 181t-60.5 157t-103.5 112t-143 42q-80 0 -144 -42t-103.5 -112t-60 -157t-20.5 -181z" />
<glyph unicode="&#x2074;" horiz-adv-x="1165" d="M14 324v145l760 965h160v-910h117v-200h-117v-324h-205v324h-715zM285 520h448v555z" />
<glyph unicode="&#x2075;" horiz-adv-x="1175" d="M39 326l190 77q44 -91 120 -142.5t179 -51.5q151 0 234.5 86t81.5 205q0 78 -43.5 148t-122.5 104q-249 103 -504 -47l-117 53v682h914v-201h-705v-287q257 83 486 -8q145 -60 222 -179.5t79 -264.5q1 -95 -33 -183.5t-97.5 -160t-166 -114t-228.5 -42.5q-360 0 -489 326 z" />
<glyph unicode="&#x2076;" horiz-adv-x="1191" d="M27 492q0 152 88 286l467 656h254l-351 -494q78 28 176.5 22t172.5 -47q115 -65 176 -179.5t61 -243.5q0 -94 -33.5 -181t-96.5 -157t-164.5 -112t-227.5 -42q-125 0 -226.5 42t-165 112t-97 157t-33.5 181zM233 492q0 -55 20 -105t58.5 -90t100 -64t137.5 -24 q151 0 233 83.5t82 199.5q0 74 -33 137.5t-106.5 106t-175.5 42.5q-149 0 -232.5 -85t-83.5 -201z" />
<glyph unicode="&#x2077;" horiz-adv-x="1120" d="M27 1231v203h1009v-142l-706 -1292h-238l672 1231h-737z" />
<glyph unicode="&#x2078;" horiz-adv-x="1173" d="M29 416q0 99 65 191t182 143q-55 22 -94.5 59.5t-58.5 80.5t-27 80.5t-8 73.5q1 79 27.5 146t71 113.5t103.5 79t123.5 48t131.5 15.5q110 0 199.5 -34.5t145 -92t85 -128.5t29.5 -149q0 -84 -49 -169t-132 -123q118 -45 180 -137.5t62 -196.5q0 -82 -33.5 -158 t-96 -137.5t-164 -98t-226.5 -36.5q-124 0 -224 35t-163 95t-96 137t-33 163zM233 414q0 -92 83.5 -164t228.5 -72q148 0 230.5 72t82.5 164q0 93 -82 161t-231 68q-146 0 -229 -68.5t-83 -160.5zM293 1047q0 -82 66.5 -147.5t185.5 -65.5q120 0 187 65.5t67 149.5 q0 97 -78 156t-176 59t-175 -60t-77 -157z" />
<glyph unicode="&#x2079;" horiz-adv-x="1204" d="M37 950q0 76 20.5 148t64 135.5t104.5 111t148 75.5t189 28q127 0 229.5 -42.5t167 -113t98.5 -158.5t34 -184q0 -150 -88 -288l-472 -662h-256l353 500q-81 -30 -179.5 -24.5t-170.5 46.5q-117 67 -179.5 182.5t-62.5 245.5zM246 950q0 -74 33.5 -138t107.5 -107 t176 -43t176 43t108 107t34 138q0 118 -83.5 202.5t-234.5 84.5t-234 -84.5t-83 -202.5z" />
<glyph unicode="&#x2080;" d="M35 684q0 105 20.5 204t63.5 187.5t104 155t147.5 105t188.5 38.5q101 0 187.5 -38.5t147.5 -105t104.5 -155t64 -187.5t20.5 -204t-20.5 -204t-64 -187t-104.5 -154t-147.5 -104.5t-187.5 -38.5q-102 0 -188.5 38.5t-147.5 104.5t-104 154t-63.5 187t-20.5 204zM231 684 q0 -94 20.5 -180.5t60 -156t103.5 -111t144 -41.5q79 0 143 41.5t103.5 111t60.5 156t21 180.5t-21 181t-60.5 157t-103.5 112t-143 42q-80 0 -144 -42t-103.5 -112t-60 -157t-20.5 -181z" />
<glyph unicode="&#x2081;" horiz-adv-x="632" d="M-68 895l387 545h166v-1440h-204v1044l-193 -262z" />
<glyph unicode="&#x2082;" horiz-adv-x="1169" d="M39 0v160l674 573h-2q55 39 89 93t43.5 109t-5 109.5t-50 96.5t-98 68t-143.5 26q-127 0 -200 -74t-93 -200l-207 16q14 98 52 181t99 147t150.5 100.5t198.5 36.5q131 0 237 -45.5t169.5 -119t93 -168t18.5 -189.5t-66 -187t-149 -158q-98 -81 -227 -184t-236 -192h657 v-199h-1005z" />
<glyph unicode="&#x2083;" horiz-adv-x="1144" d="M20 356l193 35q15 -93 90 -155t203 -62q160 0 245.5 73.5t77.5 170.5q-3 34 -18.5 67.5t-44 66t-80 52t-117.5 19.5h-215v194h215q98 0 147.5 65.5t49.5 147.5q0 68 -40.5 117t-100.5 70.5t-131 21.5q-86 0 -156.5 -46t-89.5 -126l-187 45q25 104 92.5 179t155 110 t185.5 35q89 0 172 -25t152 -73t110.5 -127.5t42.5 -180.5q0 -211 -131 -299q187 -110 184 -334q-1 -79 -34.5 -152.5t-95.5 -132.5t-163 -94.5t-225 -35.5q-111 0 -200 30.5t-146.5 83.5t-92 118t-47.5 142z" />
<glyph unicode="&#x2084;" horiz-adv-x="1165" d="M14 324v145l760 965h160v-910h117v-200h-117v-324h-205v324h-715zM285 520h448v555z" />
<glyph unicode="&#x2085;" horiz-adv-x="1175" d="M39 326l190 77q44 -91 120 -142.5t179 -51.5q151 0 234.5 86t81.5 205q0 78 -43.5 148t-122.5 104q-249 103 -504 -47l-117 53v682h914v-201h-705v-287q257 83 486 -8q145 -60 222 -179.5t79 -264.5q1 -95 -33 -183.5t-97.5 -160t-166 -114t-228.5 -42.5q-360 0 -489 326 z" />
<glyph unicode="&#x2086;" horiz-adv-x="1191" d="M27 492q0 152 88 286l467 656h254l-351 -494q78 28 176.5 22t172.5 -47q115 -65 176 -179.5t61 -243.5q0 -94 -33.5 -181t-96.5 -157t-164.5 -112t-227.5 -42q-125 0 -226.5 42t-165 112t-97 157t-33.5 181zM233 492q0 -55 20 -105t58.5 -90t100 -64t137.5 -24 q151 0 233 83.5t82 199.5q0 74 -33 137.5t-106.5 106t-175.5 42.5q-149 0 -232.5 -85t-83.5 -201z" />
<glyph unicode="&#x2087;" horiz-adv-x="1120" d="M27 1231v203h1009v-142l-706 -1292h-238l672 1231h-737z" />
<glyph unicode="&#x2088;" horiz-adv-x="1173" d="M29 416q0 99 65 191t182 143q-55 22 -94.5 59.5t-58.5 80.5t-27 80.5t-8 73.5q1 79 27.5 146t71 113.5t103.5 79t123.5 48t131.5 15.5q110 0 199.5 -34.5t145 -92t85 -128.5t29.5 -149q0 -84 -49 -169t-132 -123q118 -45 180 -137.5t62 -196.5q0 -82 -33.5 -158 t-96 -137.5t-164 -98t-226.5 -36.5q-124 0 -224 35t-163 95t-96 137t-33 163zM233 414q0 -92 83.5 -164t228.5 -72q148 0 230.5 72t82.5 164q0 93 -82 161t-231 68q-146 0 -229 -68.5t-83 -160.5zM293 1047q0 -82 66.5 -147.5t185.5 -65.5q120 0 187 65.5t67 149.5 q0 97 -78 156t-176 59t-175 -60t-77 -157z" />
<glyph unicode="&#x2089;" horiz-adv-x="1204" d="M37 950q0 76 20.5 148t64 135.5t104.5 111t148 75.5t189 28q127 0 229.5 -42.5t167 -113t98.5 -158.5t34 -184q0 -150 -88 -288l-472 -662h-256l353 500q-81 -30 -179.5 -24.5t-170.5 46.5q-117 67 -179.5 182.5t-62.5 245.5zM246 950q0 -74 33.5 -138t107.5 -107 t176 -43t176 43t108 107t34 138q0 118 -83.5 202.5t-234.5 84.5t-234 -84.5t-83 -202.5z" />
<glyph unicode="&#x20ac;" horiz-adv-x="1593" d="M-4 498l39 166h69v49v30h-98l33 172h94q49 175 176 312q96 99 224.5 156t271.5 57q246 0 426 -143t242 -386h-205q-56 158 -178.5 241t-284.5 83q-101 0 -193 -40t-161 -112q-67 -70 -109 -168h621l-33 -172h-625v-30q0 -33 2 -49h590l-35 -166h-512q40 -91 101 -152 q68 -71 160 -111t194 -40q165 0 292.5 90.5t182.5 251.5h203q-62 -247 -246 -397t-432 -150q-144 0 -272 56.5t-224 156.5q-120 126 -172 295h-141z" />
<glyph unicode="&#x2122;" horiz-adv-x="1814" d="M68 1274v160h620v-160h-219v-625h-182v625h-219zM770 649v783h184l260 -459q164 278 267 459h180v-783h-184l4 453l-195 -359h-139l-199 365q0 -77 2 -231.5t2 -227.5h-182z" />
<glyph unicode="&#x221e;" horiz-adv-x="1011" d="M180 715q0 140 99 238t239 98q141 0 239.5 -97.5t98.5 -238.5q0 -140 -98.5 -239t-239.5 -99q-140 0 -239 99.5t-99 238.5z" />
<glyph unicode="&#x2248;" horiz-adv-x="1155" d="M25 453q67 69 154.5 117t176.5 48q48 0 95 -13.5t73 -26.5t70 -39q78 -45 114 -52q17 -4 33 -4q55 0 113.5 28.5t103.5 78.5l115 -144q-66 -67 -154 -112t-178 -45q-48 0 -95.5 13.5t-73 26.5t-68.5 38q-32 19 -49.5 28t-45 18t-53.5 9q-53 0 -110.5 -30.5t-104.5 -80.5z M25 793q67 70 154.5 119t176.5 49q48 0 95.5 -13.5t72.5 -26.5t70 -40q3 -2 19.5 -11.5t21.5 -12t19.5 -10t22 -10.5t20 -7t23 -5.5t21.5 -1.5q55 0 113.5 29t103.5 80l99 -127q-78 -81 -153.5 -127.5t-162.5 -46.5q-45 0 -89.5 12t-71.5 25t-64 34q-8 5 -12 7 q-64 35 -120.5 43.5t-118 -15.5t-124.5 -84z" />
<glyph unicode="&#x2260;" horiz-adv-x="1071" d="M41 338v184h303l152 203h-455v186h580l161 226l127 -93l-96 -133h158v-186h-281l-151 -203h432v-184h-555l-160 -229l-131 92l96 137h-180z" />
<glyph unicode="&#x2264;" horiz-adv-x="1026" d="M53 694v142l836 446v-227l-580 -287l580 -291v-217zM63 2v199h848v-199h-848z" />
<glyph unicode="&#x2265;" horiz-adv-x="1021" d="M51 2v199h848v-199h-848zM74 260v217l579 291l-579 287v227l835 -446v-142z" />
<glyph unicode="&#x25fc;" horiz-adv-x="1433" d="M0 0v1434h1434v-1434h-1434z" />
<glyph d="M35 684q0 105 20.5 204t63.5 187.5t104 155t147.5 105t188.5 38.5q101 0 187.5 -38.5t147.5 -105t104.5 -155t64 -187.5t20.5 -204t-20.5 -204t-64 -187t-104.5 -154t-147.5 -104.5t-187.5 -38.5q-102 0 -188.5 38.5t-147.5 104.5t-104 154t-63.5 187t-20.5 204zM231 684 q0 -94 20.5 -180.5t60 -156t103.5 -111t144 -41.5q79 0 143 41.5t103.5 111t60.5 156t21 180.5t-21 181t-60.5 157t-103.5 112t-143 42q-80 0 -144 -42t-103.5 -112t-60 -157t-20.5 -181z" />
<glyph horiz-adv-x="632" d="M-68 895l387 545h166v-1440h-204v1044l-193 -262z" />
<glyph horiz-adv-x="1169" d="M39 0v160l674 573h-2q55 39 89 93t43.5 109t-5 109.5t-50 96.5t-98 68t-143.5 26q-127 0 -200 -74t-93 -200l-207 16q14 98 52 181t99 147t150.5 100.5t198.5 36.5q131 0 237 -45.5t169.5 -119t93 -168t18.5 -189.5t-66 -187t-149 -158q-98 -81 -227 -184t-236 -192h657 v-199h-1005z" />
<glyph horiz-adv-x="1144" d="M20 356l193 35q15 -93 90 -155t203 -62q160 0 245.5 73.5t77.5 170.5q-3 34 -18.5 67.5t-44 66t-80 52t-117.5 19.5h-215v194h215q98 0 147.5 65.5t49.5 147.5q0 68 -40.5 117t-100.5 70.5t-131 21.5q-86 0 -156.5 -46t-89.5 -126l-187 45q25 104 92.5 179t155 110 t185.5 35q89 0 172 -25t152 -73t110.5 -127.5t42.5 -180.5q0 -211 -131 -299q187 -110 184 -334q-1 -79 -34.5 -152.5t-95.5 -132.5t-163 -94.5t-225 -35.5q-111 0 -200 30.5t-146.5 83.5t-92 118t-47.5 142z" />
<glyph horiz-adv-x="1165" d="M14 324v145l760 965h160v-910h117v-200h-117v-324h-205v324h-715zM285 520h448v555z" />
<glyph horiz-adv-x="1175" d="M39 326l190 77q44 -91 120 -142.5t179 -51.5q151 0 234.5 86t81.5 205q0 78 -43.5 148t-122.5 104q-249 103 -504 -47l-117 53v682h914v-201h-705v-287q257 83 486 -8q145 -60 222 -179.5t79 -264.5q1 -95 -33 -183.5t-97.5 -160t-166 -114t-228.5 -42.5q-360 0 -489 326 z" />
<glyph horiz-adv-x="1191" d="M27 492q0 152 88 286l467 656h254l-351 -494q78 28 176.5 22t172.5 -47q115 -65 176 -179.5t61 -243.5q0 -94 -33.5 -181t-96.5 -157t-164.5 -112t-227.5 -42q-125 0 -226.5 42t-165 112t-97 157t-33.5 181zM233 492q0 -55 20 -105t58.5 -90t100 -64t137.5 -24 q151 0 233 83.5t82 199.5q0 74 -33 137.5t-106.5 106t-175.5 42.5q-149 0 -232.5 -85t-83.5 -201z" />
<glyph horiz-adv-x="1120" d="M27 1231v203h1009v-142l-706 -1292h-238l672 1231h-737z" />
<glyph horiz-adv-x="1173" d="M29 416q0 99 65 191t182 143q-55 22 -94.5 59.5t-58.5 80.5t-27 80.5t-8 73.5q1 79 27.5 146t71 113.5t103.5 79t123.5 48t131.5 15.5q110 0 199.5 -34.5t145 -92t85 -128.5t29.5 -149q0 -84 -49 -169t-132 -123q118 -45 180 -137.5t62 -196.5q0 -82 -33.5 -158 t-96 -137.5t-164 -98t-226.5 -36.5q-124 0 -224 35t-163 95t-96 137t-33 163zM233 414q0 -92 83.5 -164t228.5 -72q148 0 230.5 72t82.5 164q0 93 -82 161t-231 68q-146 0 -229 -68.5t-83 -160.5zM293 1047q0 -82 66.5 -147.5t185.5 -65.5q120 0 187 65.5t67 149.5 q0 97 -78 156t-176 59t-175 -60t-77 -157z" />
<glyph horiz-adv-x="1204" d="M37 950q0 76 20.5 148t64 135.5t104.5 111t148 75.5t189 28q127 0 229.5 -42.5t167 -113t98.5 -158.5t34 -184q0 -150 -88 -288l-472 -662h-256l353 500q-81 -30 -179.5 -24.5t-170.5 46.5q-117 67 -179.5 182.5t-62.5 245.5zM246 950q0 -74 33.5 -138t107.5 -107 t176 -43t176 43t108 107t34 138q0 118 -83.5 202.5t-234.5 84.5t-234 -84.5t-83 -202.5z" />
<glyph d="M35 684q0 105 20.5 204t63.5 187.5t104 155t147.5 105t188.5 38.5q101 0 187.5 -38.5t147.5 -105t104.5 -155t64 -187.5t20.5 -204t-20.5 -204t-64 -187t-104.5 -154t-147.5 -104.5t-187.5 -38.5q-102 0 -188.5 38.5t-147.5 104.5t-104 154t-63.5 187t-20.5 204zM231 684 q0 -94 20.5 -180.5t60 -156t103.5 -111t144 -41.5q79 0 143 41.5t103.5 111t60.5 156t21 180.5t-21 181t-60.5 157t-103.5 112t-143 42q-80 0 -144 -42t-103.5 -112t-60 -157t-20.5 -181z" />
<glyph horiz-adv-x="632" d="M-68 895l387 545h166v-1440h-204v1044l-193 -262z" />
<glyph horiz-adv-x="1169" d="M39 0v160l674 573h-2q55 39 89 93t43.5 109t-5 109.5t-50 96.5t-98 68t-143.5 26q-127 0 -200 -74t-93 -200l-207 16q14 98 52 181t99 147t150.5 100.5t198.5 36.5q131 0 237 -45.5t169.5 -119t93 -168t18.5 -189.5t-66 -187t-149 -158q-98 -81 -227 -184t-236 -192h657 v-199h-1005z" />
<glyph horiz-adv-x="1144" d="M20 356l193 35q15 -93 90 -155t203 -62q160 0 245.5 73.5t77.5 170.5q-3 34 -18.5 67.5t-44 66t-80 52t-117.5 19.5h-215v194h215q98 0 147.5 65.5t49.5 147.5q0 68 -40.5 117t-100.5 70.5t-131 21.5q-86 0 -156.5 -46t-89.5 -126l-187 45q25 104 92.5 179t155 110 t185.5 35q89 0 172 -25t152 -73t110.5 -127.5t42.5 -180.5q0 -211 -131 -299q187 -110 184 -334q-1 -79 -34.5 -152.5t-95.5 -132.5t-163 -94.5t-225 -35.5q-111 0 -200 30.5t-146.5 83.5t-92 118t-47.5 142z" />
<glyph horiz-adv-x="1165" d="M14 324v145l760 965h160v-910h117v-200h-117v-324h-205v324h-715zM285 520h448v555z" />
<glyph horiz-adv-x="1175" d="M39 326l190 77q44 -91 120 -142.5t179 -51.5q151 0 234.5 86t81.5 205q0 78 -43.5 148t-122.5 104q-249 103 -504 -47l-117 53v682h914v-201h-705v-287q257 83 486 -8q145 -60 222 -179.5t79 -264.5q1 -95 -33 -183.5t-97.5 -160t-166 -114t-228.5 -42.5q-360 0 -489 326 z" />
<glyph horiz-adv-x="1191" d="M27 492q0 152 88 286l467 656h254l-351 -494q78 28 176.5 22t172.5 -47q115 -65 176 -179.5t61 -243.5q0 -94 -33.5 -181t-96.5 -157t-164.5 -112t-227.5 -42q-125 0 -226.5 42t-165 112t-97 157t-33.5 181zM233 492q0 -55 20 -105t58.5 -90t100 -64t137.5 -24 q151 0 233 83.5t82 199.5q0 74 -33 137.5t-106.5 106t-175.5 42.5q-149 0 -232.5 -85t-83.5 -201z" />
<glyph horiz-adv-x="1120" d="M27 1231v203h1009v-142l-706 -1292h-238l672 1231h-737z" />
<glyph horiz-adv-x="1173" d="M29 416q0 99 65 191t182 143q-55 22 -94.5 59.5t-58.5 80.5t-27 80.5t-8 73.5q1 79 27.5 146t71 113.5t103.5 79t123.5 48t131.5 15.5q110 0 199.5 -34.5t145 -92t85 -128.5t29.5 -149q0 -84 -49 -169t-132 -123q118 -45 180 -137.5t62 -196.5q0 -82 -33.5 -158 t-96 -137.5t-164 -98t-226.5 -36.5q-124 0 -224 35t-163 95t-96 137t-33 163zM233 414q0 -92 83.5 -164t228.5 -72q148 0 230.5 72t82.5 164q0 93 -82 161t-231 68q-146 0 -229 -68.5t-83 -160.5zM293 1047q0 -82 66.5 -147.5t185.5 -65.5q120 0 187 65.5t67 149.5 q0 97 -78 156t-176 59t-175 -60t-77 -157z" />
<glyph horiz-adv-x="1204" d="M37 950q0 76 20.5 148t64 135.5t104.5 111t148 75.5t189 28q127 0 229.5 -42.5t167 -113t98.5 -158.5t34 -184q0 -150 -88 -288l-472 -662h-256l353 500q-81 -30 -179.5 -24.5t-170.5 46.5q-117 67 -179.5 182.5t-62.5 245.5zM246 950q0 -74 33.5 -138t107.5 -107 t176 -43t176 43t108 107t34 138q0 118 -83.5 202.5t-234.5 84.5t-234 -84.5t-83 -202.5z" />
<glyph horiz-adv-x="1208" d="M45 379v14l207 2l2 -2q15 -63 75.5 -119t131.5 -75v432q-80 -8 -152.5 16.5t-124.5 71t-86 112t-43 137t10 148.5t68 144q57 74 142.5 120.5t185.5 61.5v110h205v-110q72 -12 134.5 -38t116.5 -67.5t90 -105t46 -141.5l-203 -21q-15 64 -67 109.5t-117 54.5v-418 q86 -3 160 -27t134.5 -69t95 -119t34.5 -170q0 -84 -23.5 -151.5t-62 -112.5t-95.5 -79t-114.5 -53t-128.5 -32v-125h-205v125q-158 27 -278 125.5t-138 251.5zM261 1037.5q-1 -54.5 22.5 -98t70.5 -72t107 -27.5v395q-116 -28 -166 -94h-2q-31 -49 -32 -103.5zM666 199 q127 -4 188.5 103t9 211t-197.5 95v-409z" />
<glyph horiz-adv-x="1536" d="M47 713q0 148 54.5 280t150.5 234q164 172 403 207v188h195v-190q209 -28 359.5 -166t205.5 -355h-205q-46 131 -140.5 211.5t-219.5 102.5v-1022q130 25 229 112.5t144 221.5h202q-56 -221 -209 -365.5t-366 -173.5v-205h-195v203q-237 30 -403 207q-95 102 -150 233.5 t-55 276.5zM248 713q0 -211 147 -365q108 -115 260 -145v1022q-149 -30 -260 -144q-147 -154 -147 -368z" />
<glyph horiz-adv-x="1191" d="M53 641v168h117v231q0 157 92.5 264t225 132.5t264.5 4t224.5 -120t92.5 -241.5h-195q0 112 -97 168q-87 49 -196 26q-115 -24 -170 -115q-30 -52 -34 -118v-231h434v-168h-434v-461h688v-180h-1008v147l113 31v463h-117z" />
<glyph horiz-adv-x="1318" d="M-14 1432h243l392 -648l391 648h245l-421 -670h192v-168h-297l-6 -10v-86h303v-168h-303v-330h-209v330h-303v168h303v86l-6 10h-297v168h190z" />
<glyph horiz-adv-x="1058" d="M-102 -408l26 177q133 -35 201 2.5t106 183.5l166 874h-186l31 185h192q2 8 4 18t4 17q16 74 40 134t66 115.5t99 89.5t141 49t189 3l-29 -174q-89 14 -147.5 0t-89.5 -62.5t-41.5 -81t-23.5 -105.5q-1 -2 -1 -3h213l-31 -185h-213l-172 -909q-39 -220 -183 -303 t-361 -25z" />
<glyph horiz-adv-x="1593" d="M-4 498l39 166h69v49v30h-98l33 172h94q49 175 176 312q96 99 224.5 156t271.5 57q246 0 426 -143t242 -386h-205q-56 158 -178.5 241t-284.5 83q-101 0 -193 -40t-161 -112q-67 -70 -109 -168h621l-33 -172h-625v-30q0 -33 2 -49h590l-35 -166h-512q40 -91 101 -152 q68 -71 160 -111t194 -40q165 0 292.5 90.5t182.5 251.5h203q-62 -247 -246 -397t-432 -150q-144 0 -272 56.5t-224 156.5q-120 126 -172 295h-141z" />
<glyph d="M35 684q0 105 20.5 204t63.5 187.5t104 155t147.5 105t188.5 38.5q101 0 187.5 -38.5t147.5 -105t104.5 -155t64 -187.5t20.5 -204t-20.5 -204t-64 -187t-104.5 -154t-147.5 -104.5t-187.5 -38.5q-102 0 -188.5 38.5t-147.5 104.5t-104 154t-63.5 187t-20.5 204zM231 684 q0 -94 20.5 -180.5t60 -156t103.5 -111t144 -41.5q79 0 143 41.5t103.5 111t60.5 156t21 180.5t-21 181t-60.5 157t-103.5 112t-143 42q-80 0 -144 -42t-103.5 -112t-60 -157t-20.5 -181z" />
<glyph horiz-adv-x="632" d="M-68 895l387 545h166v-1440h-204v1044l-193 -262z" />
<glyph horiz-adv-x="1169" d="M39 0v160l674 573h-2q55 39 89 93t43.5 109t-5 109.5t-50 96.5t-98 68t-143.5 26q-127 0 -200 -74t-93 -200l-207 16q14 98 52 181t99 147t150.5 100.5t198.5 36.5q131 0 237 -45.5t169.5 -119t93 -168t18.5 -189.5t-66 -187t-149 -158q-98 -81 -227 -184t-236 -192h657 v-199h-1005z" />
<glyph horiz-adv-x="1144" d="M20 356l193 35q15 -93 90 -155t203 -62q160 0 245.5 73.5t77.5 170.5q-3 34 -18.5 67.5t-44 66t-80 52t-117.5 19.5h-215v194h215q98 0 147.5 65.5t49.5 147.5q0 68 -40.5 117t-100.5 70.5t-131 21.5q-86 0 -156.5 -46t-89.5 -126l-187 45q25 104 92.5 179t155 110 t185.5 35q89 0 172 -25t152 -73t110.5 -127.5t42.5 -180.5q0 -211 -131 -299q187 -110 184 -334q-1 -79 -34.5 -152.5t-95.5 -132.5t-163 -94.5t-225 -35.5q-111 0 -200 30.5t-146.5 83.5t-92 118t-47.5 142z" />
<glyph horiz-adv-x="1165" d="M14 324v145l760 965h160v-910h117v-200h-117v-324h-205v324h-715zM285 520h448v555z" />
<glyph horiz-adv-x="1175" d="M39 326l190 77q44 -91 120 -142.5t179 -51.5q151 0 234.5 86t81.5 205q0 78 -43.5 148t-122.5 104q-249 103 -504 -47l-117 53v682h914v-201h-705v-287q257 83 486 -8q145 -60 222 -179.5t79 -264.5q1 -95 -33 -183.5t-97.5 -160t-166 -114t-228.5 -42.5q-360 0 -489 326 z" />
<glyph horiz-adv-x="1191" d="M27 492q0 152 88 286l467 656h254l-351 -494q78 28 176.5 22t172.5 -47q115 -65 176 -179.5t61 -243.5q0 -94 -33.5 -181t-96.5 -157t-164.5 -112t-227.5 -42q-125 0 -226.5 42t-165 112t-97 157t-33.5 181zM233 492q0 -55 20 -105t58.5 -90t100 -64t137.5 -24 q151 0 233 83.5t82 199.5q0 74 -33 137.5t-106.5 106t-175.5 42.5q-149 0 -232.5 -85t-83.5 -201z" />
<glyph horiz-adv-x="1120" d="M27 1231v203h1009v-142l-706 -1292h-238l672 1231h-737z" />
<glyph horiz-adv-x="1173" d="M29 416q0 99 65 191t182 143q-55 22 -94.5 59.5t-58.5 80.5t-27 80.5t-8 73.5q1 79 27.5 146t71 113.5t103.5 79t123.5 48t131.5 15.5q110 0 199.5 -34.5t145 -92t85 -128.5t29.5 -149q0 -84 -49 -169t-132 -123q118 -45 180 -137.5t62 -196.5q0 -82 -33.5 -158 t-96 -137.5t-164 -98t-226.5 -36.5q-124 0 -224 35t-163 95t-96 137t-33 163zM233 414q0 -92 83.5 -164t228.5 -72q148 0 230.5 72t82.5 164q0 93 -82 161t-231 68q-146 0 -229 -68.5t-83 -160.5zM293 1047q0 -82 66.5 -147.5t185.5 -65.5q120 0 187 65.5t67 149.5 q0 97 -78 156t-176 59t-175 -60t-77 -157z" />
<glyph horiz-adv-x="1204" d="M37 950q0 76 20.5 148t64 135.5t104.5 111t148 75.5t189 28q127 0 229.5 -42.5t167 -113t98.5 -158.5t34 -184q0 -150 -88 -288l-472 -662h-256l353 500q-81 -30 -179.5 -24.5t-170.5 46.5q-117 67 -179.5 182.5t-62.5 245.5zM246 950q0 -74 33.5 -138t107.5 -107 t176 -43t176 43t108 107t34 138q0 118 -83.5 202.5t-234.5 84.5t-234 -84.5t-83 -202.5z" />
<glyph d="M35 684q0 105 20.5 204t63.5 187.5t104 155t147.5 105t188.5 38.5q101 0 187.5 -38.5t147.5 -105t104.5 -155t64 -187.5t20.5 -204t-20.5 -204t-64 -187t-104.5 -154t-147.5 -104.5t-187.5 -38.5q-102 0 -188.5 38.5t-147.5 104.5t-104 154t-63.5 187t-20.5 204zM231 684 q0 -94 20.5 -180.5t60 -156t103.5 -111t144 -41.5q79 0 143 41.5t103.5 111t60.5 156t21 180.5t-21 181t-60.5 157t-103.5 112t-143 42q-80 0 -144 -42t-103.5 -112t-60 -157t-20.5 -181z" />
<glyph horiz-adv-x="632" d="M-68 895l387 545h166v-1440h-204v1044l-193 -262z" />
<glyph horiz-adv-x="1169" d="M39 0v160l674 573h-2q55 39 89 93t43.5 109t-5 109.5t-50 96.5t-98 68t-143.5 26q-127 0 -200 -74t-93 -200l-207 16q14 98 52 181t99 147t150.5 100.5t198.5 36.5q131 0 237 -45.5t169.5 -119t93 -168t18.5 -189.5t-66 -187t-149 -158q-98 -81 -227 -184t-236 -192h657 v-199h-1005z" />
<glyph horiz-adv-x="1144" d="M20 356l193 35q15 -93 90 -155t203 -62q160 0 245.5 73.5t77.5 170.5q-3 34 -18.5 67.5t-44 66t-80 52t-117.5 19.5h-215v194h215q98 0 147.5 65.5t49.5 147.5q0 68 -40.5 117t-100.5 70.5t-131 21.5q-86 0 -156.5 -46t-89.5 -126l-187 45q25 104 92.5 179t155 110 t185.5 35q89 0 172 -25t152 -73t110.5 -127.5t42.5 -180.5q0 -211 -131 -299q187 -110 184 -334q-1 -79 -34.5 -152.5t-95.5 -132.5t-163 -94.5t-225 -35.5q-111 0 -200 30.5t-146.5 83.5t-92 118t-47.5 142z" />
<glyph horiz-adv-x="1165" d="M14 324v145l760 965h160v-910h117v-200h-117v-324h-205v324h-715zM285 520h448v555z" />
<glyph horiz-adv-x="1175" d="M39 326l190 77q44 -91 120 -142.5t179 -51.5q151 0 234.5 86t81.5 205q0 78 -43.5 148t-122.5 104q-249 103 -504 -47l-117 53v682h914v-201h-705v-287q257 83 486 -8q145 -60 222 -179.5t79 -264.5q1 -95 -33 -183.5t-97.5 -160t-166 -114t-228.5 -42.5q-360 0 -489 326 z" />
<glyph horiz-adv-x="1191" d="M27 492q0 152 88 286l467 656h254l-351 -494q78 28 176.5 22t172.5 -47q115 -65 176 -179.5t61 -243.5q0 -94 -33.5 -181t-96.5 -157t-164.5 -112t-227.5 -42q-125 0 -226.5 42t-165 112t-97 157t-33.5 181zM233 492q0 -55 20 -105t58.5 -90t100 -64t137.5 -24 q151 0 233 83.5t82 199.5q0 74 -33 137.5t-106.5 106t-175.5 42.5q-149 0 -232.5 -85t-83.5 -201z" />
<glyph horiz-adv-x="1120" d="M27 1231v203h1009v-142l-706 -1292h-238l672 1231h-737z" />
<glyph horiz-adv-x="1173" d="M29 416q0 99 65 191t182 143q-55 22 -94.5 59.5t-58.5 80.5t-27 80.5t-8 73.5q1 79 27.5 146t71 113.5t103.5 79t123.5 48t131.5 15.5q110 0 199.5 -34.5t145 -92t85 -128.5t29.5 -149q0 -84 -49 -169t-132 -123q118 -45 180 -137.5t62 -196.5q0 -82 -33.5 -158 t-96 -137.5t-164 -98t-226.5 -36.5q-124 0 -224 35t-163 95t-96 137t-33 163zM233 414q0 -92 83.5 -164t228.5 -72q148 0 230.5 72t82.5 164q0 93 -82 161t-231 68q-146 0 -229 -68.5t-83 -160.5zM293 1047q0 -82 66.5 -147.5t185.5 -65.5q120 0 187 65.5t67 149.5 q0 97 -78 156t-176 59t-175 -60t-77 -157z" />
<glyph horiz-adv-x="1204" d="M37 950q0 76 20.5 148t64 135.5t104.5 111t148 75.5t189 28q127 0 229.5 -42.5t167 -113t98.5 -158.5t34 -184q0 -150 -88 -288l-472 -662h-256l353 500q-81 -30 -179.5 -24.5t-170.5 46.5q-117 67 -179.5 182.5t-62.5 245.5zM246 950q0 -74 33.5 -138t107.5 -107 t176 -43t176 43t108 107t34 138q0 118 -83.5 202.5t-234.5 84.5t-234 -84.5t-83 -202.5z" />
</font>
</defs>
</svg>
