<svg xmlns="http://www.w3.org/2000/svg" viewBox="0 0 1280 1362.3" preserveAspectRatio="none"><linearGradient id="A" gradientUnits="userSpaceOnUse" x1="46.187" y1="1091.931" x2="195.655" y2="913.802"><stop offset="0" stop-color="#44b80b"/><stop offset=".283" stop-color="#35b30d"/><stop offset=".826" stop-color="#0ea714"/><stop offset="1" stop-color="#00a316"/></linearGradient><path d="M0 917.9v135.3l222 58.2-95.8-255.9z" fill="url(#A)"/><linearGradient id="B" gradientUnits="userSpaceOnUse" x1="45.788" y1="788.049" x2="467.671" y2="285.268"><stop offset="0" stop-color="#44b80b"/><stop offset=".283" stop-color="#35b30d"/><stop offset=".826" stop-color="#0ea714"/><stop offset="1" stop-color="#00a316"/></linearGradient><path d="M471.5 684.7l47.9-249.5L361 195.8 0 438.7v80l126.2 336.8z" fill="url(#B)"/><linearGradient id="C" gradientUnits="userSpaceOnUse" x1="1068.118" y1="187.879" x2="1248.175" y2="-26.705"><stop offset="0" stop-color="#44b80b"/><stop offset=".283" stop-color="#35b30d"/><stop offset=".826" stop-color="#0ea714"/><stop offset="1" stop-color="#00a316"/></linearGradient><path d="M1280 0L932.4 74 1280 210.9z" fill="url(#C)"/><linearGradient id="D" gradientUnits="userSpaceOnUse" x1="1027.596" y1="221.014" x2="1430.437" y2="-259.073"><stop offset="0" stop-color="#44b80b"/><stop offset=".283" stop-color="#35b30d"/><stop offset=".826" stop-color="#0ea714"/><stop offset="1" stop-color="#00a316"/></linearGradient><path d="M1109.8 255.1l175.2 25.1v-661.3L886.4 23.3z" fill="url(#D)"/><linearGradient id="E" gradientUnits="userSpaceOnUse" x1="39.957" y1="129.661" x2="189.425" y2="-48.468"><stop offset="0" stop-color="#44b80b"/><stop offset=".283" stop-color="#35b30d"/><stop offset=".826" stop-color="#0ea714"/><stop offset="1" stop-color="#00a316"/></linearGradient><path d="M131.2-97.3L5-34.9V96.9L215.2 127z" fill="url(#E)"/><linearGradient id="F" gradientUnits="userSpaceOnUse" x1="398.667" y1="210.712" x2="772.02" y2="-234.233"><stop offset="0" stop-color="#44b80b"/><stop offset=".283" stop-color="#35b30d"/><stop offset=".826" stop-color="#0ea714"/><stop offset="1" stop-color="#00a316"/></linearGradient><path d="M476.4 164.4L881.3 21.7 637-347.6l-160.5 79.4-81 421.1z" fill="url(#F)"/><linearGradient id="G" gradientUnits="userSpaceOnUse" x1="750.651" y1="299.083" x2="1095.926" y2="-112.399"><stop offset="0" stop-color="#44b80b"/><stop offset=".283" stop-color="#35b30d"/><stop offset=".826" stop-color="#0ea714"/><stop offset="1" stop-color="#00a316"/></linearGradient><path d="M691.6 145.1l-154.7 28 570.4 81.7L886-50.2z" fill="url(#G)"/><linearGradient id="H" gradientUnits="userSpaceOnUse" x1="969.901" y1="172.6" x2="1372.74" y2="-307.484"><stop offset="0" stop-color="#44b80b"/><stop offset=".283" stop-color="#35b30d"/><stop offset=".826" stop-color="#0ea714"/><stop offset="1" stop-color="#00a316"/></linearGradient><path d="M1107.3 254.8l2.5.3L886.4 23.3l-2.4 2.5z" fill="url(#H)"/><linearGradient id="I" gradientUnits="userSpaceOnUse" x1="813.079" y1="359.494" x2="1106.428" y2="9.894"><stop offset="0" stop-color="#44b80b"/><stop offset=".283" stop-color="#35b30d"/><stop offset=".826" stop-color="#0ea714"/><stop offset="1" stop-color="#00a316"/></linearGradient><path d="M1107.3 254.8l2.5.3L886.4 23.3l-2.4 2.5z" fill="url(#I)"/><linearGradient id="J" gradientUnits="userSpaceOnUse" x1="506.937" y1="301.562" x2="880.289" y2="-143.382"><stop offset="0" stop-color="#44b80b"/><stop offset=".283" stop-color="#35b30d"/><stop offset=".826" stop-color="#0ea714"/><stop offset="1" stop-color="#00a316"/></linearGradient><path d="M536.9 173.1l154.7-28L884 25.8l-2.7-4.1-404.9 142.7z" fill="url(#J)"/><linearGradient id="K" gradientUnits="userSpaceOnUse" x1="604.901" y1="184.814" x2="898.252" y2="-164.789"><stop offset="0" stop-color="#44b80b"/><stop offset=".283" stop-color="#35b30d"/><stop offset=".826" stop-color="#0ea714"/><stop offset="1" stop-color="#00a316"/></linearGradient><path d="M536.9 173.1l154.7-28L884 25.8l-2.7-4.1-404.9 142.7z" fill="url(#K)"/><linearGradient id="L" gradientUnits="userSpaceOnUse" x1="155.897" y1="266.881" x2="551.8" y2="-204.938"><stop offset="0" stop-color="#44b80b"/><stop offset=".283" stop-color="#35b30d"/><stop offset=".826" stop-color="#0ea714"/><stop offset="1" stop-color="#00a316"/></linearGradient><path d="M476.5-268.2L131.2-97.3 49 149.8l470 78z" fill="url(#L)"/><linearGradient id="M" gradientUnits="userSpaceOnUse" x1="688.666" y1="255.116" x2="982.028" y2="-94.5"><stop offset="0" stop-color="#44b80b"/><stop offset=".283" stop-color="#35b30d"/><stop offset=".826" stop-color="#0ea714"/><stop offset="1" stop-color="#00a316"/></linearGradient><path d="M886.4 23.3l-2.4-2.5-2.7.9 2.7 4.1z" fill="url(#M)"/><linearGradient id="N" gradientUnits="userSpaceOnUse" x1="882.291" y1="24.362" x2="1389.696" y2="-580.34"><stop offset="0" stop-color="#44b80b"/><stop offset=".283" stop-color="#35b30d"/><stop offset=".826" stop-color="#0ea714"/><stop offset="1" stop-color="#00a316"/></linearGradient><path d="M886.4 23.3l-2.4-2.5-2.7.9 2.7 4.1z" fill="url(#N)"/><linearGradient id="O" gradientUnits="userSpaceOnUse" x1="456.661" y1="-284.773" x2="599.322" y2="-454.789"><stop offset="0" stop-color="#44b80b"/><stop offset=".283" stop-color="#35b30d"/><stop offset=".826" stop-color="#0ea714"/><stop offset="1" stop-color="#00a316"/></linearGradient><path d="M524.4-517.6l-47.9 249.4L637-347.6z" fill="url(#O)"/><linearGradient id="P" gradientUnits="userSpaceOnUse" x1="-40.482" y1="404.72" x2="228.294" y2="84.407"><stop offset="0" stop-color="#44b80b"/><stop offset=".283" stop-color="#35b30d"/><stop offset=".826" stop-color="#0ea714"/><stop offset="1" stop-color="#00a316"/></linearGradient><path d="M0 87v351.7l361-242.9z" fill="url(#P)"/><linearGradient id="Q" gradientUnits="userSpaceOnUse" x1="717.873" y1="1286.416" x2="935.995" y2="1026.468"><stop offset="0" stop-color="#44b80b"/><stop offset=".283" stop-color="#35b30d"/><stop offset=".826" stop-color="#0ea714"/><stop offset="1" stop-color="#00a316"/></linearGradient><path d="M640 1221.1l340.3-89.3L879 978.6z" fill="url(#Q)"/><linearGradient id="R" gradientUnits="userSpaceOnUse" x1="-76.646" y1="853.603" x2="119.952" y2="619.306"><stop offset="0" stop-color="#44b80b"/><stop offset=".283" stop-color="#35b30d"/><stop offset=".826" stop-color="#0ea714"/><stop offset="1" stop-color="#00a316"/></linearGradient><path d="M0 518.7v399.2l126.2-62.4z" fill="url(#R)"/><linearGradient id="S" gradientUnits="userSpaceOnUse" x1="187.931" y1="1082.808" x2="501.115" y2="709.57"><stop offset="0" stop-color="#44b80b"/><stop offset=".283" stop-color="#35b30d"/><stop offset=".826" stop-color="#0ea714"/><stop offset="1" stop-color="#00a316"/></linearGradient><path d="M471.5 684.7L126.2 855.5l95.8 255.9 159.3 41.8z" fill="url(#S)"/><linearGradient id="T" gradientUnits="userSpaceOnUse" x1="732.07" y1="855.355" x2="1239.457" y2="250.675"><stop offset="0" stop-color="#44b80b"/><stop offset=".283" stop-color="#35b30d"/><stop offset=".826" stop-color="#0ea714"/><stop offset="1" stop-color="#00a316"/></linearGradient><path d="M632 605.3l247 373.3 401-406.9v-287z" fill="url(#T)"/><linearGradient id="U" gradientUnits="userSpaceOnUse" x1="451.661" y1="668.074" x2="594.322" y2="498.058"><stop offset="0" stop-color="#44b80b"/><stop offset=".283" stop-color="#35b30d"/><stop offset=".826" stop-color="#0ea714"/><stop offset="1" stop-color="#00a316"/></linearGradient><path d="M471.5 684.7L632 605.3 519.4 435.2z" fill="url(#U)"/><linearGradient id="V" gradientUnits="userSpaceOnUse" x1="413.994" y1="346.745" x2="576.91" y2="152.589"><stop offset="0" stop-color="#44b80b"/><stop offset=".283" stop-color="#35b30d"/><stop offset=".826" stop-color="#0ea714"/><stop offset="1" stop-color="#00a316"/></linearGradient><path d="M574.2 150.3L361 195.8l158.4 239.4z" fill="url(#V)"/><linearGradient id="W" gradientUnits="userSpaceOnUse" x1="614.225" y1="590.405" x2="1076.176" y2="39.873"><stop offset="0" stop-color="#44b80b"/><stop offset=".283" stop-color="#35b30d"/><stop offset=".826" stop-color="#0ea714"/><stop offset="1" stop-color="#00a316"/></linearGradient><path d="M632 605.3l648-320.6v-73.8L932.4 74l-358.2 76.3-54.8 284.9z" fill="url(#W)"/><linearGradient id="X" gradientUnits="userSpaceOnUse" x1="1022.596" y1="1291.013" x2="1425.437" y2="810.927"><stop offset="0" stop-color="#44b80b"/><stop offset=".283" stop-color="#35b30d"/><stop offset=".826" stop-color="#0ea714"/><stop offset="1" stop-color="#00a316"/></linearGradient><path d="M1104.8 1325.1l175.2 25.1V688.9l-398.6 404.4z" fill="url(#X)"/><linearGradient id="Y" gradientUnits="userSpaceOnUse" x1="-28.362" y1="1147.511" x2="164.396" y2="917.791"><stop offset="0" stop-color="#44b80b"/><stop offset=".283" stop-color="#35b30d"/><stop offset=".826" stop-color="#0ea714"/><stop offset="1" stop-color="#00a316"/></linearGradient><path d="M0 779.8v387.1l210.2 30.1z" fill="url(#Y)"/><linearGradient id="Z" gradientUnits="userSpaceOnUse" x1="393.667" y1="1280.712" x2="767.02" y2="835.767"><stop offset="0" stop-color="#44b80b"/><stop offset=".283" stop-color="#35b30d"/><stop offset=".826" stop-color="#0ea714"/><stop offset="1" stop-color="#00a316"/></linearGradient><path d="M471.4 1234.4l404.9-142.7L632 722.4l-160.5 79.4-81 421.1z" fill="url(#Z)"/><linearGradient id="a" gradientUnits="userSpaceOnUse" x1="741.698" y1="1373.795" x2="1035.05" y2="1024.192"><stop offset="0" stop-color="#44b80b"/><stop offset=".283" stop-color="#35b30d"/><stop offset=".826" stop-color="#0ea714"/><stop offset="1" stop-color="#00a316"/></linearGradient><path d="M686.6 1215.1l-154.7 28 570.4 81.7-223.3-229z" fill="url(#a)"/><linearGradient id="b" gradientUnits="userSpaceOnUse" x1="964.901" y1="1242.601" x2="1367.74" y2="762.516"><stop offset="0" stop-color="#44b80b"/><stop offset=".283" stop-color="#35b30d"/><stop offset=".826" stop-color="#0ea714"/><stop offset="1" stop-color="#00a316"/></linearGradient><path d="M1102.3 1324.8l2.5.3-223.4-231.8-2.4 2.5z" fill="url(#b)"/><linearGradient id="c" gradientUnits="userSpaceOnUse" x1="808.079" y1="1429.494" x2="1101.428" y2="1079.894"><stop offset="0" stop-color="#44b80b"/><stop offset=".283" stop-color="#35b30d"/><stop offset=".826" stop-color="#0ea714"/><stop offset="1" stop-color="#00a316"/></linearGradient><path d="M1102.3 1324.8l2.5.3-223.4-231.8-2.4 2.5z" fill="url(#c)"/><linearGradient id="d" gradientUnits="userSpaceOnUse" x1="501.937" y1="1371.562" x2="875.289" y2="926.618"><stop offset="0" stop-color="#44b80b"/><stop offset=".283" stop-color="#35b30d"/><stop offset=".826" stop-color="#0ea714"/><stop offset="1" stop-color="#00a316"/></linearGradient><path d="M531.9 1243.1l154.7-28L879 1095.8l-2.7-4.1-404.9 142.7z" fill="url(#d)"/><linearGradient id="e" gradientUnits="userSpaceOnUse" x1="599.901" y1="1254.814" x2="893.252" y2="905.211"><stop offset="0" stop-color="#44b80b"/><stop offset=".283" stop-color="#35b30d"/><stop offset=".826" stop-color="#0ea714"/><stop offset="1" stop-color="#00a316"/></linearGradient><path d="M531.9 1243.1l154.7-28L879 1095.8l-2.7-4.1-404.9 142.7z" fill="url(#e)"/><linearGradient id="f" gradientUnits="userSpaceOnUse" x1="981.443" y1="1132.739" x2="1381.039" y2="656.519"><stop offset="0" stop-color="#44b80b"/><stop offset=".283" stop-color="#35b30d"/><stop offset=".826" stop-color="#0ea714"/><stop offset="1" stop-color="#00a316"/></linearGradient><path d="M1280 571.7L879 978.6l101.3 153.2 299.7-78.6z" fill="url(#f)"/><linearGradient id="g" gradientUnits="userSpaceOnUse" x1="519.749" y1="1346.18" x2="930.93" y2="856.153"><stop offset="0" stop-color="#44b80b"/><stop offset=".283" stop-color="#35b30d"/><stop offset=".826" stop-color="#0ea714"/><stop offset="1" stop-color="#00a316"/></linearGradient><path d="M471.5 684.7L368 1218.8l272 2.3 501 103.7-509-719.5z" fill="url(#g)"/><linearGradient id="h" gradientUnits="userSpaceOnUse" x1="92.403" y1="1123.908" x2="465.023" y2="679.837"><stop offset="0" stop-color="#44b80b"/><stop offset=".283" stop-color="#35b30d"/><stop offset=".826" stop-color="#0ea714"/><stop offset="1" stop-color="#00a316"/></linearGradient><path d="M471 684.8l-471 95L210.2 1197l180.3 25.9z" fill="url(#h)"/><linearGradient id="i" gradientUnits="userSpaceOnUse" x1="683.666" y1="1325.116" x2="977.028" y2="975.5"><stop offset="0" stop-color="#44b80b"/><stop offset=".283" stop-color="#35b30d"/><stop offset=".826" stop-color="#0ea714"/><stop offset="1" stop-color="#00a316"/></linearGradient><path d="M881.4 1093.3l-2.4-2.5-2.7.9 2.7 4.1z" fill="url(#i)"/><linearGradient id="j" gradientUnits="userSpaceOnUse" x1="877.291" y1="1094.362" x2="1384.696" y2="489.66"><stop offset="0" stop-color="#44b80b"/><stop offset=".283" stop-color="#35b30d"/><stop offset=".826" stop-color="#0ea714"/><stop offset="1" stop-color="#00a316"/></linearGradient><path d="M881.4 1093.3l-2.4-2.5-2.7.9 2.7 4.1z" fill="url(#j)"/></svg>