<svg xmlns="http://www.w3.org/2000/svg" viewBox="0 0 1278 487" preserveAspectRatio="none"><linearGradient id="A" gradientUnits="userSpaceOnUse" x1="981.443" y1="398.892" x2="1381.039" y2="-77.329"><stop offset="0" stop-color="#44b80b"/><stop offset=".283" stop-color="#35b30d"/><stop offset=".826" stop-color="#0ea714"/><stop offset="1" stop-color="#00a316"/></linearGradient><path d="M1280-162.1L879 244.8l101.3 153.1 299.7-78.6z" fill="url(#A)"/><linearGradient id="B" gradientUnits="userSpaceOnUse" x1="46.187" y1="358.084" x2="195.655" y2="179.955"><stop offset="0" stop-color="#44b80b"/><stop offset=".283" stop-color="#35b30d"/><stop offset=".826" stop-color="#0ea714"/><stop offset="1" stop-color="#00a316"/></linearGradient><path d="M0 184.1v135.2l222 58.3-95.8-255.9z" fill="url(#B)"/><linearGradient id="C" gradientUnits="userSpaceOnUse" x1="45.788" y1="54.201" x2="467.671" y2="-448.579"><stop offset="0" stop-color="#44b80b"/><stop offset=".283" stop-color="#35b30d"/><stop offset=".826" stop-color="#0ea714"/><stop offset="1" stop-color="#00a316"/></linearGradient><path d="M471.5-49.2l47.9-249.4L361-538.1 0-295.2v80l126.2 336.9z" fill="url(#C)"/><linearGradient id="D" gradientUnits="userSpaceOnUse" x1="395.453" y1="431.209" x2="768.805" y2="-13.734"><stop offset="0" stop-color="#44b80b"/><stop offset=".283" stop-color="#35b30d"/><stop offset=".826" stop-color="#0ea714"/><stop offset="1" stop-color="#00a316"/></linearGradient><path d="M471.5-49.2l-90.2 468.6L640 487.2l239-242.4-247-373.4z" fill="url(#D)"/><linearGradient id="E" gradientUnits="userSpaceOnUse" x1="717.873" y1="552.569" x2="935.995" y2="292.621"><stop offset="0" stop-color="#44b80b"/><stop offset=".283" stop-color="#35b30d"/><stop offset=".826" stop-color="#0ea714"/><stop offset="1" stop-color="#00a316"/></linearGradient><path d="M640 487.2l340.3-89.3L879 244.8z" fill="url(#E)"/><linearGradient id="F" gradientUnits="userSpaceOnUse" x1="-76.646" y1="119.755" x2="119.952" y2="-114.542"><stop offset="0" stop-color="#44b80b"/><stop offset=".283" stop-color="#35b30d"/><stop offset=".826" stop-color="#0ea714"/><stop offset="1" stop-color="#00a316"/></linearGradient><path d="M0-215.2v399.3l126.2-62.4z" fill="url(#F)"/><linearGradient id="G" gradientUnits="userSpaceOnUse" x1="187.931" y1="348.96" x2="501.115" y2="-24.278"><stop offset="0" stop-color="#44b80b"/><stop offset=".283" stop-color="#35b30d"/><stop offset=".826" stop-color="#0ea714"/><stop offset="1" stop-color="#00a316"/></linearGradient><path d="M471.5-49.2L126.2 121.7 222 377.6l159.3 41.8z" fill="url(#G)"/><linearGradient id="H" gradientUnits="userSpaceOnUse" x1="732.07" y1="121.507" x2="1239.457" y2="-483.172"><stop offset="0" stop-color="#44b80b"/><stop offset=".283" stop-color="#35b30d"/><stop offset=".826" stop-color="#0ea714"/><stop offset="1" stop-color="#00a316"/></linearGradient><path d="M632-128.6l247 373.4 401-406.9v-287.1z" fill="url(#H)"/></svg>