<?xml version="1.0" encoding="utf-8"?>
<!-- Generator: Adobe Illustrator 22.0.1, SVG Export Plug-In . SVG Version: 6.00 Build 0)  -->
<svg version="1.1" id="Слой_1" xmlns="http://www.w3.org/2000/svg" xmlns:xlink="http://www.w3.org/1999/xlink" x="0px" y="0px"
	 viewBox="0 0 265 254.2" style="enable-background:new 0 0 265 254.2;" xml:space="preserve">
<style type="text/css">
	.st0{fill:#CF2D46;}
	.st1{fill:url(#SVGID_1_);}
	.st2{fill:#19626C;}
	.st3{fill:#16747E;}
	.st4{fill:#DE1F3B;}
	.st5{fill:#EF7F1A;}
	.st6{fill:#D9DB2C;}
	.st7{fill:#E31E24;}
	.st8{fill:#E7336D;}
	.st9{fill:#9AC32D;}
	.st10{fill:#44B7A6;}
	.st11{fill:#F9C63B;}
	.st12{fill:#2C3A4A;}
	.st13{fill:#FFED00;}
	.st14{fill:#00A1E0;}
	.st15{fill:#A2C626;}
	.st16{fill:#FEFEFE;}
</style>
<g id="Слой_x0020_1">
	<polygon class="st0" points="130.8,249.5 183.4,137 183.4,137 	"/>
	
		<linearGradient id="SVGID_1_" gradientUnits="userSpaceOnUse" x1="10418.9434" y1="-9235.4297" x2="15608.3828" y2="-9235.4297" gradientTransform="matrix(2.834646e-02 0 0 -2.834646e-02 -164.5333 -73.6714)">
		<stop  offset="0" style="stop-color:#CF2A3E"/>
		<stop  offset="1" style="stop-color:#DB2A3E"/>
	</linearGradient>
	<path class="st1" d="M158.8,249.5L158.8,249.5l16.9-70.5l9.7-40.3l0,0l-9.7,40.3L158.8,249.5L158.8,249.5z M186.3,135.1l2-8.3v0
		L186.3,135.1L186.3,135.1z"/>
	<polygon class="st2" points="247.3,122.4 239.7,120 247.3,118.7 	"/>
	<polygon class="st3" points="239.7,120 238.2,119.5 247.3,117.5 247.3,118.7 	"/>
	<polygon class="st2" points="252.3,148.7 246.3,147.2 252.1,147.6 	"/>
	<polygon class="st3" points="252.1,147.6 246.3,147.2 201.7,135.8 250.3,137.6 	"/>
	<polygon class="st3" points="209.9,119.8 230.4,106.8 231.1,113.6 	"/>
	<polygon class="st3" points="243.9,211.7 207.8,180 243.9,198.6 	"/>
	<path class="st2" d="M205.1,101.3l4.4-5.9l4.7-2.7L205.1,101.3z M233.2,63.3l25.9-35l-5.8,19.8L233.2,63.3z"/>
	<polygon class="st3" points="209.5,95.4 233.2,63.3 253.4,48.2 250.3,58.5 214.2,92.7 	"/>
	<path class="st2" d="M207.2,64.9L207.2,64.9L207.2,64.9L207.2,64.9L207.2,64.9z M230.8,17.6l1.8-3.6l-0.2,1.6L230.8,17.6z"/>
	<polygon class="st3" points="207.2,64.8 230.8,17.6 232.4,15.7 230.9,27.5 207.2,64.8 	"/>
	<polygon class="st2" points="66.3,105.2 19.1,81.6 18.4,79.7 63.6,103.3 	"/>
	<polygon class="st3" points="63.6,103.3 18.4,79.7 15,69.5 	"/>
	<polygon class="st2" points="57.2,128.4 27.1,124.1 27.1,118.5 	"/>
	<polygon class="st2" points="42.8,155.1 43,153.8 60.1,152 	"/>
	<polygon class="st3" points="42.1,159.8 42.8,155.1 60.1,152 68.3,151.2 	"/>
	<polygon class="st2" points="11.4,231.8 11.7,230.4 16.8,226.5 	"/>
	<polygon class="st3" points="11.7,230.4 16.2,210.3 66.8,178.3 16.8,226.5 	"/>
	<polygon class="st2" points="52,239.2 66.7,221 82.6,204.1 60,237.4 	"/>
	<polygon class="st3" points="49,239.8 66.7,221 52,239.2 	"/>
	<polygon class="st2" points="91.5,235.5 102.4,214.6 100,235.5 	"/>
	<polygon class="st2" points="65,53 59.2,45.6 62,44.2 	"/>
	<polygon class="st3" points="69.1,65 57,46.7 59.2,45.6 65,53 	"/>
	<polygon class="st2" points="164.8,41.7 170.5,18.8 175.1,20.2 	"/>
	<polygon class="st2" points="59.5,169.8 55.2,164.9 58.4,163.8 61.3,163.6 	"/>
	<polygon class="st3" points="55.2,164.9 54.4,164.1 58.4,163.8 	"/>
	<polygon class="st2" points="200.1,172 195.1,166.2 201.9,165.8 	"/>
	<polygon class="st2" points="189,77.5 187.4,75.6 190.7,75.4 	"/>
	<polygon class="st3" points="191.6,74.3 188.2,70.4 189.9,68.3 193.4,68.1 	"/>
	<polygon class="st2" points="89.3,82.2 84.3,76.5 91.1,76.1 	"/>
	<polygon class="st2" points="29.1,154 24.1,148.3 31,147.9 	"/>
	<polygon class="st3" points="233.1,169.2 227.2,162.6 233.6,163 	"/>
	<polygon class="st3" points="216.2,222.5 211.7,216.8 219.4,219.2 	"/>
	<polygon class="st2" points="43.7,62.9 39.2,62.1 43.2,59.7 44.2,60.6 	"/>
	<polygon class="st3" points="44.2,60.6 43.2,59.7 44.6,58.8 	"/>
	<polygon class="st2" points="30.3,182 31.3,177.9 34.9,178.7 	"/>
	<polygon class="st3" points="204.4,160.5 205.3,156.4 209,157.2 	"/>
	<polygon class="st3" points="40.9,143.7 41.8,139.6 45.4,140.4 	"/>
	<path class="st3" d="M132.5,139.3L132.5,139.3l0.2-0.1l-0.1,0.1L132.5,139.3z M132.4,139.3l-0.3-0.1l0.1,0L132.4,139.3L132.4,139.3
		z M132.4,139.3l-0.2-0.1l0,0L132.4,139.3L132.4,139.3z M132.4,139.3l-0.1-0.1l0,0L132.4,139.3L132.4,139.3z M132.4,139.3l-0.1-0.1
		l0,0L132.4,139.3L132.4,139.3L132.4,139.3z M132.8,139.3L132.8,139.3l0.1-0.1L132.8,139.3L132.8,139.3L132.8,139.3z M132.4,139.3
		l0-0.2l0,0L132.4,139.3L132.4,139.3L132.4,139.3z M132.5,139.2l0-0.2l0,0L132.5,139.2L132.5,139.2L132.5,139.2z M133,139.2
		L133,139.2l0.1-0.1L133,139.2L133,139.2z M132.5,139.2l0.1-0.2l0.1,0L132.5,139.2L132.5,139.2L132.5,139.2z M133.1,139.2l0-0.1l0,0
		L133.1,139.2L133.1,139.2z M133.2,139.2l0-0.1l0,0L133.2,139.2L133.2,139.2L133.2,139.2z M132.6,139.2l0.1-0.2l0.1,0L132.6,139.2
		L132.6,139.2z M133.3,139.2l-0.1-0.1l0,0L133.3,139.2L133.3,139.2z M132.7,139.2l0.4-0.3l-0.2,0.2L132.7,139.2L132.7,139.2z
		 M133.4,139.2l-0.1-0.1l0,0L133.4,139.2L133.4,139.2z M131.6,139.1l-1-0.2l0.6,0l0.6,0.2L131.6,139.1z M133.6,139.1l-0.2-0.1l0.1,0
		l0.3,0.1L133.6,139.1L133.6,139.1z M132,139.1l-0.4-0.2l0.2,0L132,139.1L132,139.1z M134,139.1l-0.4-0.1l0.4-0.1l0.9,0.1L134,139.1
		L134,139.1z M132.1,139l-0.2-0.2l0.2,0L132.1,139L132.1,139z M132.9,139l0.1-0.1l0.1,0L132.9,139z M132.3,139l-0.1-0.2l0.1,0
		L132.3,139L132.3,139L132.3,139z M133,139l0.1-0.1l-0.1,0l0.2-0.1l0.2,0l-0.2,0.1l-0.1,0l0.1,0l0,0l-0.1,0l0,0.1l0,0l0-0.1l0,0.1
		l0,0l0-0.1L133,139L133,139l0.1-0.1L133,139L133,139L133,139z M132.4,139l0-0.2l0.1,0L132.4,139L132.4,139z M132.5,139l0-0.2l0.1,0
		L132.5,139L132.5,139L132.5,139z M132.6,139l0.1-0.2l0.1,0L132.6,139L132.6,139z M132.8,138.9l0.1-0.2l0.1,0L132.8,138.9
		L132.8,138.9L132.8,138.9z M133.2,138.9L133.2,138.9L133.2,138.9L133.2,138.9L133.2,138.9z M133.2,138.9L133.2,138.9L133.2,138.9
		L133.2,138.9z M133.1,138.2l-0.2,0l45.7-98.6l22.1-5.9L133.1,138.2L133.1,138.2L133.1,138.2z"/>
	<path class="st3" d="M133.4,138.2l42.2-52.2l14-3.6l-55.9,55.8L133.4,138.2L133.4,138.2z M132.8,138.2l-0.2,0l11.8-89.4l14.9-4
		L132.8,138.2z M132.4,138.2l-0.1,0l-11.1-83.3l9.1-2.4L132.4,138.2z"/>
	<path class="st3" d="M134,138.2l70.8-53.4v13.3l-70.2,40L134,138.2L134,138.2z M132,138.1l-0.2,0l-27.6-52.2c0-1.9,0-3.8,0-5.7
		c0.2-0.1,0.4-0.1,0.6-0.2l1.1-18L132,138.1L132,138.1z M131.5,138.1l-0.5,0l-35.2-31.4l7.5-1.9l0.2-2.5L131.5,138.1L131.5,138.1z
		 M130.5,138l-0.6,0l-51.3-26.8l8.5-2.2L130.5,138L130.5,138z"/>
	<path class="st3" d="M119,245.5L119,245.5L119,245.5L119,245.5L119,245.5z M113.2,208.9l19.8-69.7l0-0.1l0-0.2l0-0.1l0,0.1l0,0.2
		l0,0.1l-8.8,66.8L113.2,208.9z"/>
	<polygon class="st3" points="86.3,215.9 86.3,211.1 132.9,139.3 132.9,139.2 133,139 133.1,138.9 133.1,139 133,139.1 133,139.2 
		98.9,212.6 	"/>
	<path class="st3" d="M86.3,196.8v-11.2l46.4-46.3l0.1-0.1l0.2-0.2l0.2-0.2L133,139l-0.1,0.2l-0.1,0.1L86.3,196.8L86.3,196.8z
		 M86.3,174.2v-4.7l19.5-15l26.5-15.1l0,0l0,0l0,0l0,0l0,0l0,0l0,0l0,0l0,0l0,0l0,0l0,0l0,0l0,0l0.1,0l0.2-0.1l0.3-0.2l-0.4,0.3
		l-0.1,0.1l0,0L86.3,174.2L86.3,174.2z"/>
	<path class="st3" d="M76.2,107.6c-1.6,0-2.4-1.5-2.4-4.3c0-1.2,0-2.3,0-3.3l2.1,1.4c0,0.5,0,1,0,1.5c0,1.2,0.3,1.7,0.8,1.7
		c0.1,0,0.2,0,0.3,0c0.6-0.2,1-0.7,1.1-1.8l1.9,1.2c-0.5,1.8-1.5,3-2.9,3.4C76.7,107.6,76.4,107.6,76.2,107.6z M80.2,92.7L78,90.7
		c-0.1-0.6-0.4-0.9-0.8-0.9c-0.1,0-0.1,0-0.2,0l-1.9-1.7c0.5-0.6,1.1-1,1.8-1.1c0.3-0.1,0.5-0.1,0.8-0.1c1.6,0,2.4,1.5,2.4,4.3
		C80.2,91.8,80.2,92.2,80.2,92.7L80.2,92.7z"/>
	<path class="st2" d="M89.3,104.1c0-1.1,0-2.2,0-3.3l2.8,2.5C91.1,103.6,90.4,103.8,89.3,104.1z M95.8,92.4l-2.1-2.7
		c0-0.6,0-1.2,0-2c0-1.2-0.3-1.7-0.8-1.7c-0.1,0-0.2,0-0.3,0c-0.5,0.1-0.7,0.2-1.2,0.3c0,0.1,0,0.3,0,0.4l-2.1-2.7c0,0,0,0,0,0
		c1.3-0.3,2-0.5,3.3-0.9c0.3-0.1,0.6-0.1,0.8-0.1c1.6,0,2.3,1.5,2.3,4.2C95.8,89.4,95.8,90.9,95.8,92.4L95.8,92.4z"/>
	<path class="st3" d="M92.1,103.3l-2.8-2.5c0-5.6,0-11.2,0-16.7l2.1,2.7c0,5.4,0,8.3,0,13.9c0.5-0.1,0.7-0.2,1.2-0.3
		c0.7-0.2,1.1-0.8,1.1-2.2c0-3.5,0-5.5,0-8.4l2.1,2.7c0,1.5,0,3,0,5c0,3.2-1,5.2-3.2,5.8C92.4,103.3,92.3,103.3,92.1,103.3z"/>
	<polygon class="st4" points="243.1,112.5 233.9,114.6 243.1,117.4 	"/>
	<polygon class="st5" points="197.5,130.8 248.1,143.8 246.1,132.7 	"/>
	<polygon class="st6" points="205.7,114.8 226.2,101.9 226.9,108.7 	"/>
	<polygon class="st7" points="203.6,175 239.6,193.7 239.6,206.7 	"/>
	<polygon class="st8" points="200.9,96.3 246.1,53.6 254.9,23.4 	"/>
	<polygon class="st6" points="202.9,59.9 226.7,22.6 228.4,9.1 	"/>
	<polygon class="st9" points="62.1,100.2 10.8,64.6 14.8,76.6 	"/>
	<polygon class="st10" points="53,123.4 22.9,113.6 22.9,119.1 	"/>
	<polygon class="st11" points="64,146.2 38.8,148.8 37.9,154.8 	"/>
	<polygon class="st8" points="62.6,173.3 11.9,205.4 7.1,226.9 	"/>
	<polygon class="st10" points="78.3,199.2 44.8,234.9 55.7,232.4 	"/>
	<polygon class="st11" points="98.2,209.6 87.2,230.6 95.8,230.5 	"/>
	<polygon class="st10" points="112.6,61.3 96.8,10.1 103.7,7.7 	"/>
	<polygon class="st11" points="64.8,60 52.8,41.8 57.8,39.2 	"/>
	<polygon class="st7" points="160.6,36.8 166.3,13.9 170.9,15.2 	"/>
	<polygon class="st4" points="50.2,159.1 57,158.7 55.2,164.9 	"/>
	<polygon class="st4" points="190.8,161.3 197.7,160.9 195.9,167 	"/>
	<polygon class="st4" points="183.2,70.7 190,70.2 188.2,76.4 	"/>
	<polygon class="st10" points="80,71.5 86.9,71.1 85.1,77.3 	"/>
	<polygon class="st10" points="19.9,143.3 26.7,142.9 24.9,149.1 	"/>
	<polygon class="st4" points="223,157.7 228.9,164.2 229.4,158.1 	"/>
	<polygon class="st11" points="207.4,211.8 212,217.6 215.2,214.3 	"/>
	<polygon class="st11" points="34.9,57.1 40.4,53.8 39.5,57.9 	"/>
	<polygon class="st11" points="27,172.9 30.7,173.8 26.1,177 	"/>
	<polygon class="st11" points="201.1,151.5 204.7,152.3 200.2,155.6 	"/>
	<polygon class="st11" points="37.5,134.7 41.2,135.5 36.6,138.8 	"/>
	<polygon class="st12" points="109.9,242.4 182.7,185.5 182.7,138.9 	"/>
	<polygon class="st12" points="195.7,121.8 182.7,138.9 77.2,166.3 195.7,75.4 	"/>
	<polygon class="st13" points="81.3,60.6 198.6,29.2 148.4,110.2 179,135.1 120.6,224.2 129.1,149.2 75.8,148.1 	"/>
	<polygon class="st14" points="195.7,121.8 64.2,155.9 64.2,109.4 195.7,75.4 	"/>
	<polygon class="st14" points="182.7,185.3 77.2,212.8 77.2,166.3 182.7,138.9 	"/>
	<path class="st15" d="M100.5,140l-7.6-33l-5.2,1.3l-7.6,13.8l6.5,4.1l2-3.3l4.4,18.9L100.5,140L100.5,140z M111.6,110.6
		c3.4-0.8,5.9,2.3,7.2,7.9c1.2,5,0.5,9.5-3,10.3c-3.3,0.8-5.9-2.8-7.1-7.9C107.5,115.3,108.3,111.4,111.6,110.6L111.6,110.6z
		 M117.6,136.5c8.6-2.1,11.1-11,9.1-19.9c-2.1-9.2-8.3-15.9-16.9-13.8c-8.6,2.1-11.1,10.9-8.9,20.1
		C102.9,131.8,109.1,138.6,117.6,136.5z M140.7,103.5c3.4-0.8,5.9,2.3,7.2,7.9c1.2,5,0.5,9.5-3,10.3c-3.3,0.8-5.9-2.8-7.1-7.9
		C136.5,108.2,137.4,104.3,140.7,103.5z M146.7,129.4c8.6-2.1,11.1-11,9.1-19.9c-2.1-9.2-8.3-15.9-16.9-13.8
		c-8.6,2.1-11.1,10.9-8.9,20.1C132,124.7,138.1,131.5,146.7,129.4L146.7,129.4z M169.8,96.5c3.4-0.8,5.9,2.3,7.2,7.9
		c1.2,5,0.5,9.5-3,10.3c-3.3,0.8-5.9-2.8-7.1-7.9C165.6,101.2,166.5,97.3,169.8,96.5z M175.8,122.4c8.6-2.1,11.1-11,9.1-19.9
		c-2.1-9.2-8.3-15.9-16.9-13.8c-8.6,2.1-11.1,10.9-8.9,20.1C161.1,117.7,167.2,124.5,175.8,122.4L175.8,122.4z"/>
	<path class="st15" d="M87.2,177.7l3.9,17.1l4.1-1l-1.2-5.1l2.3-0.6c7.8-1.9,5-13.9-2.8-12L87.2,177.7L87.2,177.7z M93.2,184.8
		l-0.9-4l2.3-0.6c2.5-0.6,3.4,3.4,0.9,4L93.2,184.8z M111.5,189.8l3.5-18.8l-4.5,1.1l-0.7,4l-0.4,3.5l-2.1-3l-2.5-3.1l-4.5,1.1
		l7.9,9.9l-1.1,6.4L111.5,189.8z M128.3,167.7l-11.7,2.8l3.9,17l7.6-1.9c3.5-0.8,4.6-4,4-6.8c-0.7-2.9-3.3-5-6.5-4.2l-3.6,0.9
		l-0.5-2.1l7.7-1.9L128.3,167.7L128.3,167.7z M122.9,179.6l3.6-0.9c1.8-0.4,2.5,2.7,0.7,3.1l-3.6,0.9L122.9,179.6z M146.3,181.3
		l4.6-1.1L140,164.7l-2.9,0.7l-2.7,18.8l4.3-1.1l1-7.4l0.4-3.9l2.1,3.4L146.3,181.3z M154.6,172.5l6.7-1.6l-0.9-4l-6.7,1.6l-0.6-2.5
		l6.9-1.7l-0.9-4l-10.9,2.7L152,180l11-2.7l-0.9-4l-6.9,1.7L154.6,172.5L154.6,172.5z M163.5,154.7l0.8,3.4l6.8-1.7l-0.8-3.4
		L163.5,154.7L163.5,154.7z M177.5,173.8l-3.9-17.1l-2.8,0.7l-4.1,10.1l-2-8.6l-4,1l3.9,17.1l2.7-0.7l4.2-10.1l2,8.6L177.5,173.8
		L177.5,173.8z"/>
	<path class="st16" d="M84.8,178.3l3.9,17.1l4.1-1l-1.2-5.1l2.3-0.6c7.8-1.9,5-13.9-2.8-12L84.8,178.3L84.8,178.3z M90.8,185.3
		l-0.9-4l2.3-0.6c2.5-0.6,3.4,3.4,0.9,4L90.8,185.3z M109.1,190.4l3.5-18.8l-4.5,1.1l-0.7,4l-0.4,3.5l-2.1-3l-2.5-3.1l-4.5,1.1
		l7.9,9.9l-1.1,6.4L109.1,190.4L109.1,190.4z M125.9,168.3l-11.7,2.8l3.9,17l7.6-1.9c3.5-0.8,4.6-4,4-6.8c-0.7-2.9-3.3-5-6.5-4.2
		l-3.6,0.9l-0.5-2.1l7.7-1.9L125.9,168.3L125.9,168.3z M120.5,180.2l3.6-0.9c1.8-0.4,2.5,2.7,0.7,3.1l-3.6,0.9L120.5,180.2z
		 M144,181.9l4.6-1.1l-10.9-15.5l-2.9,0.7l-2.7,18.8l4.3-1.1l1-7.4l0.4-3.9l2.1,3.4L144,181.9z M152.2,173.1l6.7-1.6l-0.9-4
		l-6.7,1.6l-0.6-2.5l6.9-1.7l-0.9-4l-10.9,2.7l3.9,17.1l11-2.7l-0.9-4l-6.9,1.7L152.2,173.1L152.2,173.1z M161.1,155.3l0.8,3.4
		l6.8-1.7l-0.8-3.4L161.1,155.3z M175.1,174.4l-3.9-17.1l-2.8,0.7l-4.1,10.1l-2-8.6l-4,1l3.9,17l2.7-0.7l4.2-10.1l2,8.6L175.1,174.4
		z"/>
	<path class="st16" d="M97.4,140.8l-7.6-33l-5.2,1.3l-7.6,13.8l6.5,4.1l2-3.3l4.4,18.9L97.4,140.8z M108.5,111.4
		c3.4-0.8,5.9,2.3,7.2,7.9c1.2,5,0.5,9.5-3,10.3c-3.3,0.8-5.9-2.8-7.1-7.9C104.4,116.1,105.2,112.2,108.5,111.4L108.5,111.4z
		 M114.5,137.4c8.6-2.1,11.1-11,9.1-19.9c-2.1-9.2-8.3-15.9-16.9-13.8c-8.6,2.1-11.1,10.9-8.9,20.1
		C99.9,132.6,106,139.4,114.5,137.4L114.5,137.4z M137.6,104.4c3.4-0.8,5.9,2.3,7.2,7.9c1.2,5,0.5,9.5-3,10.3
		c-3.3,0.8-5.9-2.8-7.1-7.9C133.5,109.1,134.3,105.2,137.6,104.4L137.6,104.4z M143.6,130.3c8.6-2.1,11.1-11,9.1-19.9
		c-2.1-9.2-8.3-15.9-16.9-13.8c-8.6,2.1-11.1,10.9-8.9,20.1C128.9,125.6,135,132.4,143.6,130.3z M166.7,97.3
		c3.4-0.8,5.9,2.3,7.2,7.9c1.2,5,0.5,9.5-3,10.3c-3.3,0.8-5.9-2.8-7.1-7.9C162.5,102,163.4,98.1,166.7,97.3L166.7,97.3z
		 M172.7,123.3c8.6-2.1,11.1-11,9.1-19.9c-2.1-9.2-8.3-15.9-16.9-13.8c-8.6,2.1-11.1,10.9-8.9,20.1
		C158,118.5,164.1,125.3,172.7,123.3L172.7,123.3z"/>
	<path class="st15" d="M75.5,90.8l-3.4-15.7L59.4,78l1.6,11.2c0.3,2,0.4,3.8,0,4.9L59.2,95l1.5,7l4.8-1.1L64.8,98l8.5-1.9L74,99
		l4.6-1l-1.6-7.5L75.5,90.8L75.5,90.8z M66,92.9c0.4-1.7,0.1-3.6-1.2-11.2l3.4-0.8l2.4,11L66,92.9z M94.3,91.4l5.5-1.2L87.1,71.5
		l-3.5,0.8l-3.5,22.3l5.2-1.2l0.5-3.2l6.8-1.5L94.3,91.4L94.3,91.4z M87.2,80l2.5,4.1l0.2,0.3l-3.3,0.7l0.1-0.5L87.2,80L87.2,80z
		 M96.7,69.5l4.4,20.3l4.8-1.1l-1.3-6l2.7-0.6c9.3-2.1,6.2-16.4-3.1-14.3L96.7,69.5L96.7,69.5z M103.6,78.1l-1-4.8l2.7-0.6
		c3-0.7,4,4.1,1,4.8L103.6,78.1z M132.7,82.7l-4.4-20.3l-3.4,0.8l-5,11.9l-2.2-10.3l-4.8,1.1l4.4,20.3l3.2-0.7l5.1-12l2.2,10.3
		L132.7,82.7L132.7,82.7z M137.3,71.1l3.8,3.7l2.7-0.6l1.9-5l2.2,10l4.8-1.1l-4.4-20.3l-3.8,0.9l-3.5,9.1l-6.9-6.7l-3.9,0.9
		l4.4,20.3l4.8-1.1L137.3,71.1L137.3,71.1z"/>
	<path class="st16" d="M73.1,91l-3.4-15.7L57,78.2l1.6,11.2c0.3,2,0.4,3.8,0,4.9l-1.9,0.9l1.5,7l4.8-1.1l-0.6-2.9l8.5-1.9l0.6,2.9
		l4.6-1l-1.6-7.5L73.1,91L73.1,91z M63.6,93.2c0.4-1.7,0.1-3.6-1.2-11.2l3.4-0.8l2.4,11L63.6,93.2z M91.9,91.6l5.5-1.2L84.7,71.7
		l-3.5,0.8l-3.5,22.3l5.2-1.2l0.5-3.2l6.8-1.5L91.9,91.6L91.9,91.6z M84.8,80.3l2.5,4.1l0.2,0.3l-3.3,0.7l0.1-0.5
		C84.2,84.9,84.8,80.3,84.8,80.3z M94.3,69.8l4.4,20.3l4.8-1.1l-1.3-6l2.7-0.6c9.3-2.1,6.2-16.4-3.1-14.3L94.3,69.8L94.3,69.8z
		 M101.2,78.3l-1-4.8l2.7-0.6c3-0.7,4,4.1,1,4.8L101.2,78.3z M130.3,83L126,62.7l-3.4,0.8l-5,11.9L115.4,65l-4.8,1.1l4.4,20.3
		l3.2-0.7l5.1-12l2.2,10.3L130.3,83L130.3,83z M134.9,71.4l3.8,3.7l2.7-0.6l1.9-5l2.2,10l4.8-1.1L146,58.2l-3.8,0.9l-3.5,9l-6.9-6.7
		l-3.9,0.9l4.4,20.3l4.8-1.1L134.9,71.4z"/>
</g>
</svg>
