<?xml version="1.0" encoding="UTF-8"?>
<!DOCTYPE svg PUBLIC "-//W3C//DTD SVG 1.1//EN" "http://www.w3.org/Graphics/SVG/1.1/DTD/svg11.dtd">
<!-- Creator: CorelDRAW 2017 -->
<svg xmlns="http://www.w3.org/2000/svg" xml:space="preserve" width="105mm" height="148mm" version="1.1" style="shape-rendering:geometricPrecision; text-rendering:geometricPrecision; image-rendering:optimizeQuality; fill-rule:evenodd; clip-rule:evenodd"
viewBox="0 0 10500 14800"
 xmlns:xlink="http://www.w3.org/1999/xlink">
 <defs>
  <style type="text/css">
   <![CDATA[
    .fil17 {fill:#FEFEFE;fill-rule:nonzero}
    .fil13 {fill:#FFED00;fill-rule:nonzero}
    .fil5 {fill:#EF7F1A;fill-rule:nonzero}
    .fil8 {fill:#E7336D;fill-rule:nonzero}
    .fil7 {fill:#E31E24;fill-rule:nonzero}
    .fil11 {fill:#F9C63B;fill-rule:nonzero}
    .fil4 {fill:#DE1F3B;fill-rule:nonzero}
    .fil0 {fill:#CF2D46;fill-rule:nonzero}
    .fil6 {fill:#D9DB2C;fill-rule:nonzero}
    .fil16 {fill:#A2C626;fill-rule:nonzero}
    .fil9 {fill:#9AC32D;fill-rule:nonzero}
    .fil10 {fill:#44B7A6;fill-rule:nonzero}
    .fil14 {fill:#00A1E0;fill-rule:nonzero}
    .fil15 {fill:#00A1E0;fill-rule:nonzero}
    .fil3 {fill:#16747E;fill-rule:nonzero}
    .fil2 {fill:#19626C;fill-rule:nonzero}
    .fil12 {fill:#2C3A4A;fill-rule:nonzero}
    .fil1 {fill:url(#id0)}
   ]]>
  </style>
  <linearGradient id="id0" gradientUnits="userSpaceOnUse" x1="5296.61" y1="7107.07" x2="10486.05" y2="7107.07">
   <stop offset="0" style="stop-opacity:1; stop-color:#CF2A3E"/>
   <stop offset="1" style="stop-opacity:1; stop-color:#DB2A3E"/>
  </linearGradient>
 </defs>
 <g id="Слой_x0020_1">
  <metadata id="CorelCorpID_0Corel-Layer"/>
  <polygon class="fil0" points="5296.61,12071.55 7153.27,8103.69 7153.27,8103.69 "/>
  <path class="fil1" d="M6283.94 12071.55l0 0 597.01 -2487.48 341.54 -1422.99 0 0 -341.54 1422.99 -597.01 2487.48zm969.1 -4037.76l70.63 -294.25 0 -0.01 -70.63 294.26 0 0z"/>
  <polygon class="fil2" points="9405.76,7587.07 9138.99,7503.07 9405.76,7455.05 "/>
  <polygon class="fil3" points="9138.99,7503.07 9083.73,7485.68 9405.76,7413.27 9405.76,7455.05 "/>
  <polygon class="fil2" points="9584.33,8515.26 9369.97,8460.54 9577.04,8475.93 "/>
  <polygon class="fil3" points="9577.04,8475.93 9369.97,8460.54 7797.08,8059.11 9511.84,8124.29 "/>
  <polygon class="fil3" points="8086.9,7494.38 8811.45,7038.24 8835.61,7277.16 "/>
  <polygon class="fil3" points="9285.06,10735.91 8014.46,9617.84 9285.06,10276.42 "/>
  <path class="fil2" d="M7917.87 6842.73l154.52 -208.56 166.35 -94.9 -320.87 303.46zm992.07 -1339.09l914.77 -1234.77 -204.66 699.35 -710.11 535.42z"/>
  <polygon class="fil3" points="8072.39,6634.17 8909.94,5503.64 9620.05,4968.22 9512.95,5334.26 8238.74,6539.27 "/>
  <path class="fil2" d="M7990.31 5556.88l1.15 -2.31 0.84 -0.84 -1.99 3.15zm835.46 -1665.66l63.69 -126.99 -7.53 57.51 -56.16 69.48z"/>
  <polygon class="fil3" points="7991.46,5554.57 8825.77,3891.22 8881.93,3821.74 8827.1,4240.86 7992.3,5553.73 "/>
  <polygon class="fil2" points="3022.43,6980.31 1354.89,6147.78 1331.68,6079.14 2926.42,6913.63 "/>
  <polygon class="fil3" points="2926.42,6913.63 1331.68,6079.14 1211.14,5722.47 "/>
  <polygon class="fil2" points="2701.17,7798.5 1638.47,7646.4 1638.47,7450.94 "/>
  <polygon class="fil2" points="2192.96,8741.47 2200.61,8693.38 2802.89,8631.67 "/>
  <polygon class="fil3" points="2166.8,8906.15 2192.96,8741.47 2802.89,8631.67 3090.58,8602.21 "/>
  <polygon class="fil2" points="1082.97,11447.56 1093.92,11398.41 1275.88,11261.21 "/>
  <polygon class="fil3" points="1093.92,11398.41 1251.89,10689.23 3039.27,9557.81 1275.88,11261.21 "/>
  <polygon class="fil2" points="2517.68,11706.01 3036.3,11064.61 3594.73,10470.13 2797.72,11643.07 "/>
  <polygon class="fil3" points="2411.32,11729.92 3036.3,11064.61 2517.68,11706.01 "/>
  <polygon class="fil2" points="3908.71,11577.91 4295.1,10839.37 4210.12,11576.46 "/>
  <polygon class="fil2" points="2975.68,5140.34 2770.92,4878.33 2869.87,4828.34 "/>
  <polygon class="fil3" points="3118.44,5561.26 2694.45,4916.97 2770.92,4878.33 2975.68,5140.34 "/>
  <polygon class="fil2" points="6496.79,4741.26 6698.08,3932.73 6859.11,3980.98 "/>
  <polygon class="fil2" points="2779.39,9259.35 2628.1,9086.15 2741.6,9048.27 2843.81,9042.14 "/>
  <polygon class="fil3" points="2628.1,9086.15 2602.3,9056.63 2741.6,9048.27 "/>
  <polygon class="fil2" points="7740.64,9335.95 7563.49,9133.21 7805,9118.73 "/>
  <polygon class="fil2" points="7349.65,6001.82 7292.49,5936.4 7408.14,5929.46 "/>
  <polygon class="fil3" points="7441.46,5889.02 7321.47,5751.7 7379.96,5679.34 7505.86,5671.8 "/>
  <polygon class="fil2" points="3832.22,6169.31 3655.09,5966.57 3896.62,5952.12 "/>
  <polygon class="fil2" points="1709.88,8702.26 1532.74,8499.57 1774.25,8485.05 "/>
  <polygon class="fil3" points="8906.64,9237.91 8697.31,9006.2 8922.74,9020.72 "/>
  <polygon class="fil3" points="8309.79,11118.96 8148.78,10916.2 8422.52,11003.1 "/>
  <polygon class="fil2" points="2224.4,5487.26 2063.37,5458.3 2204.28,5373.82 2242.11,5407.57 "/>
  <polygon class="fil3" points="2242.11,5407.57 2204.28,5373.82 2256.59,5342.45 "/>
  <polygon class="fil2" points="1752.45,9689.69 1784.65,9544.87 1913.48,9573.87 "/>
  <polygon class="fil3" points="7892.71,8932.05 7924.89,8787.23 8053.71,8816.22 "/>
  <polygon class="fil3" points="2123.71,8338.8 2155.92,8193.98 2284.71,8222.95 "/>
  <path class="fil3" d="M5357.57 8183.73l1.11 -0.84 7.18 -2.38 -2.12 2.11 -6.17 1.11zm-6.36 -0.17l-11.85 -2.45 2.85 -0.96 9.47 3.14 -0.47 0.27zm0.98 -0.56l-7.2 -3.77 1.39 -0.46 6.1 4.06 -0.29 0.17zm0.61 -0.36l-4.93 -4.38 1.62 -0.54 3.68 4.71 -0.37 0.21zm0.72 -0.42l-2.62 -4.96 1.16 -0.4 1.79 5.2 -0.33 0.16zm13.52 -0.21l2.11 -2.61 2.31 -0.78 -1.9 2.96 -2.52 0.43zm-12.77 -0.21l-0.73 -5.42 0.86 -0.3 0.14 5.58 -0.27 0.14zm0.7 -0.4l0.76 -5.76 1.45 -0.48 -1.68 5.95 -0.53 0.29zm17.29 -0.33l1.49 -3.21 1.95 -0.64 -0.99 3.41 -2.45 0.44zm-16 -0.4l2.86 -6.16 2.29 -0.75 -4.11 6.32 -1.04 0.59zm20.42 -0.38l0.47 -3.56 1.32 -0.43 0.11 3.64 -1.9 0.35zm3.15 -0.56l-0.51 -3.73 1.49 -0.48 1.31 3.79 -2.29 0.42zm-21.28 -0.36l5.18 -6.39 3.29 -1.11 -6.24 6.22 -2.23 1.28zm25.47 -0.4l-2.04 -3.85 1.41 -0.46 3.02 3.87 -2.39 0.44zm-20.11 -0.01l14.36 -10.84 -6.17 6.16 -8.19 4.68zm25.45 -0.95l-4.36 -3.89 1.48 -0.51 5.78 3.88 -2.9 0.52zm-65.51 -0.11l-35.12 -7.24 20.27 -1.51 22.36 7.42 -7.51 1.33zm71.32 -0.93l-7.28 -3.82 2.78 -0.92 10.84 3.58 -6.34 1.16zm-57.46 -1.55l-14.06 -7.36 6.08 -0.44 10.88 7.27 -2.9 0.53zm71.31 -0.95l-15.51 -3.21 15.37 -5.11 32.81 2.43 -32.67 5.89zm-65.5 -0.11l-8.06 -7.18 5.48 -0.4 5.52 7.06 -2.94 0.52zm25.44 -0.94l5.24 -3.94 4.07 -1.36 -9.31 5.3zm-20.11 -0.02l-3.66 -6.93 3.23 -0.25 2.33 6.84 -1.9 0.34zm25.47 -0.4l3.95 -4.88 -2.99 0.53 6.06 -4.55 7.61 0.57 -7.28 4.14 -3.4 -0.69 2.13 1.43 -0.33 0.18 -1.8 -1.61 0.76 2.2 -0.43 0.26 -0.33 -2.46 0.07 2.6 -0.43 0.25 0.36 -2.85 -0.9 3.14 -0.76 0.44 1.66 -3.58 -2.7 4.17 -1.25 0.71zm-21.28 -0.35l-0.87 -6.71 1.96 -0.15 0.17 6.65 -1.26 0.21zm3.16 -0.57l0.86 -6.49 2.9 -0.24 -1.8 6.4 -1.96 0.33zm4.42 -0.77l2.86 -6.2 3.7 -0.28 -3.86 5.97 -2.7 0.51zm5.21 -0.95l4.69 -5.78 4.11 -0.31 -5.5 5.49 -3.3 0.6zm13.53 -0.21l-1.09 -2.03 1.43 1.83 -0.34 0.2zm1.32 -0.77l-2.41 -1.26 2.93 0.96 -0.52 0.3zm-1.49 -23.91l-6.36 -0.5 1613.38 -3476.79 779.78 -206.38 -2386.22 3683.63 -0.58 0.04z"/>
  <path class="fil3" d="M5386.41 8144.91l1487.86 -1840.13 492.88 -127.58 -1972.47 1967.08 -8.27 0.63zm-20.5 -0.47l-5.99 -0.45 416.39 -3155.57 526.82 -139.44 -937.22 3295.46zm-12.33 -0.94l-4.46 -0.33 -391.41 -2938.08 320.21 -84.76 75.66 3023.17z"/>
  <path class="fil3" d="M5409.08 8143.17l2497.19 -1882.81 0 468.54 -2476.91 1412.72 -20.28 1.55zm-68.8 -0.69l-8.1 -0.61 -973.84 -1841.37c0,-67.21 0,-134.41 0,-201.62 8.16,-2.12 15.38,-3.98 22.32,-5.79l39.57 -634 920.05 2683.39zm-19.5 -1.49l-16.05 -1.22 -1241.34 -1107.4 262.91 -68.05 5.55 -88.72 988.93 1265.39zm-34.77 -2.66l-22.47 -1.72 -1809.03 -946.63 299.27 -77.46 1532.23 1025.81z"/>
  <path class="fil3" d="M4880.03 11930.95l2.09 -2.97 -0.19 1.48 -1.9 1.49zm-204.15 -1293.04l698.83 -2457.28 0.99 -3.41 1.67 -5.96 0.9 -3.14 -0.36 2.85 -0.76 5.76 -0.47 3.56 -310.91 2356.05 -389.89 101.57z"/>
  <polygon class="fil3" points="3726.57,10885.24 3726.57,10717.85 5369.56,8181.58 5371.46,8178.62 5375.57,8172.29 5378.27,8168.12 5376.61,8171.7 5373.75,8177.86 5372.26,8181.07 4171.15,10769.42 "/>
  <path class="fil3" d="M3726.57 10210.9l0 -395.58 1637.17 -1632.7 2.12 -2.11 6.24 -6.23 6.17 -6.16 -3.95 4.88 -5.17 6.4 -2.11 2.61 -1640.47 2028.89zm0 -797.45l0 -167.45 688.52 -528.52 936.12 -533.92 0.47 -0.27 0.51 -0.29 0.29 -0.17 0.32 -0.19 0.37 -0.21 0.35 -0.21 0.33 -0.16 0.42 -0.26 0.27 -0.14 0.43 -0.26 0.53 -0.29 0.76 -0.44 1.04 -0.59 1.25 -0.71 2.23 -1.28 8.18 -4.67 9.31 -5.3 -14.36 10.84 -5.23 3.93 -1.11 0.84 -1631 1229.72z"/>
  <path class="fil3" d="M3369.79 7065.5c-55.93,0 -86.13,-53.77 -86.13,-151.84 0,-43.88 0,-81.19 0,-115.89l74.66 49.97c0,16.89 0,34.65 0,53.59 0,43.5 11.08,60.83 29.38,60.83 2.9,0 6.01,-0.44 9.29,-1.28 20.76,-5.38 34.79,-23.63 38,-61.79l65.47 43.82c-16.08,63.57 -51.37,105.33 -103.47,118.86 -9.64,2.49 -18.72,3.73 -27.2,3.73zm140.58 -526.49l-77.05 -68.75c-4.2,-21.81 -13.71,-31.03 -27.05,-31.03 -2.21,0 -4.5,0.25 -6.91,0.73l-67.29 -60.01c17.3,-19.88 39.03,-33.56 64.92,-40.26 9.63,-2.5 18.69,-3.73 27.16,-3.73 55.97,0 86.22,53.78 86.22,151.86 0,18.08 0,35.05 0,51.19z"/>
  <path class="fil2" d="M3831.54 6940.91c0,-38.47 0,-76.93 0,-115.4l100.16 89.36c-36.13,9.39 -59.31,15.44 -100.16,26.04zm229.44 -411.9l-74.71 -95.6c0,-21.34 0,-44.05 0,-68.88 0,-43.24 -10.5,-60.02 -28.48,-60.02 -2.97,0 -6.16,0.45 -9.54,1.33 -16.85,4.36 -25.22,6.5 -42.06,10.88 0,4.8 0,9.55 0,14.25l-74.65 -95.54c0,-0.04 0,-0.11 0,-0.18 47.22,-12.23 70.82,-18.32 118.11,-30.56 10.2,-2.64 19.7,-3.94 28.52,-3.94 55.48,0 82.81,52.07 82.81,149.5 0,71.53 0,125.12 0,178.76z"/>
  <path class="fil3" d="M3931.7 6914.87l-100.16 -89.36c0,-196.7 0,-393.39 0,-590.08l74.65 95.54c0,192.17 0,292.97 0,489.74 16.84,-4.36 25.21,-6.54 42.06,-10.91 23.77,-6.17 38.02,-28.02 38.02,-78.41 0,-121.92 0,-193.2 0,-297.98l74.71 95.6c0,53.39 0,106.81 0,177.97 0,112.89 -36.68,183.86 -111.33,203.24 -6.39,1.66 -12.32,3.21 -17.95,4.65z"/>
  <polygon class="fil4" points="9256.5,7238.54 8934.47,7310.95 9256.5,7412.33 "/>
  <polygon class="fil5" points="7647.82,7884.39 9435.04,8340.52 9362.58,7949.57 "/>
  <polygon class="fil6" points="7937.61,7319.65 8662.19,6863.49 8686.33,7102.44 "/>
  <polygon class="fil7" points="7865.21,9443.12 9135.78,10101.7 9135.78,10561.17 "/>
  <polygon class="fil8" points="7768.59,6668.01 9363.66,5159.54 9675.43,4094.14 "/>
  <polygon class="fil6" points="7841.03,5382.14 8677.84,4066.11 8740.17,3589.51 "/>
  <polygon class="fil9" points="2873.12,6805.58 1061.88,5547.74 1205.61,5973.06 "/>
  <polygon class="fil10" points="2551.89,7623.78 1489.21,7276.2 1489.21,7471.68 "/>
  <polygon class="fil11" points="2941.27,8427.49 2051.34,8518.66 2017.52,8731.43 "/>
  <polygon class="fil8" points="2889.98,9383.12 1102.61,10514.51 933.68,11272.83 "/>
  <polygon class="fil10" points="3445.45,10295.42 2262.04,11555.22 2648.45,11468.32 "/>
  <polygon class="fil11" points="4145.84,10664.63 3759.43,11403.18 4060.86,11401.71 "/>
  <polygon class="fil10" points="4653.02,5429.93 4097.56,3627.1 4339.05,3540.2 "/>
  <polygon class="fil11" points="2969.16,5386.54 2545.16,4742.23 2720.59,4653.59 "/>
  <polygon class="fil7" points="6347.51,4566.54 6548.8,3758 6709.82,3806.26 "/>
  <polygon class="fil4" points="2452.99,8881.91 2694.5,8867.41 2630.1,9084.63 "/>
  <polygon class="fil4" points="7414.23,8958.49 7655.73,8944.01 7591.36,9161.22 "/>
  <polygon class="fil4" points="7143.24,5761.68 7384.76,5747.2 7320.35,5964.39 "/>
  <polygon class="fil10" points="3505.83,5791.85 3747.32,5777.37 3682.94,5994.59 "/>
  <polygon class="fil10" points="1383.46,8324.82 1624.98,8310.33 1560.59,8527.56 "/>
  <polygon class="fil4" points="8548.05,8831.48 8757.36,9063.19 8773.46,8846 "/>
  <polygon class="fil11" points="7999.48,10741.48 8160.53,10944.24 8273.23,10828.37 "/>
  <polygon class="fil11" points="1914.09,5283.57 2107.3,5167.73 2075.12,5312.53 "/>
  <polygon class="fil11" points="1635.36,9370.12 1764.19,9399.12 1603.19,9514.97 "/>
  <polygon class="fil11" points="7775.62,8612.48 7904.45,8641.48 7743.42,8757.32 "/>
  <polygon class="fil11" points="2006.64,8019.23 2135.46,8048.23 1974.42,8164.08 "/>
  <polygon class="fil12" points="4560.14,11821.74 7127.66,9813.6 7127.66,8170.59 "/>
  <polygon class="fil12" points="7586.41,7564.15 7127.66,8170.59 3406.68,9136.82 7586.41,5928.43 "/>
  <polygon class="fil13" points="3548.4,5406.63 7687.65,4297.84 5916.53,7155.07 6995.4,8036.5 4935.92,11179.39 5235.99,8532.36 3355.88,8492.43 "/>
  <polygon class="fil14" points="7586.41,7564.15 2947.94,8768.22 2947.94,7129.09 7586.41,5928.43 "/>
  <polygon class="fil15" points="7127.66,9806.59 3406.68,10776.03 3406.68,9137.28 7127.66,8170.55 "/>
  <path class="fil16" d="M4227.61 8206.75l-268.88 -1162.65 -181.96 44.14 -266.4 487.85 228.65 143.08 72.04 -115 154.08 666.25 262.47 -63.67zm392.68 -1037.49c120.77,-29.3 207.34,80.33 253.49,279.88 41.19,178.1 16.02,333.99 -104.75,363.28 -117.55,28.52 -208.32,-99.25 -249.51,-277.35 -46.14,-199.55 -16.78,-337.3 100.77,-365.81zm211.67 915.27c302.72,-73.43 393.24,-387.98 320.39,-702.97 -75.14,-324.88 -293.03,-561.14 -595.75,-487.7 -302.73,73.43 -390.78,383.9 -315.64,708.78 72.84,314.99 288.27,555.33 591,481.89zm814.05 -1164.09c120.77,-29.29 207.34,80.34 253.49,279.88 41.19,178.11 16.02,333.99 -104.75,363.29 -117.55,28.51 -208.31,-99.25 -249.5,-277.35 -46.15,-199.55 -16.79,-337.3 100.76,-365.82zm211.67 915.28c302.73,-73.43 393.24,-387.98 320.39,-702.97 -75.13,-324.88 -293.03,-561.14 -595.75,-487.71 -302.73,73.44 -390.78,383.91 -315.64,708.79 72.84,314.99 288.27,555.33 591,481.89zm814.05 -1164.09c120.77,-29.29 207.35,80.33 253.5,279.88 41.19,178.1 16.02,333.99 -104.75,363.29 -117.55,28.51 -208.32,-99.25 -249.51,-277.36 -46.15,-199.54 -16.79,-337.29 100.76,-365.81zm211.68 915.28c302.72,-73.43 393.23,-387.99 320.38,-702.97 -75.13,-324.88 -293.03,-561.14 -595.75,-487.71 -302.73,73.44 -390.77,383.91 -315.64,708.79 72.85,314.98 288.28,555.32 591.01,481.89z"/>
  <path class="fil16" d="M3759.42 9537.11l139.11 601.49 143.27 -34.76 -41.28 -178.47 81.27 -19.71c273.97,-66.46 177.17,-488.82 -97.63,-422.16l-224.74 53.61zm209.15 250.11l-32.74 -141.58 81.27 -19.71c88.8,-21.54 121.55,120.04 32.74,141.58l-81.27 19.71zm647.96 177.21l125.01 -664.65 -159.18 38.61 -24.29 139.85 -14.5 124.8 -74.71 -104.97 -88.42 -110.7 -159.19 38.62 280.26 350.97 -39.97 225.07 154.99 -37.6zm592.52 -778.05l-413.89 100.39 138.91 600.64 269.78 -65.45c122.32,-29.67 162.73,-141.87 140.31,-238.83 -23.81,-102.97 -114.83,-175.14 -229.61,-147.29l-128.18 31.09 -17.27 -74.64 272.29 -66.05 -32.34 -139.86zm-190.93 417.84l128.18 -31.09c61.99,-15.04 89.08,94.38 25.4,109.83l-128.18 31.09 -25.4 -109.83zm826.66 62.27l161.69 -39.22 -384.3 -548.36 -102.2 24.79 -94.11 664.41 153.33 -37.19 34.47 -260.29 14.21 -137.55 75.4 119.45 141.51 213.96zm291.36 -312.63l237.1 -57.51 -32.94 -142.44 -237.1 57.51 -20.41 -88.22 242.13 -58.74 -32.77 -141.72 -386.24 93.69 139.11 601.49 387.07 -93.89 -32.74 -141.58 -242.97 58.93 -20.24 -87.52zm313.54 -626.1l27.78 120.13 241.3 -58.54 -27.79 -120.12 -241.29 58.53zm494.32 672.09l-139.1 -601.49 -99.71 24.19 -143.29 356 -70.35 -304.18 -141.59 34.35 139.1 601.49 95.52 -23.17 146.44 -357.68 70.55 305.04 142.43 -34.55z"/>
  <path class="fil17" d="M3675.02 9557.56l139.11 601.49 143.27 -34.75 -41.28 -178.47 81.27 -19.72c273.97,-66.45 177.17,-488.82 -97.63,-422.16l-224.74 53.61zm209.15 250.12l-32.74 -141.58 81.27 -19.72c88.8,-21.54 121.55,120.04 32.74,141.59l-81.27 19.71zm647.96 177.21l125.01 -664.66 -159.18 38.62 -24.29 139.85 -14.5 124.8 -74.71 -104.97 -88.42 -110.7 -159.19 38.61 280.26 350.98 -39.97 225.06 154.99 -37.59zm592.52 -778.06l-413.89 100.4 138.91 600.63 269.78 -65.44c122.32,-29.67 162.73,-141.87 140.31,-238.83 -23.81,-102.97 -114.83,-175.14 -229.61,-147.3l-128.18 31.1 -17.27 -74.65 272.29 -66.05 -32.34 -139.86zm-190.93 417.85l128.18 -31.1c62,-15.03 89.08,94.39 25.4,109.84l-128.18 31.09 -25.4 -109.83zm826.66 62.27l161.69 -39.22 -384.3 -548.37 -102.2 24.8 -94.11 664.41 153.33 -37.2 34.47 -260.28 14.21 -137.56 75.4 119.45 141.51 213.97zm291.36 -312.63l237.1 -57.52 -32.94 -142.43 -237.1 57.51 -20.41 -88.23 242.13 -58.73 -32.77 -141.72 -386.24 93.69 139.11 601.49 387.07 -93.9 -32.74 -141.58 -242.97 58.94 -20.24 -87.52zm313.54 -626.11l27.78 120.13 241.3 -58.53 -27.78 -120.13 -241.3 58.53zm494.32 672.1l-139.1 -601.49 -99.71 24.19 -143.29 355.99 -70.35 -304.17 -141.59 34.35 139.1 601.48 95.52 -23.16 146.44 -357.68 70.55 305.04 142.43 -34.55z"/>
  <path class="fil17" d="M4118.57 8236.99l-268.89 -1162.65 -181.95 44.14 -266.41 487.85 228.65 143.08 72.04 -115 154.08 666.25 262.48 -63.67zm392.67 -1037.49c120.77,-29.3 207.35,80.33 253.49,279.88 41.19,178.1 16.03,333.99 -104.74,363.28 -117.55,28.52 -208.32,-99.25 -249.51,-277.35 -46.15,-199.55 -16.79,-337.3 100.76,-365.81zm211.68 915.28c302.72,-73.44 393.23,-387.99 320.38,-702.98 -75.13,-324.88 -293.03,-561.13 -595.75,-487.7 -302.73,73.43 -390.77,383.9 -315.64,708.78 72.85,314.99 288.28,555.33 591.01,481.9zm814.05 -1164.09c120.77,-29.3 207.34,80.33 253.49,279.88 41.19,178.1 16.02,333.99 -104.75,363.28 -117.55,28.52 -208.32,-99.25 -249.51,-277.35 -46.15,-199.55 -16.79,-337.3 100.77,-365.81zm211.67 915.27c302.72,-73.43 393.23,-387.98 320.39,-702.97 -75.14,-324.88 -293.04,-561.14 -595.76,-487.71 -302.73,73.44 -390.77,383.91 -315.64,708.79 72.85,314.99 288.28,555.33 591.01,481.89zm814.05 -1164.09c120.77,-29.29 207.34,80.33 253.49,279.88 41.19,178.1 16.02,333.99 -104.75,363.29 -117.55,28.51 -208.32,-99.25 -249.51,-277.35 -46.14,-199.55 -16.78,-337.3 100.77,-365.82zm211.67 915.28c302.72,-73.43 393.23,-387.99 320.39,-702.97 -75.14,-324.88 -293.03,-561.14 -595.75,-487.71 -302.73,73.44 -390.78,383.91 -315.64,708.79 72.84,314.98 288.27,555.32 591,481.89z"/>
  <path class="fil16" d="M3345.39 6470.79l-118.61 -552.34 -448.42 101.01 57.94 396.58c9.94,70.67 15.35,134.87 -0.6,172.77l-65.39 31.89 52.93 246.51 167.79 -37.79 -21.96 -102.29 301.61 -67.93 21.97 102.28 160.8 -36.22 -57.11 -265.94 -50.95 11.47zm-334.57 75.36c15.33,-60.28 2.05,-126.99 -41.08,-396.08l120.85 -27.23 83.03 386.64 -162.8 36.67zm997.92 -53.19l192.76 -43.42 -446.36 -659.75 -121.85 27.45 -123.92 788.19 182.78 -41.16 16.32 -114.13 238.7 -53.76 61.57 96.58zm-251.48 -400.71l87.43 143.84 6.63 11.38 -115.85 26.09 2.48 -17.72 19.31 -163.59zm336.21 -370.08l153.97 717.02 170.79 -38.47 -45.69 -212.75 96.88 -21.82c326.59,-73.56 219.51,-577.03 -108.07,-503.24l-267.88 59.26zm243.71 301.12l-36.24 -168.77 96.87 -21.82c105.87,-23.85 142.11,144.93 36.25,168.77l-96.88 21.82zm1027.85 164.18l-153.98 -717.03 -118.85 26.77 -176.81 419.97 -77.86 -362.6 -168.79 38.01 153.98 717.03 113.85 -25.65 180.59 -421.89 78.08 363.63 169.79 -38.24zm162.22 -409.88l134.07 131.89 94.88 -21.37 68.11 -175.29 76.04 354.07 169.78 -38.24 -153.97 -717.02 -133.84 30.14 -124.09 319.27 -243.43 -236.49 -135.84 30.6 153.98 717.02 170.78 -38.46 -76.47 -356.12z"/>
  <path class="fil17" d="M3260.14 6480.07l-118.61 -552.35 -448.43 101 57.94 396.59c9.94,70.67 15.35,134.87 -0.6,172.78l-65.39 31.89 52.93 246.5 167.79 -37.79 -21.96 -102.28 301.62 -67.94 21.97 102.28 160.79 -36.21 -57.11 -265.95 -50.94 11.48zm-334.58 75.36c15.33,-60.29 2.06,-127 -41.07,-396.09l120.84 -27.22 83.03 386.64 -162.8 36.67zm997.94 -53.2l192.76 -43.42 -446.37 -659.75 -121.85 27.45 -123.92 788.2 182.78 -41.17 16.33 -114.13 238.69 -53.76 61.58 96.58zm-251.49 -400.71l87.44 143.84 6.63 11.37 -115.86 26.09 2.48 -17.71 19.31 -163.59zm336.21 -370.08l153.97 717.02 170.79 -38.46 -45.69 -212.76 96.88 -21.82c326.59,-73.56 219.52,-577.04 -108.07,-503.25l-267.88 59.27zm243.71 301.12l-36.24 -168.77 96.88 -21.82c105.87,-23.85 142.11,144.92 36.24,168.77l-96.88 21.82zm1027.87 164.18l-153.98 -717.03 -118.85 26.77 -176.82 419.97 -77.86 -362.6 -168.79 38.01 153.98 717.03 113.85 -25.65 180.59 -421.89 78.08 363.63 169.8 -38.24zm162.21 -409.9l134.08 131.91 94.89 -21.37 68.1 -175.3 76.04 354.08 169.79 -38.24 -153.97 -717.03 -133.84 30.15 -124.1 319.26 -243.43 -236.48 -135.84 30.6 153.98 717.02 170.78 -38.47 -76.48 -356.13z"/>
 </g>
</svg>
