<?xml version="1.0" encoding="utf-8"?>
<!-- Generator: Adobe Illustrator 22.0.1, SVG Export Plug-In . SVG Version: 6.00 Build 0)  -->
<svg version="1.1" id="Слой_1" xmlns="http://www.w3.org/2000/svg" xmlns:xlink="http://www.w3.org/1999/xlink" x="0px" y="0px"
	 viewBox="0 0 2100 2100" style="enable-background:new 0 0 2100 2100;" xml:space="preserve">
<style type="text/css">
	.st0{fill:url(#SVGID_1_);}
	.st1{fill:url(#SVGID_2_);}
	.st2{fill:url(#SVGID_3_);}
	.st3{fill:url(#SVGID_4_);}
	.st4{fill:url(#SVGID_5_);}
	.st5{fill:url(#SVGID_6_);}
	.st6{fill:url(#SVGID_7_);}
	.st7{fill:url(#SVGID_8_);}
	.st8{fill:url(#SVGID_9_);}
	.st9{fill:url(#SVGID_10_);}
	.st10{fill:url(#SVGID_11_);}
	.st11{fill:url(#SVGID_12_);}
	.st12{fill:url(#SVGID_13_);}
</style>
<g>
	<g>
		<linearGradient id="SVGID_1_" gradientUnits="userSpaceOnUse" x1="1686.4154" y1="1944.5059" x2="2041.9379" y2="967.7162">
			<stop  offset="0" style="stop-color:#B60000"/>
			<stop  offset="1" style="stop-color:#730262"/>
		</linearGradient>
		<polygon class="st0" points="2094,986.7 1440.1,1661.1 1605.4,1915 2094,1784.7 		"/>
		<linearGradient id="SVGID_2_" gradientUnits="userSpaceOnUse" x1="146.3591" y1="1835.4032" x2="275.7337" y2="1479.9493">
			<stop  offset="0" style="stop-color:#B60000"/>
			<stop  offset="1" style="stop-color:#730262"/>
		</linearGradient>
		<polygon class="st1" points="7,1560.5 7,1784.7 369.1,1881.2 212.8,1457 		"/>
		<linearGradient id="SVGID_3_" gradientUnits="userSpaceOnUse" x1="213.9604" y1="1457.4657" x2="610.2169" y2="368.76">
			<stop  offset="0" style="stop-color:#CE0000"/>
			<stop  offset="1" style="stop-color:#730262"/>
		</linearGradient>
		<polygon class="st2" points="775.7,1173.9 853.9,760.4 595.6,363.5 7,766.1 7,898.7 212.8,1457 		"/>
		<linearGradient id="SVGID_4_" gradientUnits="userSpaceOnUse" x1="880.5745" y1="2042.1633" x2="1220.2787" y2="1108.8336">
			<stop  offset="0" style="stop-color:#B60000"/>
			<stop  offset="1" style="stop-color:#730262"/>
		</linearGradient>
		<polygon class="st3" points="775.7,1173.9 628.8,1950.5 1050.5,2063 1440.1,1661.1 1037.4,1042.3 		"/>
		<linearGradient id="SVGID_5_" gradientUnits="userSpaceOnUse" x1="1807.3519" y1="284.2147" x2="1919.7073" y2="-24.4793">
			<stop  offset="0" style="stop-color:#B60000"/>
			<stop  offset="0.1112" style="stop-color:#AA0012"/>
			<stop  offset="0.3654" style="stop-color:#920134"/>
			<stop  offset="0.6055" style="stop-color:#81024E"/>
			<stop  offset="0.8236" style="stop-color:#77025D"/>
			<stop  offset="1" style="stop-color:#730262"/>
		</linearGradient>
		<polygon class="st4" points="2094,39 1527.3,161.7 2094,388.5 		"/>
		<linearGradient id="SVGID_6_" gradientUnits="userSpaceOnUse" x1="108.5122" y1="803.057" x2="306.7809" y2="258.3184">
			<stop  offset="0" style="stop-color:#B60000"/>
			<stop  offset="1" style="stop-color:#730262"/>
		</linearGradient>
		<polygon class="st5" points="7,183.1 7,766.1 595.6,363.5 		"/>
		<linearGradient id="SVGID_7_" gradientUnits="userSpaceOnUse" x1="1271.7184" y1="2143.5095" x2="1446.4614" y2="1663.407">
			<stop  offset="0" style="stop-color:#B60000"/>
			<stop  offset="1" style="stop-color:#730262"/>
		</linearGradient>
		<polygon class="st6" points="1050.5,2063 1605.4,1915 1440.1,1661.1 		"/>
		<linearGradient id="SVGID_8_" gradientUnits="userSpaceOnUse" x1="-25.1123" y1="1548.7882" x2="187.5911" y2="964.3904">
			<stop  offset="0" style="stop-color:#B60000"/>
			<stop  offset="1" style="stop-color:#730262"/>
		</linearGradient>
		<polygon class="st7" points="7,898.7 7,1560.5 212.8,1457 		"/>
		<linearGradient id="SVGID_9_" gradientUnits="userSpaceOnUse" x1="357.6879" y1="1877.1101" x2="632.6003" y2="1121.7947">
			<stop  offset="0" style="stop-color:#B60000"/>
			<stop  offset="1" style="stop-color:#730262"/>
		</linearGradient>
		<polygon class="st8" points="775.7,1173.9 212.8,1457 369.1,1881.2 628.8,1950.5 		"/>
		<linearGradient id="SVGID_10_" gradientUnits="userSpaceOnUse" x1="1343.1908" y1="1625.8196" x2="1789.3579" y2="399.9858">
			<stop  offset="0" style="stop-color:#B60000"/>
			<stop  offset="1" style="stop-color:#730262"/>
		</linearGradient>
		<polygon class="st9" points="1037.4,1042.3 1440.1,1661.1 2094,986.7 2094,510.9 		"/>
		<linearGradient id="SVGID_11_" gradientUnits="userSpaceOnUse" x1="838.1985" y1="1196.6263" x2="980.2482" y2="806.3479">
			<stop  offset="0" style="stop-color:#B60000"/>
			<stop  offset="1" style="stop-color:#730262"/>
		</linearGradient>
		<polygon class="st10" points="775.7,1173.9 1037.4,1042.3 853.9,760.4 		"/>
		<linearGradient id="SVGID_12_" gradientUnits="userSpaceOnUse" x1="676.1125" y1="695.6515" x2="838.3307" y2="249.9605">
			<stop  offset="0" style="stop-color:#B60000"/>
			<stop  offset="1" style="stop-color:#730262"/>
		</linearGradient>
		<polygon class="st11" points="943.3,288.2 595.6,363.5 853.9,760.4 		"/>
		<linearGradient id="SVGID_13_" gradientUnits="userSpaceOnUse" x1="1255.7693" y1="1121.7511" x2="1596.0974" y2="186.7072">
			<stop  offset="0" style="stop-color:#B60000"/>
			<stop  offset="1" style="stop-color:#730262"/>
		</linearGradient>
		<polygon class="st12" points="1037.4,1042.3 2094,510.9 2094,388.5 1527.3,161.7 943.3,288.2 853.9,760.4 		"/>
	</g>
</g>
<image style="overflow:visible;" width="920" height="1095" xlink:href="5679E57E.png"  transform="matrix(1 0 0 1 -60.0504 364.1752)">
</image>
</svg>
