<?xml version="1.0" encoding="utf-8"?>
<!-- Generator: Adobe Illustrator 22.0.1, SVG Export Plug-In . SVG Version: 6.00 Build 0)  -->
<svg version="1.1" id="Слой_1" xmlns="http://www.w3.org/2000/svg" xmlns:xlink="http://www.w3.org/1999/xlink" x="0px" y="0px"
	 viewBox="0 0 2069 2024" style="enable-background:new 0 0 2069 2024;" xml:space="preserve">
<style type="text/css">
	.st0{fill:url(#SVGID_1_);}
	.st1{fill:url(#SVGID_2_);}
	.st2{fill:url(#SVGID_3_);}
	.st3{fill:url(#SVGID_4_);}
	.st4{fill:url(#SVGID_5_);}
	.st5{fill:url(#SVGID_6_);}
	.st6{fill:url(#SVGID_7_);}
	.st7{fill:url(#SVGID_8_);}
	.st8{fill:url(#SVGID_9_);}
	.st9{fill:url(#SVGID_10_);}
	.st10{fill:url(#SVGID_11_);}
	.st11{fill:url(#SVGID_12_);}
	.st12{fill:url(#SVGID_13_);}
</style>
<g>
	<g>
		
			<linearGradient id="SVGID_1_" gradientUnits="userSpaceOnUse" x1="1679.4008" y1="433.4819" x2="2034.9061" y2="-543.2606" gradientTransform="matrix(1 0 0 1 0 1472)">
			<stop  offset="0" style="stop-color:#B60000"/>
			<stop  offset="1" style="stop-color:#730262"/>
		</linearGradient>
		<polygon class="st0" points="2087,947.7 1433.1,1622.1 1598.4,1876 2087,1745.7 		"/>
		
			<linearGradient id="SVGID_2_" gradientUnits="userSpaceOnUse" x1="139.3502" y1="324.4193" x2="268.745" y2="-31.0899" gradientTransform="matrix(1 0 0 1 0 1472)">
			<stop  offset="0" style="stop-color:#B60000"/>
			<stop  offset="1" style="stop-color:#730262"/>
		</linearGradient>
		<polygon class="st1" points="0,1521.5 0,1745.7 362.1,1842.2 205.8,1418 		"/>
		
			<linearGradient id="SVGID_3_" gradientUnits="userSpaceOnUse" x1="206.9448" y1="-53.5833" x2="603.168" y2="-1142.1976" gradientTransform="matrix(1 0 0 1 0 1472)">
			<stop  offset="0" style="stop-color:#CE0000"/>
			<stop  offset="1" style="stop-color:#730262"/>
		</linearGradient>
		<polygon class="st2" points="768.7,1134.9 846.9,721.4 588.6,324.5 0,727.1 0,859.7 205.8,1418 		"/>
		
			<linearGradient id="SVGID_4_" gradientUnits="userSpaceOnUse" x1="873.5532" y1="531.1306" x2="1213.24" y2="-402.1517" gradientTransform="matrix(1 0 0 1 0 1472)">
			<stop  offset="0" style="stop-color:#B60000"/>
			<stop  offset="1" style="stop-color:#730262"/>
		</linearGradient>
		<polygon class="st3" points="768.7,1134.9 621.8,1911.5 1043.5,2024 1433.1,1622.1 1030.4,1003.3 		"/>
		
			<linearGradient id="SVGID_5_" gradientUnits="userSpaceOnUse" x1="1800.3496" y1="-1226.832" x2="1912.6766" y2="-1535.4485" gradientTransform="matrix(1 0 0 1 0 1472)">
			<stop  offset="0" style="stop-color:#B60000"/>
			<stop  offset="0.1112" style="stop-color:#AA0012"/>
			<stop  offset="0.3654" style="stop-color:#920134"/>
			<stop  offset="0.6055" style="stop-color:#81024E"/>
			<stop  offset="0.8236" style="stop-color:#77025D"/>
			<stop  offset="1" style="stop-color:#730262"/>
		</linearGradient>
		<polygon class="st4" points="2087,0 1520.3,122.7 2087,349.5 		"/>
		
			<linearGradient id="SVGID_6_" gradientUnits="userSpaceOnUse" x1="101.4906" y1="-707.9604" x2="299.7368" y2="-1252.6376" gradientTransform="matrix(1 0 0 1 0 1472)">
			<stop  offset="0" style="stop-color:#B60000"/>
			<stop  offset="1" style="stop-color:#730262"/>
		</linearGradient>
		<polygon class="st5" points="0,144.1 0,727.1 588.6,324.5 		"/>
		
			<linearGradient id="SVGID_7_" gradientUnits="userSpaceOnUse" x1="1264.7114" y1="632.5143" x2="1439.4541" y2="152.4127" gradientTransform="matrix(1 0 0 1 0 1472)">
			<stop  offset="0" style="stop-color:#B60000"/>
			<stop  offset="1" style="stop-color:#730262"/>
		</linearGradient>
		<polygon class="st6" points="1043.5,2024 1598.4,1876 1433.1,1622.1 		"/>
		
			<linearGradient id="SVGID_8_" gradientUnits="userSpaceOnUse" x1="-32.1184" y1="37.8099" x2="180.5801" y2="-546.5742" gradientTransform="matrix(1 0 0 1 0 1472)">
			<stop  offset="0" style="stop-color:#B60000"/>
			<stop  offset="1" style="stop-color:#730262"/>
		</linearGradient>
		<polygon class="st7" points="0,859.7 0,1521.5 205.8,1418 		"/>
		
			<linearGradient id="SVGID_9_" gradientUnits="userSpaceOnUse" x1="350.7209" y1="366.0583" x2="625.606" y2="-389.1819" gradientTransform="matrix(1 0 0 1 0 1472)">
			<stop  offset="0" style="stop-color:#B60000"/>
			<stop  offset="1" style="stop-color:#730262"/>
		</linearGradient>
		<polygon class="st8" points="768.7,1134.9 205.8,1418 362.1,1842.2 621.8,1911.5 		"/>
		
			<linearGradient id="SVGID_10_" gradientUnits="userSpaceOnUse" x1="1336.1943" y1="114.8292" x2="1782.3534" y2="-1110.9823" gradientTransform="matrix(1 0 0 1 0 1472)">
			<stop  offset="0" style="stop-color:#B60000"/>
			<stop  offset="1" style="stop-color:#730262"/>
		</linearGradient>
		<polygon class="st9" points="1030.4,1003.3 1433.1,1622.1 2087,947.7 2087,471.9 		"/>
		
			<linearGradient id="SVGID_11_" gradientUnits="userSpaceOnUse" x1="831.1738" y1="-314.3614" x2="973.2178" y2="-704.6241" gradientTransform="matrix(1 0 0 1 0 1472)">
			<stop  offset="0" style="stop-color:#B60000"/>
			<stop  offset="1" style="stop-color:#730262"/>
		</linearGradient>
		<polygon class="st10" points="768.7,1134.9 1030.4,1003.3 846.9,721.4 		"/>
		
			<linearGradient id="SVGID_12_" gradientUnits="userSpaceOnUse" x1="669.0771" y1="-815.3222" x2="831.297" y2="-1261.0179" gradientTransform="matrix(1 0 0 1 0 1472)">
			<stop  offset="0" style="stop-color:#B60000"/>
			<stop  offset="1" style="stop-color:#730262"/>
		</linearGradient>
		<polygon class="st11" points="936.3,249.2 588.6,324.5 846.9,721.4 		"/>
		
			<linearGradient id="SVGID_13_" gradientUnits="userSpaceOnUse" x1="1248.7786" y1="-389.2167" x2="1589.1053" y2="-1324.257" gradientTransform="matrix(1 0 0 1 0 1472)">
			<stop  offset="0" style="stop-color:#B60000"/>
			<stop  offset="1" style="stop-color:#730262"/>
		</linearGradient>
		<polygon class="st12" points="1030.4,1003.3 2087,471.9 2087,349.5 1520.3,122.7 936.3,249.2 846.9,721.4 		"/>
	</g>
</g>
<image style="overflow:visible;enable-background:new    ;" width="921" height="1096" xlink:href="5679E57E.png"  transform="matrix(0.999 0 0 0.999 -67.0972 325.2145)">
</image>
</svg>
