<?xml version="1.0" encoding="utf-8"?>
<!-- Generator: Adobe Illustrator 22.0.1, SVG Export Plug-In . SVG Version: 6.00 Build 0)  -->
<svg version="1.1" xmlns="http://www.w3.org/2000/svg" xmlns:xlink="http://www.w3.org/1999/xlink" x="0px" y="0px"
	 viewBox="0 0 1920 2100" style="enable-background:new 0 0 1920 2100;" xml:space="preserve">
<style type="text/css">
	.st0{clip-path:url(#SVGID_2_);}
	.st1{fill:url(#SVGID_3_);}
	.st2{fill:url(#SVGID_4_);}
	.st3{fill:url(#SVGID_5_);}
	.st4{fill:url(#SVGID_6_);}
	.st5{fill:url(#SVGID_7_);}
	.st6{fill:url(#SVGID_8_);}
	.st7{fill:url(#SVGID_9_);}
	.st8{fill:url(#SVGID_10_);}
	.st9{fill:url(#SVGID_11_);}
	.st10{fill:url(#SVGID_12_);}
	.st11{fill:url(#SVGID_13_);}
	.st12{fill:url(#SVGID_14_);}
	.st13{fill:url(#SVGID_15_);}
	.st14{fill:url(#SVGID_16_);}
	.st15{fill:url(#SVGID_17_);}
	.st16{fill:url(#SVGID_18_);}
	.st17{fill:url(#SVGID_19_);}
	.st18{fill:url(#SVGID_20_);}
	.st19{fill:url(#SVGID_21_);}
	.st20{fill:url(#SVGID_22_);}
	.st21{fill:url(#SVGID_23_);}
	.st22{fill:url(#SVGID_24_);}
	.st23{fill:url(#SVGID_25_);}
	.st24{fill:url(#SVGID_26_);}
	.st25{fill:url(#SVGID_27_);}
	.st26{fill:url(#SVGID_28_);}
	.st27{fill:url(#SVGID_29_);}
	.st28{fill:url(#SVGID_30_);}
	.st29{fill:url(#SVGID_31_);}
	.st30{fill:url(#SVGID_32_);}
	.st31{fill:url(#SVGID_33_);}
	.st32{fill:url(#SVGID_34_);}
	.st33{fill:url(#SVGID_35_);}
	.st34{fill:url(#SVGID_36_);}
	.st35{fill:url(#SVGID_37_);}
	.st36{fill:url(#SVGID_38_);}
	.st37{fill:url(#SVGID_39_);}
	.st38{fill:url(#SVGID_40_);}
	.st39{fill:url(#SVGID_41_);}
	.st40{fill:url(#SVGID_42_);}
	.st41{fill:url(#SVGID_43_);}
	.st42{fill:url(#SVGID_44_);}
	.st43{fill:url(#SVGID_45_);}
	.st44{fill:url(#SVGID_46_);}
	.st45{fill:url(#SVGID_47_);}
	.st46{clip-path:url(#SVGID_2_);fill:none;}
	.st47{display:none;}
</style>
<g id="Слой_1">
	<defs>
		<rect id="SVGID_1_" width="1920" height="2100"/>
	</defs>
	<clipPath id="SVGID_2_">
		<use xlink:href="#SVGID_1_"  style="overflow:visible;"/>
	</clipPath>
	<g class="st0">
		<linearGradient id="SVGID_3_" gradientUnits="userSpaceOnUse" x1="-82.96" y1="1357.7852" x2="0" y2="1357.7852">
			<stop  offset="4.464285e-03" style="stop-color:#5E0061"/>
			<stop  offset="1" style="stop-color:#1D006B"/>
		</linearGradient>
		<polygon class="st1" points="-83,947.7 -83,1745.7 0,1767.9 0,1033.3 		"/>
		<linearGradient id="SVGID_4_" gradientUnits="userSpaceOnUse" x1="0" y1="1454.6675" x2="570.8944" y2="1454.6675">
			<stop  offset="4.464285e-03" style="stop-color:#5E0061"/>
			<stop  offset="1" style="stop-color:#1D006B"/>
		</linearGradient>
		<polygon class="st2" points="570.9,1622.2 0,1033.3 0,1767.9 405.7,1876.1 		"/>
		<linearGradient id="SVGID_5_" gradientUnits="userSpaceOnUse" x1="1920" y1="1623.7129" x2="2004" y2="1623.7129">
			<stop  offset="4.464285e-03" style="stop-color:#5E0061"/>
			<stop  offset="1" style="stop-color:#1D006B"/>
		</linearGradient>
		<polygon class="st3" points="2004,1521.5 1920,1479.3 1920,1768.1 2004,1745.7 		"/>
		<linearGradient id="SVGID_6_" gradientUnits="userSpaceOnUse" x1="1641.9874" y1="1630.1787" x2="1920" y2="1630.1787">
			<stop  offset="4.464285e-03" style="stop-color:#5E0061"/>
			<stop  offset="1" style="stop-color:#1D006B"/>
		</linearGradient>
		<polygon class="st4" points="1798.3,1418.1 1642,1842.3 1920,1768.1 1920,1479.3 		"/>
		<linearGradient id="SVGID_7_" gradientUnits="userSpaceOnUse" x1="1920" y1="878.7041" x2="2004" y2="878.7041">
			<stop  offset="4.464285e-03" style="stop-color:#5E0061"/>
			<stop  offset="1" style="stop-color:#1D006B"/>
		</linearGradient>
		<polygon class="st5" points="2004,727.2 1920,669.7 1920,1087.7 2004,859.7 		"/>
		<linearGradient id="SVGID_8_" gradientUnits="userSpaceOnUse" x1="1157.0903" y1="871.2805" x2="1920" y2="871.2805">
			<stop  offset="4.464285e-03" style="stop-color:#5E0061"/>
			<stop  offset="1" style="stop-color:#1D006B"/>
		</linearGradient>
		<polygon class="st6" points="1415.4,324.5 1157.1,721.4 1235.3,1134.9 1798.3,1418.1 1920,1087.7 1920,669.7 		"/>
		<linearGradient id="SVGID_9_" gradientUnits="userSpaceOnUse" x1="570.8944" y1="1513.679" x2="1382.2424" y2="1513.679">
			<stop  offset="4.464285e-03" style="stop-color:#5E0061"/>
			<stop  offset="1" style="stop-color:#1D006B"/>
		</linearGradient>
		<polygon class="st7" points="973.6,1003.3 570.9,1622.2 960.5,2024 1382.2,1911.6 1235.3,1134.9 		"/>
		<linearGradient id="SVGID_10_" gradientUnits="userSpaceOnUse" x1="-82.96" y1="174.794" x2="0" y2="174.794">
			<stop  offset="4.464285e-03" style="stop-color:#5E0061"/>
			<stop  offset="1" style="stop-color:#1D006B"/>
		</linearGradient>
		<polygon class="st8" points="-83,0 -83,349.6 0,316.4 0,18 		"/>
		<linearGradient id="SVGID_11_" gradientUnits="userSpaceOnUse" x1="0" y1="167.1703" x2="483.71" y2="167.1703">
			<stop  offset="4.464285e-03" style="stop-color:#5E0061"/>
			<stop  offset="1" style="stop-color:#1D006B"/>
		</linearGradient>
		<polygon class="st9" points="0,18 0,316.4 483.7,122.7 		"/>
		<linearGradient id="SVGID_12_" gradientUnits="userSpaceOnUse" x1="1920" y1="435.6626" x2="2004" y2="435.6626">
			<stop  offset="4.464285e-03" style="stop-color:#5E0061"/>
			<stop  offset="1" style="stop-color:#1D006B"/>
		</linearGradient>
		<polygon class="st10" points="2004,144.2 1920,169.9 1920,669.7 2004,727.2 		"/>
		<linearGradient id="SVGID_13_" gradientUnits="userSpaceOnUse" x1="1415.4121" y1="419.797" x2="1920" y2="419.797">
			<stop  offset="4.464285e-03" style="stop-color:#5E0061"/>
			<stop  offset="1" style="stop-color:#1D006B"/>
		</linearGradient>
		<polygon class="st11" points="1415.4,324.5 1920,669.7 1920,169.9 		"/>
		<linearGradient id="SVGID_14_" gradientUnits="userSpaceOnUse" x1="405.6544" y1="1823.0959" x2="960.52" y2="1823.0959">
			<stop  offset="4.464285e-03" style="stop-color:#5E0061"/>
			<stop  offset="1" style="stop-color:#1D006B"/>
		</linearGradient>
		<polygon class="st12" points="405.7,1876.1 960.5,2024 570.9,1622.2 		"/>
		<linearGradient id="SVGID_15_" gradientUnits="userSpaceOnUse" x1="1920" y1="1190.625" x2="2004" y2="1190.625">
			<stop  offset="4.464285e-03" style="stop-color:#5E0061"/>
			<stop  offset="1" style="stop-color:#1D006B"/>
		</linearGradient>
		<polygon class="st13" points="2004,859.7 1920,1087.7 1920,1479.3 2004,1521.5 		"/>
		<linearGradient id="SVGID_16_" gradientUnits="userSpaceOnUse" x1="1798.2844" y1="1283.4973" x2="1920" y2="1283.4973">
			<stop  offset="4.464285e-03" style="stop-color:#5E0061"/>
			<stop  offset="1" style="stop-color:#1D006B"/>
		</linearGradient>
		<polygon class="st14" points="1798.3,1418.1 1920,1479.3 1920,1087.7 		"/>
		<linearGradient id="SVGID_17_" gradientUnits="userSpaceOnUse" x1="1235.3171" y1="1523.2474" x2="1798.2844" y2="1523.2474">
			<stop  offset="4.464285e-03" style="stop-color:#5E0061"/>
			<stop  offset="1" style="stop-color:#1D006B"/>
		</linearGradient>
		<polygon class="st15" points="1382.2,1911.6 1642,1842.3 1798.3,1418.1 1235.3,1134.9 		"/>
		<linearGradient id="SVGID_18_" gradientUnits="userSpaceOnUse" x1="-82.96" y1="752.5939" x2="0" y2="752.5939">
			<stop  offset="4.464285e-03" style="stop-color:#5E0061"/>
			<stop  offset="1" style="stop-color:#1D006B"/>
		</linearGradient>
		<polygon class="st16" points="-83,471.9 -83,947.7 0,1033.3 0,513.6 		"/>
		<linearGradient id="SVGID_19_" gradientUnits="userSpaceOnUse" x1="0" y1="1067.8914" x2="973.632" y2="1067.8914">
			<stop  offset="4.464285e-03" style="stop-color:#5E0061"/>
			<stop  offset="1" style="stop-color:#1D006B"/>
		</linearGradient>
		<polygon class="st17" points="973.6,1003.3 0,513.6 0,1033.3 570.9,1622.2 		"/>
		<linearGradient id="SVGID_20_" gradientUnits="userSpaceOnUse" x1="973.632" y1="928.1749" x2="1235.3171" y2="928.1749">
			<stop  offset="4.464285e-03" style="stop-color:#5E0061"/>
			<stop  offset="1" style="stop-color:#1D006B"/>
		</linearGradient>
		<polygon class="st18" points="973.6,1003.3 1235.3,1134.9 1157.1,721.4 		"/>
		<linearGradient id="SVGID_21_" gradientUnits="userSpaceOnUse" x1="1067.7555" y1="485.3117" x2="1415.4121" y2="485.3117">
			<stop  offset="4.464285e-03" style="stop-color:#5E0061"/>
			<stop  offset="1" style="stop-color:#1D006B"/>
		</linearGradient>
		<polygon class="st19" points="1157.1,721.4 1415.4,324.5 1067.8,249.2 		"/>
		<linearGradient id="SVGID_22_" gradientUnits="userSpaceOnUse" x1="-82.96" y1="415.0037" x2="0" y2="415.0037">
			<stop  offset="4.464285e-03" style="stop-color:#5E0061"/>
			<stop  offset="1" style="stop-color:#1D006B"/>
		</linearGradient>
		<polygon class="st20" points="-83,349.6 -83,471.9 0,513.6 0,316.4 		"/>
		<linearGradient id="SVGID_23_" gradientUnits="userSpaceOnUse" x1="0" y1="563.0179" x2="1157.0903" y2="563.0179">
			<stop  offset="4.464285e-03" style="stop-color:#5E0061"/>
			<stop  offset="1" style="stop-color:#1D006B"/>
		</linearGradient>
		<polygon class="st21" points="1157.1,721.4 1067.8,249.2 483.7,122.7 0,316.4 0,513.6 973.6,1003.3 		"/>
	</g>
	<g class="st0">
		<linearGradient id="SVGID_24_" gradientUnits="userSpaceOnUse" x1="-142.2256" y1="2198.5596" x2="511.6288" y2="2198.5596">
			<stop  offset="4.464285e-03" style="stop-color:#5E0061"/>
			<stop  offset="1" style="stop-color:#1D006B"/>
		</linearGradient>
		<polygon class="st22" points="0,1881.1 -142.2,1734.4 -142.2,2532.4 346.4,2662.7 511.6,2408.8 212.2,2100 0,2100 		"/>
		<linearGradient id="SVGID_25_" gradientUnits="userSpaceOnUse" x1="0" y1="1990.5448" x2="212.2278" y2="1990.5448">
			<stop  offset="4.464285e-03" style="stop-color:#5E0061"/>
			<stop  offset="1" style="stop-color:#1D006B"/>
		</linearGradient>
		<polygon class="st23" points="0,2100 212.2,2100 0,1881.1 		"/>
		
			<linearGradient id="SVGID_26_" gradientUnits="userSpaceOnUse" x1="-578.7345" y1="2177.9829" x2="-216.7219" y2="2177.9829" gradientTransform="matrix(-1 0 0 -1 1365.9999 4594.8398)">
			<stop  offset="4.464285e-03" style="stop-color:#5E0061"/>
			<stop  offset="1" style="stop-color:#1D006B"/>
		</linearGradient>
		<polygon class="st24" points="1944.7,2308.2 1944.7,2532.4 1582.7,2629 1739,2204.7 		"/>
		<linearGradient id="SVGID_27_" gradientUnits="userSpaceOnUse" x1="1530.7496" y1="2152.3738" x2="1777.6113" y2="2152.3738">
			<stop  offset="4.464285e-03" style="stop-color:#5E0061"/>
			<stop  offset="1" style="stop-color:#1D006B"/>
		</linearGradient>
		<polygon class="st25" points="1739,2204.7 1777.6,2100 1530.7,2100 		"/>
		<linearGradient id="SVGID_28_" gradientUnits="userSpaceOnUse" x1="1920" y1="1605.2261" x2="1944.7344" y2="1605.2261">
			<stop  offset="4.464285e-03" style="stop-color:#5E0061"/>
			<stop  offset="1" style="stop-color:#1D006B"/>
		</linearGradient>
		<polygon class="st26" points="1944.7,1513.8 1920,1496.9 1920,1713.5 1944.7,1646.4 		"/>
		<linearGradient id="SVGID_29_" gradientUnits="userSpaceOnUse" x1="1097.8248" y1="1605.5852" x2="1920" y2="1605.5852">
			<stop  offset="4.464285e-03" style="stop-color:#5E0061"/>
			<stop  offset="1" style="stop-color:#1D006B"/>
		</linearGradient>
		<polygon class="st27" points="1356.1,1111.2 1097.8,1508.1 1176.1,1921.6 1530.7,2100 1777.6,2100 1920,1713.5 1920,1496.9 		"/>
		<linearGradient id="SVGID_30_" gradientUnits="userSpaceOnUse" x1="511.6288" y1="2455.3601" x2="1322.9768" y2="2455.3601">
			<stop  offset="4.464285e-03" style="stop-color:#5E0061"/>
			<stop  offset="1" style="stop-color:#1D006B"/>
		</linearGradient>
		<polygon class="st28" points="511.6,2408.8 901.3,2810.7 1323,2698.2 1209.8,2100 712.6,2100 		"/>
		<linearGradient id="SVGID_31_" gradientUnits="userSpaceOnUse" x1="712.6146" y1="1944.9972" x2="1209.8003" y2="1944.9972">
			<stop  offset="4.464285e-03" style="stop-color:#5E0061"/>
			<stop  offset="1" style="stop-color:#1D006B"/>
		</linearGradient>
		<polygon class="st29" points="914.4,1790 712.6,2100 1209.8,2100 1176.1,1921.6 		"/>
		<linearGradient id="SVGID_32_" gradientUnits="userSpaceOnUse" x1="-98.6334" y1="990.773" x2="0" y2="990.773">
			<stop  offset="4.464285e-03" style="stop-color:#5E0061"/>
			<stop  offset="1" style="stop-color:#1D006B"/>
		</linearGradient>
		<polygon class="st30" points="-98.6,816 -98.6,1165.6 0,1126.1 0,837.3 		"/>
		<linearGradient id="SVGID_33_" gradientUnits="userSpaceOnUse" x1="0" y1="981.7091" x2="468.0366" y2="981.7091">
			<stop  offset="4.464285e-03" style="stop-color:#5E0061"/>
			<stop  offset="1" style="stop-color:#1D006B"/>
		</linearGradient>
		<polygon class="st31" points="0,837.3 0,1126.1 468,938.7 		"/>
		<linearGradient id="SVGID_34_" gradientUnits="userSpaceOnUse" x1="1920" y1="1222.3411" x2="1944.7344" y2="1222.3411">
			<stop  offset="4.464285e-03" style="stop-color:#5E0061"/>
			<stop  offset="1" style="stop-color:#1D006B"/>
		</linearGradient>
		<polygon class="st32" points="1944.7,930.8 1920,938.4 1920,1496.9 1944.7,1513.8 		"/>
		<linearGradient id="SVGID_35_" gradientUnits="userSpaceOnUse" x1="1356.1465" y1="1217.6692" x2="1920" y2="1217.6692">
			<stop  offset="4.464285e-03" style="stop-color:#5E0061"/>
			<stop  offset="1" style="stop-color:#1D006B"/>
		</linearGradient>
		<polygon class="st33" points="1356.1,1111.2 1920,1496.9 1920,938.4 		"/>
		
			<linearGradient id="SVGID_36_" gradientUnits="userSpaceOnUse" x1="464.7455" y1="1985.0656" x2="1019.6111" y2="1985.0656" gradientTransform="matrix(-1 0 0 -1 1365.9999 4594.8398)">
			<stop  offset="4.464285e-03" style="stop-color:#5E0061"/>
			<stop  offset="1" style="stop-color:#1D006B"/>
		</linearGradient>
		<polygon class="st34" points="901.3,2810.7 346.4,2662.7 511.6,2408.8 		"/>
		<linearGradient id="SVGID_37_" gradientUnits="userSpaceOnUse" x1="1739.0188" y1="1977.3032" x2="1944.7344" y2="1977.3032">
			<stop  offset="4.464285e-03" style="stop-color:#5E0061"/>
			<stop  offset="1" style="stop-color:#1D006B"/>
		</linearGradient>
		<polygon class="st35" points="1920,1713.5 1920,2100 1777.6,2100 1739,2204.7 1944.7,2308.2 1944.7,1646.4 		"/>
		<linearGradient id="SVGID_38_" gradientUnits="userSpaceOnUse" x1="1777.6113" y1="1906.7648" x2="1920" y2="1906.7648">
			<stop  offset="4.464285e-03" style="stop-color:#5E0061"/>
			<stop  offset="1" style="stop-color:#1D006B"/>
		</linearGradient>
		<polygon class="st36" points="1920,1713.5 1777.6,2100 1920,2100 		"/>
		<linearGradient id="SVGID_39_" gradientUnits="userSpaceOnUse" x1="1209.8003" y1="2399.1221" x2="1739.0188" y2="2399.1221">
			<stop  offset="4.464285e-03" style="stop-color:#5E0061"/>
			<stop  offset="1" style="stop-color:#1D006B"/>
		</linearGradient>
		<polygon class="st37" points="1323,2698.2 1582.7,2629 1739,2204.7 1530.7,2100 1209.8,2100 		"/>
		<linearGradient id="SVGID_40_" gradientUnits="userSpaceOnUse" x1="1176.0516" y1="2010.8037" x2="1530.7496" y2="2010.8037">
			<stop  offset="4.464285e-03" style="stop-color:#5E0061"/>
			<stop  offset="1" style="stop-color:#1D006B"/>
		</linearGradient>
		<polygon class="st38" points="1209.8,2100 1530.7,2100 1176.1,1921.6 		"/>
		<linearGradient id="SVGID_41_" gradientUnits="userSpaceOnUse" x1="-142.2256" y1="1569.8381" x2="0" y2="1569.8381">
			<stop  offset="4.464285e-03" style="stop-color:#5E0061"/>
			<stop  offset="1" style="stop-color:#1D006B"/>
		</linearGradient>
		<polygon class="st39" points="-142.2,1258.6 -142.2,1734.4 0,1881.1 0,1330.1 		"/>
		<linearGradient id="SVGID_42_" gradientUnits="userSpaceOnUse" x1="212.2278" y1="2254.4143" x2="712.6146" y2="2254.4143">
			<stop  offset="4.464285e-03" style="stop-color:#5E0061"/>
			<stop  offset="1" style="stop-color:#1D006B"/>
		</linearGradient>
		<polygon class="st40" points="511.6,2408.8 712.6,2100 212.2,2100 		"/>
		<linearGradient id="SVGID_43_" gradientUnits="userSpaceOnUse" x1="0" y1="1715.0592" x2="914.3664" y2="1715.0592">
			<stop  offset="4.464285e-03" style="stop-color:#5E0061"/>
			<stop  offset="1" style="stop-color:#1D006B"/>
		</linearGradient>
		<polygon class="st41" points="0,1330.1 0,1881.1 212.2,2100 712.6,2100 914.4,1790 		"/>
		<linearGradient id="SVGID_44_" gradientUnits="userSpaceOnUse" x1="914.3664" y1="1714.8533" x2="1176.0516" y2="1714.8533">
			<stop  offset="4.464285e-03" style="stop-color:#5E0061"/>
			<stop  offset="1" style="stop-color:#1D006B"/>
		</linearGradient>
		<polygon class="st42" points="914.4,1790 1176.1,1921.6 1097.8,1508.1 		"/>
		<linearGradient id="SVGID_45_" gradientUnits="userSpaceOnUse" x1="1008.4899" y1="1271.99" x2="1356.1465" y2="1271.99">
			<stop  offset="4.464285e-03" style="stop-color:#5E0061"/>
			<stop  offset="1" style="stop-color:#1D006B"/>
		</linearGradient>
		<polygon class="st43" points="1097.8,1508.1 1356.1,1111.2 1008.5,1035.9 		"/>
		<linearGradient id="SVGID_46_" gradientUnits="userSpaceOnUse" x1="-142.2256" y1="1204.7222" x2="0" y2="1204.7222">
			<stop  offset="4.464285e-03" style="stop-color:#5E0061"/>
			<stop  offset="1" style="stop-color:#1D006B"/>
		</linearGradient>
		<polygon class="st44" points="-142.2,1136.3 -142.2,1258.6 0,1330.1 0,1079.3 		"/>
		<linearGradient id="SVGID_47_" gradientUnits="userSpaceOnUse" x1="0" y1="1349.6963" x2="1097.8248" y2="1349.6963">
			<stop  offset="4.464285e-03" style="stop-color:#5E0061"/>
			<stop  offset="1" style="stop-color:#1D006B"/>
		</linearGradient>
		<polygon class="st45" points="1097.8,1508.1 1008.5,1035.9 424.4,909.4 0,1079.3 0,1330.1 914.4,1790 		"/>
	</g>
	<rect class="st46" width="1920" height="2100"/>
</g>
<g id="Слой_2" class="st47">
</g>
</svg>
