<svg xmlns="http://www.w3.org/2000/svg" xmlns:xlink="http://www.w3.org/1999/xlink" viewBox="0 0 2176 2574"><defs><style>.cls-1{fill:url(#Безымянный_градиент_36);}.cls-2{fill:url(#Безымянный_градиент_36-2);}.cls-3{fill:url(#Безымянный_градиент_36-3);}.cls-4{fill:url(#Безымянный_градиент_36-4);}.cls-5{fill:url(#Безымянный_градиент_36-5);}.cls-6{fill:url(#Безымянный_градиент_36-6);}.cls-7{fill:url(#Безымянный_градиент_36-7);}.cls-8{fill:url(#Безымянный_градиент_36-8);}.cls-9{fill:url(#Безымянный_градиент_36-9);}.cls-10{fill:url(#Безымянный_градиент_36-10);}.cls-11{fill:url(#Безымянный_градиент_36-11);}.cls-12{fill:url(#Безымянный_градиент_36-12);}.cls-13{fill:url(#Безымянный_градиент_36-13);}.cls-14{fill:url(#Безымянный_градиент_36-14);}.cls-15{fill:url(#Безымянный_градиент_36-15);}.cls-16{fill:url(#Безымянный_градиент_36-16);}</style><linearGradient id="Безымянный_градиент_36" x1="251.2" y1="2440.44" x2="909.73" y2="1655.64" gradientTransform="matrix(-1, 0.13, 0, 1, 2294, -231.91)" gradientUnits="userSpaceOnUse"><stop offset="0" stop-color="#b60000"/><stop offset="1" stop-color="#730262"/></linearGradient><linearGradient id="Безымянный_градиент_36-2" x1="59.21" y1="2441.53" x2="292.07" y2="2164.01" xlink:href="#Безымянный_градиент_36"/><linearGradient id="Безымянный_градиент_36-3" x1="1317.81" y1="2651.83" x2="2089.39" y2="1732.29" xlink:href="#Безымянный_градиент_36"/><linearGradient id="Безымянный_градиент_36-4" x1="1755.14" y1="2026.75" x2="2476.91" y2="1166.57" xlink:href="#Безымянный_градиент_36"/><linearGradient id="Безымянный_градиент_36-5" x1="195.42" y1="1789.57" x2="434.46" y2="1504.7" xlink:href="#Безымянный_градиент_36"/><linearGradient id="Безымянный_градиент_36-6" x1="176.36" y1="1288.13" x2="885.34" y2="443.19" xlink:href="#Безымянный_градиент_36"/><linearGradient id="Безымянный_градиент_36-7" x1="720.66" y1="2060.79" x2="1406.52" y2="1243.42" xlink:href="#Безымянный_градиент_36"/><linearGradient id="Безымянный_градиент_36-8" x1="1908.61" y1="280.84" x2="2238.53" y2="-112.34" xlink:href="#Безымянный_градиент_36"/><linearGradient id="Безымянный_градиент_36-9" x1="116.57" y1="678.78" x2="550.22" y2="161.98" xlink:href="#Безымянный_градиент_36"/><linearGradient id="Безымянный_градиент_36-10" x1="1172.51" y1="2439.94" x2="1688.45" y2="1825.07" xlink:href="#Безымянный_градиент_36"/><linearGradient id="Безымянный_градиент_36-11" x1="-14.44" y1="1383.53" x2="319.77" y2="985.22" xlink:href="#Безымянный_градиент_36"/><linearGradient id="Безымянный_градиент_36-12" x1="407.11" y1="1808.94" x2="925.56" y2="1191.08" xlink:href="#Безымянный_градиент_36"/><linearGradient id="Безымянный_градиент_36-13" x1="1304.85" y1="1503.19" x2="2221.59" y2="410.67" xlink:href="#Безымянный_градиент_36"/><linearGradient id="Безымянный_градиент_36-14" x1="830.73" y1="1111.5" x2="1078.83" y2="815.82" xlink:href="#Безымянный_градиент_36"/><linearGradient id="Безымянный_градиент_36-15" x1="765.05" y1="552.53" x2="1050.73" y2="212.06" xlink:href="#Безымянный_градиент_36"/><linearGradient id="Безымянный_градиент_36-16" x1="1112.35" y1="996.58" x2="1927.73" y2="24.85" xlink:href="#Безымянный_градиент_36"/></defs><title>Ресурс 5</title><g id="Слой_2" data-name="Слой 2"><g id="ФОНЫ_ВЕКТОР_" data-name="ФОНЫ ВЕКТОР!!"><polygon class="cls-1" points="1158.36 2414.45 1057.9 1858 1531.07 1686.37 2176 1270.02 2176 1801.35 1980.86 2301.15 1158.36 2414.45"/><polygon class="cls-2" points="2176 1801.35 2176 2274.27 1980.86 2301.15 2176 1801.35"/><polygon class="cls-3" points="1158.36 2414.45 0 2574 0 1969.77 636.83 1983.3 1255.64 1873.01 1326.08 1942.74 1158.36 2414.45"/><polygon class="cls-4" points="0 1078.88 731.54 1690.21 551.31 2010.55 0 1987.37 0 1078.88"/><polygon class="cls-5" points="2176 1278.07 2176 1508.01 1830.01 1684.98 1980.86 1211.63 2176 1278.07"/><polygon class="cls-6" points="1426.6 1022.93 1347.14 596.06 1607.23 133.79 2176 463.38 2176 599.32 1980.86 1211.63 1426.6 1022.93"/><polygon class="cls-7" points="1426.6 1022.93 1574.2 1815.83 1207.16 2277.19 731.54 1690.21 1158.36 931.6 1426.6 1022.93"/><polygon class="cls-8" points="0 0 636.83 53.01 0 397.98 0 0"/><polygon class="cls-9" points="2176 183.15 2176 463.38 1607.23 133.79 2176 183.15"/><polygon class="cls-10" points="1207.16 2277.19 551.31 2010.55 731.54 1690.21 1207.16 2277.19"/><polygon class="cls-11" points="2176 599.32 2176 1278.07 1980.86 1211.63 2176 599.32"/><polygon class="cls-12" points="1426.6 1022.93 1980.86 1211.63 1830.01 1684.98 1574.2 1815.83 1426.6 1022.93"/><polygon class="cls-13" points="1158.36 931.6 731.54 1690.21 0 1078.88 0 537.23 1158.36 931.6"/><polygon class="cls-14" points="1426.6 1022.93 1158.36 931.6 1347.14 596.06 1426.6 1022.93"/><polygon class="cls-15" points="1255.64 104.52 1607.23 133.79 1347.14 596.06 1255.64 104.52"/><polygon class="cls-16" points="1158.36 931.6 0 537.23 0 397.98 636.83 53.01 1255.64 104.52 1347.14 596.06 1158.36 931.6"/></g></g></svg>