<svg xmlns="http://www.w3.org/2000/svg" xmlns:xlink="http://www.w3.org/1999/xlink" viewBox="0 0 148.95 110"><defs><style>.cls-1{isolation:isolate;}.cls-2{fill:#c5c5c6;}.cls-3{fill:url(#linear-gradient);}.cls-4{fill:#fff;}.cls-5{mix-blend-mode:multiply;fill:url(#linear-gradient-2);}.cls-6{fill:url(#linear-gradient-3);}</style><linearGradient id="linear-gradient" x1="11.29" y1="88.5" x2="146.81" y2="10.26" gradientUnits="userSpaceOnUse"><stop offset="0" stop-color="#e4004f"/><stop offset="0.34" stop-color="#e2000f"/><stop offset="0.66" stop-color="#e2000f"/><stop offset="1" stop-color="#eb6303"/></linearGradient><linearGradient id="linear-gradient-2" x1="141.33" y1="4.96" x2="136.57" y2="10.31" gradientUnits="userSpaceOnUse"><stop offset="0" stop-color="#9b9b9b"/><stop offset="0.18" stop-color="#a6a6a6"/><stop offset="0.48" stop-color="#c2c2c2"/><stop offset="0.88" stop-color="#efefef"/><stop offset="1" stop-color="#fff"/></linearGradient><linearGradient id="linear-gradient-3" x1="142.77" y1="5.7" x2="139.85" y2="8.98" gradientUnits="userSpaceOnUse"><stop offset="0" stop-color="#bfbfc0"/><stop offset="0.1" stop-color="#d1d1d1"/><stop offset="0.32" stop-color="#f2f2f2"/><stop offset="0.44" stop-color="#fff"/></linearGradient></defs><title>Ресурс 2</title><g class="cls-1"><g id="Слой_2" data-name="Слой 2"><g id="Лого_кривые" data-name="Лого кривые"><path class="cls-2" d="M148.54,10.42c-4.64-3-10.25-8.7-11.62-9.69a1.55,1.55,0,0,0-1-.25L11.63,13.28c-2.89.26-6.89,1.23-9.34,4.35A10.3,10.3,0,0,0,.46,25.79L4.92,77.24C5.21,86.61,9.49,89.06,13,89.46l5.43.73.18,14.34.06,5.47,3.9-3.84,14-13.75,84.33,8.65a9,9,0,0,0,1.06.06c5.4,0,10.5-4.33,11.88-10.07V91l14.63-75.76C148.48,14.82,149.5,11.05,148.54,10.42Zm-1.82,2.22a1.65,1.65,0,0,1-.05.25Zm-25.6,86.11a7.87,7.87,0,0,0,.84,0h0C121.67,98.79,121.4,98.77,121.12,98.75Zm1,0c.21,0,.42,0,.63,0Zm.92-.08.53-.09Zm.85-.17.49-.13Zm.82-.25.46-.17Zm.79-.32.44-.22Zm.77-.4c.14-.08.28-.16.41-.25C126.59,97.4,126.45,97.48,126.31,97.56Zm.74-.47.39-.28Zm.7-.53.37-.31Zm.66-.58.34-.35Zm1.71-2.09a4.83,4.83,0,0,0,.26-.45A4.83,4.83,0,0,1,130.12,93.89ZM129,95.33c.11-.12.21-.25.32-.38C129.24,95.08,129.14,95.21,129,95.33Zm.57-.69c.1-.14.2-.27.29-.41C129.8,94.37,129.7,94.5,129.6,94.64Zm1.7-3.23a8.52,8.52,0,0,0,.26-.9A8.52,8.52,0,0,1,131.3,91.41Zm-.72,1.7.24-.5Zm.39-.83c.08-.19.16-.39.22-.58C131.13,91.89,131.05,92.09,131,92.28Z"/><path class="cls-3" d="M138,2.1l-126.4,13C6.8,15.55,1.38,17.87,2.47,25L7,76.63c.14,5.07,1.53,9.55,6.08,10l7.44,1,.2,16.35L35.4,89.5l85.42,8.77c4.54.5,9.24-3.21,10.44-8.24l15.53-79.81C143.62,7.48,138,2.1,138,2.1Z"/><path class="cls-4" d="M146.22,11.24c.39.3.14,1.19.14,1.19L131.26,90c-1.13,4.73-5.35,8.28-9.62,8.28a7.5,7.5,0,0,1-.82,0L35.4,89.5,20.67,104l-.2-16.35-7.44-1c-4.55-.49-5.94-5-6.08-10L2.47,25c-1.09-7.17,4.33-9.49,9.1-9.92L136.09,2.3s1.65-.11,2,.31c.92,1.22-.56,3.87,1.83,6.83C141.9,11.93,145.52,10.71,146.22,11.24Zm-9.6-11a1.6,1.6,0,0,0-1-.24L11.33,12.81C8.44,13.07,4.43,14,2,17.16A10.28,10.28,0,0,0,.16,25.31L4.62,76.77C4.91,86.13,9.18,88.58,12.74,89l5.43.73.17,14.33.07,5.47,3.9-3.84,14-13.75,84.32,8.65a9.16,9.16,0,0,0,1.06.06c5.4,0,10.51-4.32,11.88-10.06v-.1l15.21-78.11a2.07,2.07,0,0,0-.59-2.34C143.93,6.46,138,1.25,136.62.25Z"/><path class="cls-4" d="M18.35,38.28l8.92,0,0,8.67c0,4-2,5.46-8.87,5.44l0,5.9c11,0,15.14-3.09,15.16-11.32l0-14.47-15.19,0Z"/><path class="cls-4" d="M50.61,50.06c0,3.8-7.31,3.86-7.3,0l0-17.49-6.32,0,0,17.53a7.91,7.91,0,0,0,3.71,7L56.15,53.7a8.38,8.38,0,0,0,.77-3.58l0-17.53-6.3,0Z"/><path class="cls-4" d="M70.34,42.41c-.85-.08-3.91-.13-3.91-2,0-1.41,1.38-2.25,3.33-2.24s3.36.93,3.35,2.66l6.35,0c0-5.94-5-8.54-9.57-8.55-5.49,0-10.14,3.35-9.88,9,.46,5.94,5.41,6.88,9.58,7.3.83.1,3.18.17,3.77,1.41l6.35-1.37a.28.28,0,0,1,0-.09C78.6,43.87,74,42.9,70.34,42.41Z"/><polygon class="cls-4" points="81.3 32.66 81.28 38.56 88.25 38.58 88.23 46.77 94.55 45.4 94.57 38.6 101.5 38.62 101.52 32.72 81.3 32.66"/><path class="cls-4" d="M28.81,69l0,5.91c11,0,15.14-3.1,15.16-11.33l0-4.23-6.28,1.22v3C37.67,67.55,35.63,69,28.81,69Z"/><path class="cls-4" d="M47.43,66.65c0,5.84,4.92,8.69,9.91,8.71s10-2.81,10-8.65l0-11.88-6.32,1.22,0,10.61c0,3.8-7.31,3.85-7.3,0l0-9.18-6.32,1.22Z"/><polygon class="cls-4" points="71 75.03 77.3 75.05 77.34 62.2 81.06 67.78 84.56 67.79 88.3 62.31 88.27 75.08 94.54 75.09 94.61 49.56 88.66 50.72 82.84 59.23 78.44 52.69 71.05 54.12 71 75.03"/><path class="cls-4" d="M108.23,49.3l-9.89,0L98.26,75.1l6.31,0,0-7.68h3.58C120.24,67.49,120.33,49.33,108.23,49.3Zm0,12.21h-3.57V55.41l3.58,0C112.12,55.44,112.1,61.53,108.19,61.51Z"/><path class="cls-4" d="M122.26,68.82a3.21,3.21,0,0,0-3.33,3.28,3.38,3.38,0,0,0,6.75,0A3.22,3.22,0,0,0,122.26,68.82Z"/><rect class="cls-4" x="112.97" y="55.63" width="18.75" height="6.16" transform="translate(63.36 180.92) rotate(-89.87)"/><path class="cls-4" d="M72.25,27.45H70.72V23.62h2.53v.67H71.46v.78h.79a1.19,1.19,0,1,1,0,2.38Zm0-1.72h-.75v1.05h.75a.53.53,0,1,0,0-1.05Z"/><path class="cls-4" d="M77,27.45l-.22-.68H75.43l-.23.68h-.78l1.4-3.83h.58l1.4,3.83Zm-.89-2.7-.49,1.39h1Z"/><path class="cls-4" d="M80.08,24.29v3.16h-.75V24.29h-1v-.67h2.75v.67Z"/><path class="cls-4" d="M83.8,26.8a.92.92,0,0,1-.85.65h-.46v-.67h.3a.38.38,0,0,0,.4-.24l.11-.26-1.22-2.66h.77l.81,1.85.72-1.85h.78Z"/><path class="cls-4" d="M87.9,24.29v3.16h-.75V24.29h-1v-.67h2.75v.67Z"/><path class="cls-4" d="M92.17,27.45v-1.6H90.88v1.6h-.75V23.62h.75v1.57h1.29V23.62h.75v3.83Z"/><path class="cls-4" d="M95.89,27.45h-1.5V23.62h.74v1.45h.76a1.19,1.19,0,1,1,0,2.38Zm-.06-1.72h-.7v1.05h.7a.53.53,0,1,0,0-1.05Zm1.72,1.72V23.62h.75v3.83Z"/><path class="cls-4" d="M99.77,27.45V23.62h2.52v.67h-1.78v.9H102v.67h-1.51v.92h1.78v.67Z"/><path class="cls-4" d="M107.52,27.45l-.23-.68h-1.36l-.23.68h-.78l1.4-3.83h.58l1.41,3.83Zm-.89-2.7-.48,1.39h.95Z"/><path class="cls-4" d="M111,23.62A1.2,1.2,0,1,1,111,26h-.75v1.44h-.75V23.62Zm0,1.72a.53.53,0,1,0,0-1.05h-.71v1.05Z"/><path class="cls-4" d="M113.44,27.45V23.62H116v.67h-1.77v.9h1.51v.67h-1.51v.92H116v.67Z"/><path class="cls-4" d="M119.33,27.45v-1.6H118v1.6h-.75V23.62H118v1.57h1.3V23.62h.74v3.83Z"/><path class="cls-4" d="M123,27.45h-1.5V23.62h.75v1.45H123a1.19,1.19,0,1,1,0,2.38ZM123,25.73h-.7v1.05h.7a.53.53,0,1,0,0-1.05Zm1.72,1.72V23.62h.74v3.83Z"/><path class="cls-5" d="M124.94,1.11l22.18,19.63,1.77-9a1.34,1.34,0,0,0-.75-1.42c-3.7-1.78-8.12-7.2-11-9.66a2.35,2.35,0,0,0-1.38-.56Z"/><path class="cls-6" d="M136.62.25s1,.43,1.35,3.47.56,4.9,2.09,6.15,3.73,1.61,7,1.17c1.22-.08,1.51-.27,1.78.17a1.74,1.74,0,0,0-.71-1.18L137.1.57Z"/></g></g></g></svg>