<svg xmlns="http://www.w3.org/2000/svg" viewBox="0 0 113.89 139.5"><defs><style>.cls-1{isolation:isolate;}.cls-2{fill:#ff271f;fill-rule:evenodd;}</style></defs><title>Ресурс 2</title><g id="Слой_2" data-name="Слой 2"><g id="Лого_кривые" data-name="Лого кривые"><g class="cls-1"><path class="cls-2" d="M88.27,125.14s1.27,1.85,1.64,2.52,1.11,4.41,1.39,5.15A25.22,25.22,0,0,0,94,137.15c.54.55,2.3,2.19,3.12,2.31s2,0,2.26-.69a20.85,20.85,0,0,0-.13-4.22,15.54,15.54,0,0,0-.24-1.71,3.32,3.32,0,0,1-.11-1.27,13.39,13.39,0,0,0,.35-2.34c0-.56-.19-.58-.16-1.18a7.19,7.19,0,0,1,.19-1.56,3,3,0,0,0,.12-.74,16.7,16.7,0,0,0,2.57-3c.25-.78.58-2.37.83-3a12,12,0,0,1,1.1-2.48c.41-.5,2.1-2.35,2.48-3a41.31,41.31,0,0,0,1.87-4.23c.21-.65,1.46-4.64,1.72-5.58s1.2-4.74,1.49-5.39a21.29,21.29,0,0,0,.88-2.23c.16-.51.78-5,1.07-5.79a7.83,7.83,0,0,0,.41-3.5c-.22-.93-.06-1.8-.34-2.19s-1.58-1.82-2-2.26a14.44,14.44,0,0,0-1.3-1.24,2.87,2.87,0,0,0-.21-1.31c-.27-.62-1.05-2.88-1.05-2.88l2-2s-4.23-3-4.47-3.37a4.92,4.92,0,0,0-1.2-1.44c-.67-.55-5.1-3.91-5.78-4.3s-1.79-.94-1.79-.94l-1-1.14s.6-.71.57-1.19a3.94,3.94,0,0,0-.22-1A16.38,16.38,0,0,0,93.29,60l-3.37-.74-.46.63a2.1,2.1,0,0,1-1,0l-.86-.3s.05,1-.17,1.12a3.93,3.93,0,0,1-.58.33,5.56,5.56,0,0,0-2.08-.35c-.88.09-2.28.42-2.28.42l-.92-.73s-2.12-.58-2.71-.86-2.31-1.19-2.65-1.28-.86-.35-.86-.35S72.53,55.6,72,55,67.7,51.39,67,50.7,64.41,48.07,63.8,48a5.17,5.17,0,0,0-1.8.37,9.21,9.21,0,0,0-1.34.63A3.25,3.25,0,0,0,59,48.89c-.48.24-1.66,1.24-2.06,1.39a12.31,12.31,0,0,1-2,.48,4.54,4.54,0,0,0-1.33.48s-.43-4.38-.71-5.79-1.72-6.73-2-7.56-.86-4.23-1-5.23a16.19,16.19,0,0,0-.42-2.5,17,17,0,0,0-1.91-3.26c-.29-.32-.56-1.12-1-1.66s-1.29-1.45-1.29-1.45S44.17,22,43.64,21.24s-3.19-3.92-3.43-4.36a3.9,3.9,0,0,0-1.27-1s-2.68-3.46-3.31-4.1a34.49,34.49,0,0,1-3-3A5.8,5.8,0,0,0,32,7.33c-.42-.49-1.8-1.81-1.8-1.81l-.27.11a36.11,36.11,0,0,0-3-2.21C26.37,3.18,25.68,3,25.68,3a8.86,8.86,0,0,0-1.47-1.19c-.55-.28-1.07-.72-1.32-.85S21.57.18,21.42.1A1.06,1.06,0,0,0,20.81,0a.73.73,0,0,0-.51.22.69.69,0,0,0-.16.5,3.09,3.09,0,0,0,.21.6S19.19.73,19,.66A12.27,12.27,0,0,0,17.87.1,2.48,2.48,0,0,0,17,.22c-.13.09-.32.22-.36.4a.69.69,0,0,0,.07.56,3.25,3.25,0,0,0,.77.38,4.41,4.41,0,0,1,.78.4c.17.14,1,.8,1.19.93s.55.3.73.46a2.6,2.6,0,0,1,.36.45l-.05.12s-.62-.27-.84-.34-1-.21-1.28-.32-1.17-.55-1.51-.68a10.08,10.08,0,0,0-1.29-.45,2.85,2.85,0,0,0-1,0,.67.67,0,0,0-.48.44.77.77,0,0,0,.08.72,1.8,1.8,0,0,0,.63.38A4.54,4.54,0,0,1,15.4,4L14.84,4c-.21,0-.37,0-.48.21a.6.6,0,0,0-.08.52c.06.14.22.45.43.49s1.23.48,1.46.56,1.49.7,1.71.81,1.72.89,1.93,1,.56.24.72.28a2.17,2.17,0,0,1,.73.41,5.77,5.77,0,0,0,.88.73,8.62,8.62,0,0,0,1,.31,14.27,14.27,0,0,0,1.65.86,7.38,7.38,0,0,1,1.28.58,6.86,6.86,0,0,1,.92.88c.17.2.87.82,1.06,1s.5.68.61.86.72,1.47.91,1.84S30.86,17.8,31,18.1a20.48,20.48,0,0,0,1.36,1.82c.21.28,1.25,1.94,1.51,2.23s1.07,1.53,1.29,1.81,2.07,2.75,2.29,3,.95,1.41,1.1,1.6S40.64,32.34,41,33a15.26,15.26,0,0,1,1.65,2.41,24.9,24.9,0,0,1,.66,4.46,12.14,12.14,0,0,0,.39,2.86,9.37,9.37,0,0,0,.33,1.17.86.86,0,0,0-.44.66,4,4,0,0,0,.27,1.38,7.65,7.65,0,0,1-.75,1.58,3.93,3.93,0,0,0-.78,1.5,5.85,5.85,0,0,1-.48,1.21,11.82,11.82,0,0,0-2.84,1.67,44.67,44.67,0,0,1-3.73,2.56,5.31,5.31,0,0,0-2,.14l-2.2.76s-1.27-.1-1.65-.07a1.25,1.25,0,0,0-1,.43,3,3,0,0,0-.63.81,3.08,3.08,0,0,1-.6,1c-.26.29-.62.74-.62.74s-3.72-2.62-4.3-3-2.32-1.55-2.32-1.55-.66-1.42-.78-1.73-2.51-5.08-2.82-5.7-1.54-2.87-1.61-3.09.07-.72,0-1.19a21.82,21.82,0,0,0-1-3c-.27-.64-.73-2.23-.83-2.55s-.19-.73-.19-.73a2.25,2.25,0,0,0,0-.89c-.1-.49-1.73-1.82-2.09-2.07s-1.25-.94-1.43-1a3.53,3.53,0,0,0-.6-.11,12.64,12.64,0,0,1-1.31-1.17c-.19-.2-.87-.78-1-.92s-.55-.41-.55-.41S4.67,27.57,4.48,27.4,3.25,26,3.05,25.83s-.48-.44-.75-.4-.43,0-.54.15a.85.85,0,0,0-.13.4,2.78,2.78,0,0,0-.83-.26.93.93,0,0,0-.71.34.41.41,0,0,0-.06.4,1.24,1.24,0,0,0,.5.53,5.39,5.39,0,0,1,1,.67,7.48,7.48,0,0,1,.76,1l.34.4.07.1s.34.6.53,1,.95,1.26,1.07,1.59a11.46,11.46,0,0,0,.39,1.17A15.48,15.48,0,0,0,6,34.26a13.1,13.1,0,0,1,1.2,1.8c.16.33.5.73.56.88a1.62,1.62,0,0,1,0,.53A1.84,1.84,0,0,1,8.3,38c.1.27.93,2.8,1.06,3.19a11.86,11.86,0,0,1,.32,1.66c0,.41.19,1.1.22,1.41S10,45,10,45a2.44,2.44,0,0,0-.07.79A10.41,10.41,0,0,0,10.66,47a4.32,4.32,0,0,1,.17.8,11.47,11.47,0,0,0,.91,2.66A11.15,11.15,0,0,1,12.62,52c.15.45.43,1.35.51,1.7a5.4,5.4,0,0,1,.21,1.27c-.06.26.08.57.46.92a8.36,8.36,0,0,1,1,.83c.32.34.64.5.76.8s.1.65.36.86.67.21,1,.58S18.41,60.86,19,61.5s1.18,1.06,1.55,1.46,2,2.05,2,2.05a1.55,1.55,0,0,1-.28.77,1.6,1.6,0,0,0-.46.71,4.87,4.87,0,0,0-.18.93c0,.09-.56,1-.66,1.1a3.55,3.55,0,0,0-.41.91,5.07,5.07,0,0,0,.19,1.62c.15.52.23,1,.36,1.61a8.68,8.68,0,0,0,.81,1.93,7.79,7.79,0,0,0,1.22,1.63,25.35,25.35,0,0,0,2,1.71c.42.2,1,.64,1.31.78a13.94,13.94,0,0,0,2.35.75c.66.1,4.24.13,5.37-.86a15.71,15.71,0,0,0,2.61-3.13,23.35,23.35,0,0,0,1-2.24l.32-.66s.68.37,1.17.57a5.08,5.08,0,0,0,2.22.06,15.17,15.17,0,0,1,3-.12,24.54,24.54,0,0,0,3.85.51c1.56.07,3.41.11,3.89.07s.76-.43,1.14-.45a5.85,5.85,0,0,1,1.77.12c.38.15.37.36.65.27A3,3,0,0,1,57.23,73c1-.13,2.07-.19,2.07-.19a4.71,4.71,0,0,1,1.46.8c.43.43.45.75.9.94s1.26-.09,1.69.35.58,1.31.9,1.67a2.77,2.77,0,0,0,1,.57,3.33,3.33,0,0,0,1.09,1.37c.88.7,2.72,1.82,3.35,2.37a21.64,21.64,0,0,0,3.52,1.64c.89.43,3.3,1.26,4.26,1.62s1.81.59,2.74.88,2.45.69,2.45.69l-.06.52a2.53,2.53,0,0,0-.85.43,2,2,0,0,0-.49,1.51c0,.73,0,1.35,0,1.66s.4.37.21.71a4.88,4.88,0,0,0-.61,2.17,13.65,13.65,0,0,0,.15,3,10.58,10.58,0,0,1,0,1.78c-.06.52-.11,1-.21,1.59a8.77,8.77,0,0,0,0,1.5A19.18,19.18,0,0,0,79,101.62a2,2,0,0,0-.85,1.08c-.16.55-.27.76-.15,1.18a5.43,5.43,0,0,1,.17,1l-.9.66s-1.06.47-1.31,1.09a6.25,6.25,0,0,0,0,3.24c.35,1,1.6,3.28,2,4s1.06,1.36,1.37,2.18.89,2.82,1.27,3.68a6.92,6.92,0,0,0,2.15,2.84,21.06,21.06,0,0,0,2.93,1.76,11.93,11.93,0,0,0,1.89.57c.31.07.72.19.72.19Zm4.46-33.21a17.18,17.18,0,0,1-.31,2.76c-.21.42,0,2-.31,2.87s-.56,2.18-.92,2.92a4.6,4.6,0,0,0-.36,1.86,11,11,0,0,1-.81,2.33,7.52,7.52,0,0,0-.49,1.62,3.75,3.75,0,0,1-.06,1.4,3.76,3.76,0,0,0-.2,1.6c0,.7.43.73.43,1.8a4.07,4.07,0,0,1-.33,2.24,9,9,0,0,1-.86,1.43l-.65,1a16.38,16.38,0,0,0,.53,1.85,18.12,18.12,0,0,1,.8,2.35l.6,2.42,2.66-.6a11.14,11.14,0,0,1,1.2-2.72A9.86,9.86,0,0,1,95,117.85a6.44,6.44,0,0,1-.07-2.92,4.61,4.61,0,0,1,1.23-2.3c.68-.67,1.28-1.34,1.28-1.34a39.77,39.77,0,0,1,.2-4.8c.23-1,.11-1.46.74-1.76s.81-.24,1-1.28.07-.46,0-.93-.61-.26-.48-1.15,1-1,.77-1.48-.75-.21-.62-1a5.85,5.85,0,0,1,.55-1.57,5.4,5.4,0,0,1-1.54-.5c-.64-.35-1.33-.66-1.33-.66a3.74,3.74,0,0,1-1.07.71c-.61.25-.88-.32-1.21-1.56a11.63,11.63,0,0,0-.6-2.38,2.89,2.89,0,0,0-1.13-1Z"/></g></g></g></svg>