<?xml version="1.0" encoding="UTF-8" standalone="no"?>
<!-- Generator: Adobe Illustrator 19.0.0, SVG Export Plug-In . SVG Version: 6.00 Build 0)  -->

<svg
   xmlns:dc="http://purl.org/dc/elements/1.1/"
   xmlns:cc="http://creativecommons.org/ns#"
   xmlns:rdf="http://www.w3.org/1999/02/22-rdf-syntax-ns#"
   xmlns:svg="http://www.w3.org/2000/svg"
   xmlns="http://www.w3.org/2000/svg"
   xmlns:sodipodi="http://sodipodi.sourceforge.net/DTD/sodipodi-0.dtd"
   xmlns:inkscape="http://www.inkscape.org/namespaces/inkscape"
   version="1.1"
   id="Слой_1"
   x="0px"
   y="0px"
   width="916.6px"
   height="496px"
   viewBox="0 0 916.6 496"
   style="enable-background:new 0 0 916.6 496;"
   xml:space="preserve"
   sodipodi:docname="center-logo.svg"
   inkscape:version="0.92.1 r15371"><metadata
     id="metadata3714"><rdf:RDF><cc:Work
         rdf:about=""><dc:format>image/svg+xml</dc:format><dc:type
           rdf:resource="http://purl.org/dc/dcmitype/StillImage" /><dc:title></dc:title></cc:Work></rdf:RDF></metadata><defs
     id="defs3712" /><sodipodi:namedview
     pagecolor="#ffff0c"
     bordercolor="#666666"
     borderopacity="1"
     objecttolerance="10"
     gridtolerance="10"
     guidetolerance="10"
     inkscape:pageopacity="0"
     inkscape:pageshadow="2"
     inkscape:window-width="1366"
     inkscape:window-height="715"
     id="namedview3710"
     showgrid="false"
     inkscape:zoom="1.1008065"
     inkscape:cx="572.21516"
     inkscape:cy="211.663"
     inkscape:window-x="-8"
     inkscape:window-y="-8"
     inkscape:window-maximized="1"
     inkscape:current-layer="Слой_1" /><style
     type="text/css"
     id="style3680">
	.st0{fill:#FFFFFF;}
	.st1{fill:#E2000F;}
</style><g
     id="XMLID_47_"><path
       id="XMLID_51_"
       class="st0"
       d="M0,273.3l53.5,0.1l-0.1,52.1c-0.1,23.9-12.3,32.7-53.3,32.6l-0.1,35.4c66,0.2,90.9-18.6,91-68   l0.2-86.8l-91.2-0.2L0,273.3z" /><path
       id="XMLID_50_"
       class="st0"
       d="M193.7,344c-0.1,22.8-43.9,23.2-43.8-0.1l0.3-105l-37.9-0.1L111.9,344   c-0.1,19.5,9.1,33.3,22.3,41.9l92.7-20c2.9-6.2,4.6-13.4,4.6-21.5l0.3-105.2L194,239L193.7,344z" /><path
       id="XMLID_49_"
       class="st0"
       d="M312.1,298c-5.1-0.5-23.5-0.7-23.4-12.2c0-8.4,8.2-13.5,20-13.5c11.7,0,20.1,5.6,20.1,16   l38.1,0.1c0.1-35.7-29.7-51.3-57.4-51.3c-32.9-0.1-60.8,20.1-59.3,54.1c2.8,35.7,32.4,41.3,57.5,43.8c5,0.6,19.1,1.1,22.6,8.5   l38.1-8.2c0-0.2-0.1-0.4-0.1-0.5C361.6,306.8,334,301,312.1,298z" /><polygon
       id="XMLID_48_"
       class="st0"
       points="377.8,239.5 377.7,275 419.6,275.1 419.4,324.2 457.3,316 457.5,275.2 499.1,275.3    499.2,239.9  " /></g><g
     id="XMLID_38_"><path
       id="XMLID_46_"
       class="st1"
       d="M62.8,457.7l-0.1,35.4c66,0.2,90.9-18.6,91-68l0.1-25.4l-37.7,7.3l-0.1,18   C116,448.9,103.8,457.8,62.8,457.7z" /><path
       id="XMLID_45_"
       class="st1"
       d="M174.6,443.6c-0.1,35,29.5,52.1,59.4,52.2c29.9,0.3,60.1-16.9,60.2-51.9l0.2-71.3l-37.9,7.3   l-0.2,63.7c-0.1,22.8-43.9,23.1-43.9-0.1l0.2-55.1l-37.9,7.3L174.6,443.6z" /><polygon
       id="XMLID_44_"
       class="st1"
       points="316,493.8 353.8,493.9 354.1,416.8 376.3,450.3 397.4,450.4 419.8,417.5 419.6,494.1    457.3,494.2 457.7,341 422,347.9 387.1,399 360.7,359.8 316.3,368.3  " /><path
       id="XMLID_41_"
       class="st1"
       d="M539.4,339.4l-59.4-0.2l-0.5,155l37.9,0.1l0.1-46.1l21.5,0   C611.5,448.6,612.1,339.6,539.4,339.4z M539.2,412.7l-21.5-0.1l0.1-36.5l21.5,0.1C562.8,376.2,562.7,412.8,539.2,412.7z" /><path
       id="XMLID_40_"
       class="st1"
       d="M623.6,456.6c-11.1,0-19.9,7.9-20,19.7c0,9.7,8.8,19.7,19.9,19.8c12,0,20.6-9.9,20.6-19.6   C644.2,464.6,635.6,456.6,623.6,456.6z" /><polygon
       id="XMLID_39_"
       class="st1"
       points="642.8,339.7 605.8,339.6 605.5,452.1 642.5,452.2  " /></g><g
     id="XMLID_3_"><path
       id="XMLID_35_"
       class="st1"
       d="M323.5,208.3h-9.2v-23h15.2v4h-10.7v4.7h4.7c4.6,0,7.4,3,7.4,7.2   C331,205.3,328.2,208.3,323.5,208.3z M323.3,198h-4.5v6.3h4.5c2,0,3.2-1.3,3.2-3.2C326.5,199.2,325.3,198,323.3,198z" /><path
       id="XMLID_32_"
       class="st1"
       d="M352.1,208.3l-1.4-4.1h-8.2l-1.4,4.1h-4.7l8.4-23h3.5l8.4,23H352.1z M346.8,192.1l-2.9,8.4h5.7   L346.8,192.1z" /><path
       id="XMLID_30_"
       class="st1"
       d="M370.5,189.3v19H366v-19h-6v-4h16.5v4H370.5z" /><path
       id="XMLID_28_"
       class="st1"
       d="M392.8,204.4c-0.9,2.1-2.5,3.9-5.1,3.9H385v-4h1.8c1.2,0,2-0.5,2.4-1.5l0.7-1.6l-7.4-16h4.7   l4.8,11.1l4.4-11.1h4.6L392.8,204.4z" /><path
       id="XMLID_26_"
       class="st1"
       d="M417.5,189.3v19H413v-19h-6v-4h16.5v4H417.5z" /><path
       id="XMLID_24_"
       class="st1"
       d="M443.1,208.3v-9.6h-7.8v9.6h-4.5v-23h4.5v9.4h7.8v-9.4h4.5v23H443.1z" /><path
       id="XMLID_20_"
       class="st1"
       d="M465.4,208.3h-9v-23h4.5v8.7h4.6c4.5,0,7.5,3,7.5,7.2C472.9,205.3,469.9,208.3,465.4,208.3z    M465.1,198h-4.2v6.3h4.2c2,0,3.3-1.3,3.3-3.2C468.4,199.2,467.1,198,465.1,198z M475.4,208.3v-23h4.5v23H475.4z" /><path
       id="XMLID_18_"
       class="st1"
       d="M488.7,208.3v-23h15.1v4h-10.7v5.4h9.1v4h-9.1v5.6h10.7v4H488.7z" /><path
       id="XMLID_15_"
       class="st1"
       d="M535.2,208.3l-1.4-4.1h-8.2l-1.4,4.1h-4.7l8.4-23h3.5l8.4,23H535.2z M529.8,192.1l-2.9,8.4h5.7   L529.8,192.1z" /><path
       id="XMLID_12_"
       class="st1"
       d="M555.7,185.3c4.4,0,7.6,3,7.6,7.2c0,4.2-3.1,7.2-7.6,7.2h-4.4v8.7h-4.5v-23H555.7z    M555.5,195.6c2,0,3.3-1.2,3.3-3.1c0-1.9-1.3-3.2-3.3-3.2h-4.2v6.3H555.5z" /><path
       id="XMLID_10_"
       class="st1"
       d="M570.7,208.3v-23h15.1v4h-10.7v5.4h9.1v4h-9.1v5.6h10.7v4H570.7z" /><path
       id="XMLID_8_"
       class="st1"
       d="M606,208.3v-9.6h-7.8v9.6h-4.5v-23h4.5v9.4h7.8v-9.4h4.5v23H606z" /><path
       id="XMLID_4_"
       class="st1"
       d="M628.4,208.3h-9v-23h4.5v8.7h4.6c4.5,0,7.4,3,7.4,7.2C635.8,205.3,632.8,208.3,628.4,208.3z    M628,198h-4.2v6.3h4.2c2,0,3.3-1.3,3.3-3.2C631.3,199.2,630,198,628,198z M638.3,208.3v-23h4.5v23H638.3z" /></g><path
     id="XMLID_2_"
     class="st0"
     d="M730.8,99.4c-0.3-1.3-0.6-3.1-1.3-4.7c-0.4-0.9-1.3-1.6-1.6-2.4c-1.1,0.5-1,1.4-2.2,1.8  c-1.7,0.6-2.2,0.4-2.8-1.3c-0.6-1.9-1.6-6.7,0.9-7.7c-1.1-1-1.8-3.6-2.1-5.4c-0.2-1,0-1.9,0-3c0.1-0.9,0.5-2.3,0.6-3.3  c0.1-1,0.6-2,1-2.7c0.6-1,0.9-1.9,1.3-2.9c0.8-1.9,1.4-2.8,2.6-4.5c1.4-5.3,8.4-8.2,14.1-6.5c1.5,0.5,2.6,1.2,4,1.9  c0.9,0.5,1.8,1.1,2.7,1.7c1.8,1.3,3.1,2,5.1,3.8c0.8,0.7,1.3,1.8,2,2.6c0.8,0.8,1.1,1.9,1.7,3c0.6,1.1,1,1.9,1.2,3.1  c0.2,1.4,0.4,1.9,0.3,3.3c-0.1,0.8,0,1.3-0.2,1.8c0.6-0.2,2.6-0.5,3-0.1c2.1,1.7,3.3,5.4,0.9,8.3c2.4,0.3,7.5,0.7,12.5,1.3  c0.2-1.4,1.8-1.4,2.6-2c1-0.8,3.1-3.4,6.4-4c1.2-0.2,4.9,0.2,6.3,1.2c1,0.7-0.3,2.1,0.8,2.4c1.1,0.4,2.4-1.1,3.3-1.1  c1.2,0,3.7,1.5,3.3-0.2c-0.3-1.6,1.9-3.4,2.5-4c4-3.8,10-4.6,15.2-6.2c2.1-0.7,3.8-1.1,5.5-1.8c3.1-1.5,5.9-3.5,9.2-5.7  c3.1-2.2,5.8-4.5,8.5-6.6c2.2-1.7,4.5-3.3,6.9-5.2c4.5-3.6,5.6-5,7.2-5.8c0.9-0.4,1.6-0.7,3.6-0.7c4.4-3.1,7.1-4.3,12.4-8.5  c1.9-1.4,4-3.7,5.8-5.7c2.1-2.2,3.8-4.1,3.8-5.1c0.1-2.7,0.3-2.5,0.5-5c0.1-1.3-0.2-2.9,0.1-4.4c0.3-1.5,1.1-2.8,1.3-3.9  c0.2-1.5-1.5-2.7-0.9-3.7c1-1.7,4.5-0.9,5.1,0.6c0.7,1.6-0.1,3.9,0.8,5.2c0.5,0.7,1.7,0.5,2.9,0.2c1.2-0.3,2.5-0.6,4-1.5  c1-0.6,1.8-1.1,2.8-1.9c1.3-1.2,2.7-2.7,3.4-3.8c1.7-2.3,3.9-3.6,5.5-4c1.2-0.3,2-0.3,2.4,0.7c0.2,0.5,0.5,0.9,0,1.5  c-0.5,0.7-1.4,1-2.3,1.8c-1,0.9-1.9,2.4-2.8,3.3c-1.4,1.4-2.5,2.2-1.9,2.9c0.3,0.3,0.9,0.4,1.5,0c0.8-0.5,1.7-1.7,2.8-2.7  c0.9-0.8,1.9-1.3,2.9-2c0.8-0.6,1.5-1.4,2.2-1.9c1.1-0.8,2.3-0.9,2.8-0.8c1.8,0.2,2.4,1.6,1.6,2.9c-0.3,0.4-1.3,0.9-2.7,1.8  c-1.1,0.7-2.2,2.1-3.3,2.9c-2.3,1.7-4.3,2.8-4,3.5c0.2,0.4,1.3-0.3,3-0.8c1.2-0.4,2.6-0.4,4-0.9c1.3-0.5,2.7-1.6,3.8-1.8  c1.5-0.3,2.7,0.2,2.9,1c0.2,0.6,0.3,1.1-0.4,1.8c-0.8,0.7-2.2,1.2-3.6,1.9c-1.4,0.7-2.8,1.5-4.1,2c-1.8,0.6-3.2,0.8-4.3,1.2  c0.2,0.7,1.9,0.7,4.1,0.8c0.9,0.1,2,0.4,3,0.5c0.9,0.1,1.7-0.2,2.5-0.1c1.4,0.1,2.4,0.4,2.6,0.6c0.7,0.8,1.5,1.8,0.1,2.8  c-0.5,0.4-2,0.2-4.7,0.5c-2.4,0.2-5.3,0.2-7.9,0.8c-2.9,0.6-5.1,2.1-7,3.1c-1,0.6-2.1,1.2-3.1,1.8c-1.6,1-3.2,1.8-4.7,2.9  c-0.8,0.6-1.4,1.4-2.2,2c-1.8,1.5-3.4,2.6-5.1,4.2c-2.6,2.6-5.2,5.7-7.5,7.8c-3.6,3.3-7.4,7.8-11.2,11.3c-2.9,2.6-5.5,5.3-8.2,8.2  c-1.8,1.9-3.5,4-5.3,5.8c-2.2,2.1-4.2,4-5.8,6.1c-1.5,1.9-2.6,3.9-3.4,5.2c-2.7,4.5-5.2,6.5-10.5,7c-3.2,0.3-4.8,3.9-8.2,6.3  c-1.7,1.2-5.1,2.3-5.3,4.3c-0.1,0.9-0.6,2.7-2,3.8c-1.1,0.8-3.1,1.9-3.9,2.4c-0.8,0.5-1.6,0.4-2.4,0.9c-1.1,0.6-2.2,1.8-3.8,2.8  c-1.3,0.8-2.8,1.2-3.6,2.3c-0.8,1.1-1.1,2.7-1.5,4.1c-0.7,2.5-1.3,5-1.8,7.4c-0.6,3.2-0.6,6.7-0.7,10.2c-0.1,3.3-0.4,6.7-0.7,9.6  c1.4,2,3.6,4.3,5.4,6.8c5.5,7.4,9.6,13.6,12.8,19.5c-1.3,1.7-3,3.6-4.2,6.1c-1.6,3.5-2.7,7.7-3.6,10.8c-0.5,1.7-2,3.7-3,5.1  c-1.5,2.2-2.6,3.4-4.2,4.9c0.5,1.8,1.8,8,2.4,9.9c0.7,2.3,2.1,4.3,2.8,6.6c0.4,1.3,0.2,2.9,0.8,4.1c0.4,0.9,1,1.7,1.3,2.5  c0.3,0.7,0.3,1.5,0.7,2.2c0.6,1,1.8,1.8,2,3.1c0.5,3.1-1.1,4.1-1.4,6.5c2.7,1.8,2.4,3.8,2.1,5.2c1.3,1.4,1.9,3,1.5,3.1  c-0.4,0.1-1.4-1.2-2.2-2.3c0,3.1-0.4,6.1,0.6,9.3c1.3,3.9,2.7,7.6,3.4,10.6c0.7,3,0.5,4.1,0,6.5c-0.4,2-1.5,4.4-2.7,5.9  c-2.3,2.9-5.3,5.1-9.6,6.5c-2.7,0.9-5.3,1.1-7.8,0.9c-2.4-0.2-4.9-0.8-6.9-2.7c-3.1-2.8-4.7-5.5-5-9.7c-0.2-3.3,0.1-6.2,0.9-8.7  c0.5-1.7,1.3-3.1,2.1-4.9c0.7-1.6,1.4-3.7,1.4-5.5c0-1.5-0.5-2.6-0.6-4.2c-0.1-1.3,0-3-0.2-4.8c-0.3-2.7-0.8-5.4-0.9-6.7  c0-0.5,0.2-1.4,0.3-2.3c0-1-0.1-2,0-3c0.2-2.1,0.7-4.3,0.7-5c-1.7,2.1-3.1,3.1-5.1,4.1c-2.2,1.2-4.1,2.2-6.5,2.7  c-4.4,1-8.5,1.8-12.9,3.2c-3.7,1.2-2.3-3.6-6-3c-4.5,0.7-7.5,0.9-13.1-1.6c-5.6-2.5-7.7-3-12.5-7.5c-2-1.9-3.6,30.1-5.6,27.6  c0,2.5-2,4-3.9,3.5c0,2.1,0,3.6,0.2,5.9c0.2,2.7,0,3,0.1,3.9c0.3,0,0.6,0.3,0.9,0.9c0.4,0.7-0.1,2.1,0.3,3.4  c0.2,0.6,0.9,0.9,1.1,1.5c0.2,0.6-0.1,1.2,0.1,1.8c0.3,0.8,0.3-0.2,0.6,0.6c0.5,1.6,1,3.1,1.3,3.8c1.2-1.5,1.9-1.1,2.7-0.4  c0.6,0.6,1.5,1.6,2.1,2.4c0.6,0.8,0.8,1.3,1.4,1.2c2.3-0.5,3.8-0.6,5.4,3.2c1.6,3.6,2,5.9,1.5,9.9c-0.2,1.3-1.7,4.9-2.2,6.4  c-0.3,0.7-0.6,1.4-1.1,2.1c-0.8,1-2,2-1.9,2.7c0.1,0.7,0.6,1.2,1.1,2c0.4,0.5,0.6,1.2,1.2,2.1c1.5,2.2,2.1,2.8,2,5.5  c-0.1,1.7-0.6,2.8-1.4,4.6c-0.7,1.7-1.4,3.2-2.4,4.5c-1.5,2-3.5,3.5-5.4,5.3c-1.8,1.7-4,4-6.8,5.4c-2.1,1.1-4.6,1.7-7,0.6  c-1.1-0.5-2.1-1.5-2.8-2.8c-0.7-1.5-1-3.4-1.4-5.2c-0.5-1.9-1-3.7-1.1-5c-0.2-2.1,0.2-4.7,0.3-6.8c0.1-2-0.4-2.2-1.1-4.5  c-0.8-2.6-0.7-3.6-1.8-6.3c-0.3-0.7-0.4-1.6-0.8-2.5c-0.4-1.2-1.1-2.5-1.2-4.2c-1.3,1.8-1.1,6.5-2,6.3c-0.9-0.2-0.1-4.9,0.3-6.6  c-1.1-0.3-2.4-2.2-1.1-3.7c-2.1,0.2-4.3,0.3-4.4-1.4c-0.2-2.3,2.8-3.4,5.1-3.6c0.2-2.9,1.9-4.3,3.4-5.4c-1.1-1-1.2-2.5-0.4-3.2  c-0.3,0-0.8-1-1-1.8c-0.1-0.4,0.8-1,0.9-2.2c0.1-1.1-0.2,1.2-0.2,0.6c0-1.2,0.1-3.2,0-5c0-1.6-0.2-3,0.2-3.1  c-0.3-1.7-1.1-3.3-1.7-6.9c-0.4-2.1-1.2-6.7-2-9.1c-2.9-0.2-3.5-0.9-5.9-1.6c-3.1-0.8-3-1.2-2.4-4.4c0.2-1-1.3-2.5-1.1-3.5  c0.2-1.1-2.1-1.3-2-2.4c0.1-1.1-1.6-1.7-1.5-2.8c0-1-0.2-2-0.1-2.9c0.3-3-3.3-8.6-2.5-12.8c0.8-4.5,2.3-9.3,2.7-13.5  c0.2-2.4-0.2-4.6-0.4-6.5c-0.4-3-0.4-5.3-0.1-8.3c0.4-3.3,0.6-5.5,1.4-8c-0.4-3.9-0.4-8.5,1.8-12.1c1.8-2.9,4.9-5.2,8.3-6.1  c1.5-0.4,3.3-0.5,5.1-0.6c1.4-0.1,2.8-0.3,4-0.1c3.5,0.6,5.2-3.2,8.2-1.3c2,1.2-0.5-0.9,0.1-5.5c0.9-6.3-3.7-11.8-5.1-15.1  c-0.8-1.8-1.8-3.7-2.8-5.6c-0.4-0.8-0.6-1.6-1.2-2.3c-1-1.2-2.3-2.1-3.5-2.9c-2.8-2-4.3-3.9-5.3-6.5c-3.8,2.8-8.9,1.4-13-0.4  c-3.4-1.5-4.8-2.5-6.3-6c-0.8-2-0.8-2.8-1.2-2.9c-0.4,0-1.1,0.5-2.3,1.1c-0.7,0.4-1.5,0.6-2.3,0.6c-1.7,0.1-3.3-0.7-5.1-1.4  c-2.5-1-5.1-2-6.9-2.8c-3.7-1.6-4.5-3.1-7.1-6.7c-1.7-2.3-2.5-3.6-3.9-5.5c-1.4-1.9-3-3.9-4.3-4.7c-1.2-0.8-1.5-1.4-2.1-1.8  c-0.6-0.4-0.8-1-0.7-1.8c-2.1-1.8-3.5-3.7-4.8-5c-2.6-2.5-4.7-4.4-7.1-7c-0.9-1-1.6-2-2.7-2.9c-1.4-1.2-3.1-2.3-4.7-3.6  c-1.7-1.4-4-1.5-7-3.3c-1.1-0.7-2.3-1.6-3.8-2.1c-0.9-0.3-1.7-0.3-2.5-0.4c-0.7-0.1-1.2-0.3-1.9-0.4c-0.9-0.1-2-0.1-2.5,0  c-0.9,0.1-2.2,0-3.6,0.2c-1.2,0.1-2.3,0.5-3.2,0.5c-0.9,0-1.6-0.2-1.8-0.5c-0.7-0.7-0.7-1.3,0.1-2.3c0.8-1,3.9-0.8,5.8-1.4  c1.9-0.6,2.7-0.8,5.1-1.1c-0.5-0.2-1.1-0.7-1.8-1c-0.6-0.2-1.3-0.3-2-0.5c-0.9-0.2-1.9-0.7-2.7-0.9c-0.8-0.3-1.5-0.1-2.1-0.3  c-0.6-0.2-1-0.5-1.1-0.7c-0.5-0.9-0.4-2.6,0.8-3.1c0.3-0.1,1.5-0.2,2.5,0c0.7,0.1,1,0.4,1.8,0.5c1,0.2,1.9,0.1,2.8,0.3  c1.1,0.2,1.8,0.7,2.6,0.8c0.8,0.1,1.5-0.2,1.5-0.4c0.2-0.6-1.5-1-2.2-1.4c-0.5-0.3-0.8-0.6-1.4-1c-0.9-0.6-1.6-1.3-2.4-1.9  c-1.1-0.7-2.2-1.4-2.4-1.8c-0.9-1.3,1.3-2.5,2.8-2.3c0.7,0.1,1.2,0.5,2.3,1.1c0.5,0.2,1.2,0.4,1.7,0.7c1.5,0.9,1.9,1.2,2.9,1.9  c1.1,0.8,1.2,1.2,1.8,0.8c0.7-0.5,1-0.6,0.9-1.5c0-0.4,0-0.9-0.2-1.3c-0.2-0.5-0.8-0.9-1-1.4c-0.2-0.5-0.3-1.1-0.5-1.6  c-0.3-0.6-0.9-1.2-1-1.8c-0.1-0.4-0.1-0.6,0-1c0.2-1.1,1.3-1.5,2.3-1.2c0.7,0.2,1.2,0.8,1.7,1.4c0.3,0.4,1.3,1.3,1.9,2.4  c0.8,1.4,1.2,3.2,2.6,4.3c1.8,1.4,4.6,1.6,5.8-0.3c0.7-1,0.2-4.1,1.4-5.8c1.5-2.2,4.6-2.9,4.9-1.7c0.2,0.7,0.2,1,0.1,1.2  c-0.2,0.4-0.9,0.6-1.3,1.5c-0.2,0.5,0.1,1,0,1.6c-0.1,0.7-0.4,1.3-0.3,2c0.6,2.5,1.7,2.6,1.1,5.3c-0.6,2.3-1.2,4.4-0.5,6.4  c0.4,1.2,1.3,2.2,2.4,3.5c1.7,1.8,2.4,2.4,5.7,4.8c3.3,2.4,8.3,5.8,12.9,7.6c1.5-1.8,4.5,0.3,6,1.5c2.6,2.2,5.6,3.5,8.2,5.7  c1.2,1,3,1.8,4.5,2.8c1.3,1,2.3,2.2,3.7,3c1.2,0.6,2.7,0.6,3.7,1.2c1.1,0.7,2.8,1.3,4.1,1.4c1.3,0.1,2.6-0.7,3.9-0.5  c1,0.2,1.9,0.9,2.9,1c1.2,0.1,2.3,0,3.5,0.1c1.3,0.1,3.2-0.2,4.4,0.1c1.5,0.4,1.2,1.2,2.4,1.8c2,1.1,3.3-0.5,4,0  c0.7,0.6,1.4,3.7,2.4,3.5c1-0.3,0.5-1.6,1.3-2.6c0.9-1.2,2-2.1,3.5-2.6c2.1-0.6,2.9,1.1,4,1c1.3,0,2.1-2.3,3.2-2.7  c1.9-0.8,2.8,0.2,4.6,0.9C724.5,97.5,727.3,99.6,730.8,99.4L730.8,99.4z" /><text
     xml:space="preserve"
     style="font-style:normal;font-weight:normal;font-size:52.20251083px;line-height:1.25;font-family:sans-serif;letter-spacing:0px;word-spacing:0px;fill:#ffffff;fill-opacity:1;stroke:none;stroke-width:1.30506277;"
     x="646.43652"
     y="387.56155"
     id="text862"
     transform="scale(1.0186812,0.98166138)"><tspan
       sodipodi:role="line"
       id="tspan860"
       x="646.43652"
       y="387.56155"
       style="font-style:normal;font-variant:normal;font-weight:bold;font-stretch:normal;font-family:sans-serif;-inkscape-font-specification:'sans-serif Bold';stroke-width:1.30506277;fill:#ffffff;fill-opacity:1;">TM</tspan></text>
</svg>